<?xml version="1.0" encoding="utf-8" standalone="no"?>
<!DOCTYPE svg PUBLIC "-//W3C//DTD SVG 1.1//EN"
  "http://www.w3.org/Graphics/SVG/1.1/DTD/svg11.dtd">
<svg height="345.6pt" version="1.1" viewBox="0 0 460.8 345.6" width="460.8pt" xmlns="http://www.w3.org/2000/svg" xmlns:xlink="http://www.w3.org/1999/xlink">
 <metadata>
  <rdf:RDF xmlns:cc="http://creativecommons.org/ns#" xmlns:dc="http://purl.org/dc/elements/1.1/" xmlns:rdf="http://www.w3.org/1999/02/22-rdf-syntax-ns#">
   <cc:Work>
    <dc:type rdf:resource="http://purl.org/dc/dcmitype/StillImage"/>
    <dc:date>2021-12-13T19:29:50.890696</dc:date>
    <dc:format>image/svg+xml</dc:format>
    <dc:creator>
     <cc:Agent>
      <dc:title>Matplotlib v3.4.2, https://matplotlib.org/</dc:title>
     </cc:Agent>
    </dc:creator>
   </cc:Work>
  </rdf:RDF>
 </metadata>
 <defs>
  <style type="text/css">*{stroke-linecap:butt;stroke-linejoin:round;}</style>
 </defs>
 <g id="figure_1">
  <g id="patch_1">
   <path d="M 0 345.6 
L 460.8 345.6 
L 460.8 0 
L 0 0 
z
" style="fill:#ffffff;"/>
  </g>
  <g id="axes_1">
   <g id="patch_2">
    <path d="M 57.6 307.584 
L 219.927273 307.584 
L 219.927273 41.472 
L 57.6 41.472 
z
" style="fill:#ffffff;"/>
   </g>
   <g id="patch_3">
    <path clip-path="url(#p3edb24f116)" d="M 64.978512 307.584 
L 65.716364 307.584 
L 65.716364 305.990038 
L 64.978512 305.990038 
z
" style="fill:#1f77b4;"/>
   </g>
   <g id="patch_4">
    <path clip-path="url(#p3edb24f116)" d="M 65.716364 307.584 
L 66.454215 307.584 
L 66.454215 304.396075 
L 65.716364 304.396075 
z
" style="fill:#1f77b4;"/>
   </g>
   <g id="patch_5">
    <path clip-path="url(#p3edb24f116)" d="M 66.454215 307.584 
L 67.192066 307.584 
L 67.192066 302.802113 
L 66.454215 302.802113 
z
" style="fill:#1f77b4;"/>
   </g>
   <g id="patch_6">
    <path clip-path="url(#p3edb24f116)" d="M 67.192066 307.584 
L 67.929917 307.584 
L 67.929917 305.990038 
L 67.192066 305.990038 
z
" style="fill:#1f77b4;"/>
   </g>
   <g id="patch_7">
    <path clip-path="url(#p3edb24f116)" d="M 67.929917 307.584 
L 68.667769 307.584 
L 68.667769 301.208151 
L 67.929917 301.208151 
z
" style="fill:#1f77b4;"/>
   </g>
   <g id="patch_8">
    <path clip-path="url(#p3edb24f116)" d="M 68.667769 307.584 
L 69.40562 307.584 
L 69.40562 304.396075 
L 68.667769 304.396075 
z
" style="fill:#1f77b4;"/>
   </g>
   <g id="patch_9">
    <path clip-path="url(#p3edb24f116)" d="M 69.40562 307.584 
L 70.143471 307.584 
L 70.143471 307.584 
L 69.40562 307.584 
z
" style="fill:#1f77b4;"/>
   </g>
   <g id="patch_10">
    <path clip-path="url(#p3edb24f116)" d="M 70.143471 307.584 
L 70.881322 307.584 
L 70.881322 307.584 
L 70.143471 307.584 
z
" style="fill:#1f77b4;"/>
   </g>
   <g id="patch_11">
    <path clip-path="url(#p3edb24f116)" d="M 70.881322 307.584 
L 71.619174 307.584 
L 71.619174 305.990038 
L 70.881322 305.990038 
z
" style="fill:#1f77b4;"/>
   </g>
   <g id="patch_12">
    <path clip-path="url(#p3edb24f116)" d="M 71.619174 307.584 
L 72.357025 307.584 
L 72.357025 301.208151 
L 71.619174 301.208151 
z
" style="fill:#1f77b4;"/>
   </g>
   <g id="patch_13">
    <path clip-path="url(#p3edb24f116)" d="M 72.357025 307.584 
L 73.094876 307.584 
L 73.094876 305.990038 
L 72.357025 305.990038 
z
" style="fill:#1f77b4;"/>
   </g>
   <g id="patch_14">
    <path clip-path="url(#p3edb24f116)" d="M 73.094876 307.584 
L 73.832727 307.584 
L 73.832727 307.584 
L 73.094876 307.584 
z
" style="fill:#1f77b4;"/>
   </g>
   <g id="patch_15">
    <path clip-path="url(#p3edb24f116)" d="M 73.832727 307.584 
L 74.570579 307.584 
L 74.570579 304.396075 
L 73.832727 304.396075 
z
" style="fill:#1f77b4;"/>
   </g>
   <g id="patch_16">
    <path clip-path="url(#p3edb24f116)" d="M 74.570579 307.584 
L 75.30843 307.584 
L 75.30843 305.990038 
L 74.570579 305.990038 
z
" style="fill:#1f77b4;"/>
   </g>
   <g id="patch_17">
    <path clip-path="url(#p3edb24f116)" d="M 75.30843 307.584 
L 76.046281 307.584 
L 76.046281 305.990038 
L 75.30843 305.990038 
z
" style="fill:#1f77b4;"/>
   </g>
   <g id="patch_18">
    <path clip-path="url(#p3edb24f116)" d="M 76.046281 307.584 
L 76.784132 307.584 
L 76.784132 305.990038 
L 76.046281 305.990038 
z
" style="fill:#1f77b4;"/>
   </g>
   <g id="patch_19">
    <path clip-path="url(#p3edb24f116)" d="M 76.784132 307.584 
L 77.521983 307.584 
L 77.521983 304.396075 
L 76.784132 304.396075 
z
" style="fill:#1f77b4;"/>
   </g>
   <g id="patch_20">
    <path clip-path="url(#p3edb24f116)" d="M 77.521983 307.584 
L 78.259835 307.584 
L 78.259835 304.396075 
L 77.521983 304.396075 
z
" style="fill:#1f77b4;"/>
   </g>
   <g id="patch_21">
    <path clip-path="url(#p3edb24f116)" d="M 78.259835 307.584 
L 78.997686 307.584 
L 78.997686 304.396075 
L 78.259835 304.396075 
z
" style="fill:#1f77b4;"/>
   </g>
   <g id="patch_22">
    <path clip-path="url(#p3edb24f116)" d="M 78.997686 307.584 
L 79.735537 307.584 
L 79.735537 302.802113 
L 78.997686 302.802113 
z
" style="fill:#1f77b4;"/>
   </g>
   <g id="patch_23">
    <path clip-path="url(#p3edb24f116)" d="M 79.735537 307.584 
L 80.473388 307.584 
L 80.473388 305.990038 
L 79.735537 305.990038 
z
" style="fill:#1f77b4;"/>
   </g>
   <g id="patch_24">
    <path clip-path="url(#p3edb24f116)" d="M 80.473388 307.584 
L 81.21124 307.584 
L 81.21124 302.802113 
L 80.473388 302.802113 
z
" style="fill:#1f77b4;"/>
   </g>
   <g id="patch_25">
    <path clip-path="url(#p3edb24f116)" d="M 81.21124 307.584 
L 81.949091 307.584 
L 81.949091 302.802113 
L 81.21124 302.802113 
z
" style="fill:#1f77b4;"/>
   </g>
   <g id="patch_26">
    <path clip-path="url(#p3edb24f116)" d="M 81.949091 307.584 
L 82.686942 307.584 
L 82.686942 302.802113 
L 81.949091 302.802113 
z
" style="fill:#1f77b4;"/>
   </g>
   <g id="patch_27">
    <path clip-path="url(#p3edb24f116)" d="M 82.686942 307.584 
L 83.424793 307.584 
L 83.424793 305.990038 
L 82.686942 305.990038 
z
" style="fill:#1f77b4;"/>
   </g>
   <g id="patch_28">
    <path clip-path="url(#p3edb24f116)" d="M 83.424793 307.584 
L 84.162645 307.584 
L 84.162645 302.802113 
L 83.424793 302.802113 
z
" style="fill:#1f77b4;"/>
   </g>
   <g id="patch_29">
    <path clip-path="url(#p3edb24f116)" d="M 84.162645 307.584 
L 84.900496 307.584 
L 84.900496 301.208151 
L 84.162645 301.208151 
z
" style="fill:#1f77b4;"/>
   </g>
   <g id="patch_30">
    <path clip-path="url(#p3edb24f116)" d="M 84.900496 307.584 
L 85.638347 307.584 
L 85.638347 305.990038 
L 84.900496 305.990038 
z
" style="fill:#1f77b4;"/>
   </g>
   <g id="patch_31">
    <path clip-path="url(#p3edb24f116)" d="M 85.638347 307.584 
L 86.376198 307.584 
L 86.376198 302.802113 
L 85.638347 302.802113 
z
" style="fill:#1f77b4;"/>
   </g>
   <g id="patch_32">
    <path clip-path="url(#p3edb24f116)" d="M 86.376198 307.584 
L 87.11405 307.584 
L 87.11405 301.208151 
L 86.376198 301.208151 
z
" style="fill:#1f77b4;"/>
   </g>
   <g id="patch_33">
    <path clip-path="url(#p3edb24f116)" d="M 87.11405 307.584 
L 87.851901 307.584 
L 87.851901 304.396075 
L 87.11405 304.396075 
z
" style="fill:#1f77b4;"/>
   </g>
   <g id="patch_34">
    <path clip-path="url(#p3edb24f116)" d="M 87.851901 307.584 
L 88.589752 307.584 
L 88.589752 304.396075 
L 87.851901 304.396075 
z
" style="fill:#1f77b4;"/>
   </g>
   <g id="patch_35">
    <path clip-path="url(#p3edb24f116)" d="M 88.589752 307.584 
L 89.327603 307.584 
L 89.327603 298.020226 
L 88.589752 298.020226 
z
" style="fill:#1f77b4;"/>
   </g>
   <g id="patch_36">
    <path clip-path="url(#p3edb24f116)" d="M 89.327603 307.584 
L 90.065455 307.584 
L 90.065455 299.614189 
L 89.327603 299.614189 
z
" style="fill:#1f77b4;"/>
   </g>
   <g id="patch_37">
    <path clip-path="url(#p3edb24f116)" d="M 90.065455 307.584 
L 90.803306 307.584 
L 90.803306 302.802113 
L 90.065455 302.802113 
z
" style="fill:#1f77b4;"/>
   </g>
   <g id="patch_38">
    <path clip-path="url(#p3edb24f116)" d="M 90.803306 307.584 
L 91.541157 307.584 
L 91.541157 304.396075 
L 90.803306 304.396075 
z
" style="fill:#1f77b4;"/>
   </g>
   <g id="patch_39">
    <path clip-path="url(#p3edb24f116)" d="M 91.541157 307.584 
L 92.279008 307.584 
L 92.279008 299.614189 
L 91.541157 299.614189 
z
" style="fill:#1f77b4;"/>
   </g>
   <g id="patch_40">
    <path clip-path="url(#p3edb24f116)" d="M 92.279008 307.584 
L 93.01686 307.584 
L 93.01686 302.802113 
L 92.279008 302.802113 
z
" style="fill:#1f77b4;"/>
   </g>
   <g id="patch_41">
    <path clip-path="url(#p3edb24f116)" d="M 93.01686 307.584 
L 93.754711 307.584 
L 93.754711 299.614189 
L 93.01686 299.614189 
z
" style="fill:#1f77b4;"/>
   </g>
   <g id="patch_42">
    <path clip-path="url(#p3edb24f116)" d="M 93.754711 307.584 
L 94.492562 307.584 
L 94.492562 298.020226 
L 93.754711 298.020226 
z
" style="fill:#1f77b4;"/>
   </g>
   <g id="patch_43">
    <path clip-path="url(#p3edb24f116)" d="M 94.492562 307.584 
L 95.230413 307.584 
L 95.230413 291.644377 
L 94.492562 291.644377 
z
" style="fill:#1f77b4;"/>
   </g>
   <g id="patch_44">
    <path clip-path="url(#p3edb24f116)" d="M 95.230413 307.584 
L 95.968264 307.584 
L 95.968264 302.802113 
L 95.230413 302.802113 
z
" style="fill:#1f77b4;"/>
   </g>
   <g id="patch_45">
    <path clip-path="url(#p3edb24f116)" d="M 95.968264 307.584 
L 96.706116 307.584 
L 96.706116 293.23834 
L 95.968264 293.23834 
z
" style="fill:#1f77b4;"/>
   </g>
   <g id="patch_46">
    <path clip-path="url(#p3edb24f116)" d="M 96.706116 307.584 
L 97.443967 307.584 
L 97.443967 302.802113 
L 96.706116 302.802113 
z
" style="fill:#1f77b4;"/>
   </g>
   <g id="patch_47">
    <path clip-path="url(#p3edb24f116)" d="M 97.443967 307.584 
L 98.181818 307.584 
L 98.181818 298.020226 
L 97.443967 298.020226 
z
" style="fill:#1f77b4;"/>
   </g>
   <g id="patch_48">
    <path clip-path="url(#p3edb24f116)" d="M 98.181818 307.584 
L 98.919669 307.584 
L 98.919669 296.426264 
L 98.181818 296.426264 
z
" style="fill:#1f77b4;"/>
   </g>
   <g id="patch_49">
    <path clip-path="url(#p3edb24f116)" d="M 98.919669 307.584 
L 99.657521 307.584 
L 99.657521 291.644377 
L 98.919669 291.644377 
z
" style="fill:#1f77b4;"/>
   </g>
   <g id="patch_50">
    <path clip-path="url(#p3edb24f116)" d="M 99.657521 307.584 
L 100.395372 307.584 
L 100.395372 302.802113 
L 99.657521 302.802113 
z
" style="fill:#1f77b4;"/>
   </g>
   <g id="patch_51">
    <path clip-path="url(#p3edb24f116)" d="M 100.395372 307.584 
L 101.133223 307.584 
L 101.133223 291.644377 
L 100.395372 291.644377 
z
" style="fill:#1f77b4;"/>
   </g>
   <g id="patch_52">
    <path clip-path="url(#p3edb24f116)" d="M 101.133223 307.584 
L 101.871074 307.584 
L 101.871074 296.426264 
L 101.133223 296.426264 
z
" style="fill:#1f77b4;"/>
   </g>
   <g id="patch_53">
    <path clip-path="url(#p3edb24f116)" d="M 101.871074 307.584 
L 102.608926 307.584 
L 102.608926 293.23834 
L 101.871074 293.23834 
z
" style="fill:#1f77b4;"/>
   </g>
   <g id="patch_54">
    <path clip-path="url(#p3edb24f116)" d="M 102.608926 307.584 
L 103.346777 307.584 
L 103.346777 294.832302 
L 102.608926 294.832302 
z
" style="fill:#1f77b4;"/>
   </g>
   <g id="patch_55">
    <path clip-path="url(#p3edb24f116)" d="M 103.346777 307.584 
L 104.084628 307.584 
L 104.084628 298.020226 
L 103.346777 298.020226 
z
" style="fill:#1f77b4;"/>
   </g>
   <g id="patch_56">
    <path clip-path="url(#p3edb24f116)" d="M 104.084628 307.584 
L 104.822479 307.584 
L 104.822479 288.456453 
L 104.084628 288.456453 
z
" style="fill:#1f77b4;"/>
   </g>
   <g id="patch_57">
    <path clip-path="url(#p3edb24f116)" d="M 104.822479 307.584 
L 105.560331 307.584 
L 105.560331 290.050415 
L 104.822479 290.050415 
z
" style="fill:#1f77b4;"/>
   </g>
   <g id="patch_58">
    <path clip-path="url(#p3edb24f116)" d="M 105.560331 307.584 
L 106.298182 307.584 
L 106.298182 293.23834 
L 105.560331 293.23834 
z
" style="fill:#1f77b4;"/>
   </g>
   <g id="patch_59">
    <path clip-path="url(#p3edb24f116)" d="M 106.298182 307.584 
L 107.036033 307.584 
L 107.036033 282.080604 
L 106.298182 282.080604 
z
" style="fill:#1f77b4;"/>
   </g>
   <g id="patch_60">
    <path clip-path="url(#p3edb24f116)" d="M 107.036033 307.584 
L 107.773884 307.584 
L 107.773884 280.486642 
L 107.036033 280.486642 
z
" style="fill:#1f77b4;"/>
   </g>
   <g id="patch_61">
    <path clip-path="url(#p3edb24f116)" d="M 107.773884 307.584 
L 108.511736 307.584 
L 108.511736 293.23834 
L 107.773884 293.23834 
z
" style="fill:#1f77b4;"/>
   </g>
   <g id="patch_62">
    <path clip-path="url(#p3edb24f116)" d="M 108.511736 307.584 
L 109.249587 307.584 
L 109.249587 277.298717 
L 108.511736 277.298717 
z
" style="fill:#1f77b4;"/>
   </g>
   <g id="patch_63">
    <path clip-path="url(#p3edb24f116)" d="M 109.249587 307.584 
L 109.987438 307.584 
L 109.987438 286.862491 
L 109.249587 286.862491 
z
" style="fill:#1f77b4;"/>
   </g>
   <g id="patch_64">
    <path clip-path="url(#p3edb24f116)" d="M 109.987438 307.584 
L 110.725289 307.584 
L 110.725289 282.080604 
L 109.987438 282.080604 
z
" style="fill:#1f77b4;"/>
   </g>
   <g id="patch_65">
    <path clip-path="url(#p3edb24f116)" d="M 110.725289 307.584 
L 111.46314 307.584 
L 111.46314 285.268528 
L 110.725289 285.268528 
z
" style="fill:#1f77b4;"/>
   </g>
   <g id="patch_66">
    <path clip-path="url(#p3edb24f116)" d="M 111.46314 307.584 
L 112.200992 307.584 
L 112.200992 274.110792 
L 111.46314 274.110792 
z
" style="fill:#1f77b4;"/>
   </g>
   <g id="patch_67">
    <path clip-path="url(#p3edb24f116)" d="M 112.200992 307.584 
L 112.938843 307.584 
L 112.938843 286.862491 
L 112.200992 286.862491 
z
" style="fill:#1f77b4;"/>
   </g>
   <g id="patch_68">
    <path clip-path="url(#p3edb24f116)" d="M 112.938843 307.584 
L 113.676694 307.584 
L 113.676694 275.704755 
L 112.938843 275.704755 
z
" style="fill:#1f77b4;"/>
   </g>
   <g id="patch_69">
    <path clip-path="url(#p3edb24f116)" d="M 113.676694 307.584 
L 114.414545 307.584 
L 114.414545 266.140981 
L 113.676694 266.140981 
z
" style="fill:#1f77b4;"/>
   </g>
   <g id="patch_70">
    <path clip-path="url(#p3edb24f116)" d="M 114.414545 307.584 
L 115.152397 307.584 
L 115.152397 278.892679 
L 114.414545 278.892679 
z
" style="fill:#1f77b4;"/>
   </g>
   <g id="patch_71">
    <path clip-path="url(#p3edb24f116)" d="M 115.152397 307.584 
L 115.890248 307.584 
L 115.890248 277.298717 
L 115.152397 277.298717 
z
" style="fill:#1f77b4;"/>
   </g>
   <g id="patch_72">
    <path clip-path="url(#p3edb24f116)" d="M 115.890248 307.584 
L 116.628099 307.584 
L 116.628099 277.298717 
L 115.890248 277.298717 
z
" style="fill:#1f77b4;"/>
   </g>
   <g id="patch_73">
    <path clip-path="url(#p3edb24f116)" d="M 116.628099 307.584 
L 117.36595 307.584 
L 117.36595 275.704755 
L 116.628099 275.704755 
z
" style="fill:#1f77b4;"/>
   </g>
   <g id="patch_74">
    <path clip-path="url(#p3edb24f116)" d="M 117.36595 307.584 
L 118.103802 307.584 
L 118.103802 270.922868 
L 117.36595 270.922868 
z
" style="fill:#1f77b4;"/>
   </g>
   <g id="patch_75">
    <path clip-path="url(#p3edb24f116)" d="M 118.103802 307.584 
L 118.841653 307.584 
L 118.841653 253.389283 
L 118.103802 253.389283 
z
" style="fill:#1f77b4;"/>
   </g>
   <g id="patch_76">
    <path clip-path="url(#p3edb24f116)" d="M 118.841653 307.584 
L 119.579504 307.584 
L 119.579504 245.419472 
L 118.841653 245.419472 
z
" style="fill:#1f77b4;"/>
   </g>
   <g id="patch_77">
    <path clip-path="url(#p3edb24f116)" d="M 119.579504 307.584 
L 120.317355 307.584 
L 120.317355 248.607396 
L 119.579504 248.607396 
z
" style="fill:#1f77b4;"/>
   </g>
   <g id="patch_78">
    <path clip-path="url(#p3edb24f116)" d="M 120.317355 307.584 
L 121.055207 307.584 
L 121.055207 254.983245 
L 120.317355 254.983245 
z
" style="fill:#1f77b4;"/>
   </g>
   <g id="patch_79">
    <path clip-path="url(#p3edb24f116)" d="M 121.055207 307.584 
L 121.793058 307.584 
L 121.793058 254.983245 
L 121.055207 254.983245 
z
" style="fill:#1f77b4;"/>
   </g>
   <g id="patch_80">
    <path clip-path="url(#p3edb24f116)" d="M 121.793058 307.584 
L 122.530909 307.584 
L 122.530909 258.17117 
L 121.793058 258.17117 
z
" style="fill:#1f77b4;"/>
   </g>
   <g id="patch_81">
    <path clip-path="url(#p3edb24f116)" d="M 122.530909 307.584 
L 123.26876 307.584 
L 123.26876 239.043623 
L 122.530909 239.043623 
z
" style="fill:#1f77b4;"/>
   </g>
   <g id="patch_82">
    <path clip-path="url(#p3edb24f116)" d="M 123.26876 307.584 
L 124.006612 307.584 
L 124.006612 235.855698 
L 123.26876 235.855698 
z
" style="fill:#1f77b4;"/>
   </g>
   <g id="patch_83">
    <path clip-path="url(#p3edb24f116)" d="M 124.006612 307.584 
L 124.744463 307.584 
L 124.744463 234.261736 
L 124.006612 234.261736 
z
" style="fill:#1f77b4;"/>
   </g>
   <g id="patch_84">
    <path clip-path="url(#p3edb24f116)" d="M 124.744463 307.584 
L 125.482314 307.584 
L 125.482314 216.728151 
L 124.744463 216.728151 
z
" style="fill:#1f77b4;"/>
   </g>
   <g id="patch_85">
    <path clip-path="url(#p3edb24f116)" d="M 125.482314 307.584 
L 126.220165 307.584 
L 126.220165 248.607396 
L 125.482314 248.607396 
z
" style="fill:#1f77b4;"/>
   </g>
   <g id="patch_86">
    <path clip-path="url(#p3edb24f116)" d="M 126.220165 307.584 
L 126.958017 307.584 
L 126.958017 207.164377 
L 126.220165 207.164377 
z
" style="fill:#1f77b4;"/>
   </g>
   <g id="patch_87">
    <path clip-path="url(#p3edb24f116)" d="M 126.958017 307.584 
L 127.695868 307.584 
L 127.695868 189.630792 
L 126.958017 189.630792 
z
" style="fill:#1f77b4;"/>
   </g>
   <g id="patch_88">
    <path clip-path="url(#p3edb24f116)" d="M 127.695868 307.584 
L 128.433719 307.584 
L 128.433719 172.097208 
L 127.695868 172.097208 
z
" style="fill:#1f77b4;"/>
   </g>
   <g id="patch_89">
    <path clip-path="url(#p3edb24f116)" d="M 128.433719 307.584 
L 129.17157 307.584 
L 129.17157 146.593811 
L 128.433719 146.593811 
z
" style="fill:#1f77b4;"/>
   </g>
   <g id="patch_90">
    <path clip-path="url(#p3edb24f116)" d="M 129.17157 307.584 
L 129.909421 307.584 
L 129.909421 125.872302 
L 129.17157 125.872302 
z
" style="fill:#1f77b4;"/>
   </g>
   <g id="patch_91">
    <path clip-path="url(#p3edb24f116)" d="M 129.909421 307.584 
L 130.647273 307.584 
L 130.647273 157.751547 
L 129.909421 157.751547 
z
" style="fill:#1f77b4;"/>
   </g>
   <g id="patch_92">
    <path clip-path="url(#p3edb24f116)" d="M 130.647273 307.584 
L 131.385124 307.584 
L 131.385124 149.781736 
L 130.647273 149.781736 
z
" style="fill:#1f77b4;"/>
   </g>
   <g id="patch_93">
    <path clip-path="url(#p3edb24f116)" d="M 131.385124 307.584 
L 132.122975 307.584 
L 132.122975 89.21117 
L 131.385124 89.21117 
z
" style="fill:#1f77b4;"/>
   </g>
   <g id="patch_94">
    <path clip-path="url(#p3edb24f116)" d="M 132.122975 307.584 
L 132.860826 307.584 
L 132.860826 114.714566 
L 132.122975 114.714566 
z
" style="fill:#1f77b4;"/>
   </g>
   <g id="patch_95">
    <path clip-path="url(#p3edb24f116)" d="M 132.860826 307.584 
L 133.598678 307.584 
L 133.598678 68.48966 
L 132.860826 68.48966 
z
" style="fill:#1f77b4;"/>
   </g>
   <g id="patch_96">
    <path clip-path="url(#p3edb24f116)" d="M 133.598678 307.584 
L 134.336529 307.584 
L 134.336529 157.751547 
L 133.598678 157.751547 
z
" style="fill:#1f77b4;"/>
   </g>
   <g id="patch_97">
    <path clip-path="url(#p3edb24f116)" d="M 134.336529 307.584 
L 135.07438 307.584 
L 135.07438 125.872302 
L 134.336529 125.872302 
z
" style="fill:#1f77b4;"/>
   </g>
   <g id="patch_98">
    <path clip-path="url(#p3edb24f116)" d="M 135.07438 307.584 
L 135.812231 307.584 
L 135.812231 125.872302 
L 135.07438 125.872302 
z
" style="fill:#1f77b4;"/>
   </g>
   <g id="patch_99">
    <path clip-path="url(#p3edb24f116)" d="M 135.812231 307.584 
L 136.550083 307.584 
L 136.550083 124.27834 
L 135.812231 124.27834 
z
" style="fill:#1f77b4;"/>
   </g>
   <g id="patch_100">
    <path clip-path="url(#p3edb24f116)" d="M 136.550083 307.584 
L 137.287934 307.584 
L 137.287934 160.939472 
L 136.550083 160.939472 
z
" style="fill:#1f77b4;"/>
   </g>
   <g id="patch_101">
    <path clip-path="url(#p3edb24f116)" d="M 137.287934 307.584 
L 138.025785 307.584 
L 138.025785 105.150792 
L 137.287934 105.150792 
z
" style="fill:#1f77b4;"/>
   </g>
   <g id="patch_102">
    <path clip-path="url(#p3edb24f116)" d="M 138.025785 307.584 
L 138.763636 307.584 
L 138.763636 114.714566 
L 138.025785 114.714566 
z
" style="fill:#1f77b4;"/>
   </g>
   <g id="patch_103">
    <path clip-path="url(#p3edb24f116)" d="M 138.763636 307.584 
L 139.501488 307.584 
L 139.501488 132.248151 
L 138.763636 132.248151 
z
" style="fill:#1f77b4;"/>
   </g>
   <g id="patch_104">
    <path clip-path="url(#p3edb24f116)" d="M 139.501488 307.584 
L 140.239339 307.584 
L 140.239339 132.248151 
L 139.501488 132.248151 
z
" style="fill:#1f77b4;"/>
   </g>
   <g id="patch_105">
    <path clip-path="url(#p3edb24f116)" d="M 140.239339 307.584 
L 140.97719 307.584 
L 140.97719 116.308528 
L 140.239339 116.308528 
z
" style="fill:#1f77b4;"/>
   </g>
   <g id="patch_106">
    <path clip-path="url(#p3edb24f116)" d="M 140.97719 307.584 
L 141.715041 307.584 
L 141.715041 54.144 
L 140.97719 54.144 
z
" style="fill:#1f77b4;"/>
   </g>
   <g id="patch_107">
    <path clip-path="url(#p3edb24f116)" d="M 141.715041 307.584 
L 142.452893 307.584 
L 142.452893 117.902491 
L 141.715041 117.902491 
z
" style="fill:#1f77b4;"/>
   </g>
   <g id="patch_108">
    <path clip-path="url(#p3edb24f116)" d="M 142.452893 307.584 
L 143.190744 307.584 
L 143.190744 93.993057 
L 142.452893 93.993057 
z
" style="fill:#1f77b4;"/>
   </g>
   <g id="patch_109">
    <path clip-path="url(#p3edb24f116)" d="M 143.190744 307.584 
L 143.928595 307.584 
L 143.928595 127.466264 
L 143.190744 127.466264 
z
" style="fill:#1f77b4;"/>
   </g>
   <g id="patch_110">
    <path clip-path="url(#p3edb24f116)" d="M 143.928595 307.584 
L 144.666446 307.584 
L 144.666446 164.127396 
L 143.928595 164.127396 
z
" style="fill:#1f77b4;"/>
   </g>
   <g id="patch_111">
    <path clip-path="url(#p3edb24f116)" d="M 144.666446 307.584 
L 145.404298 307.584 
L 145.404298 178.473057 
L 144.666446 178.473057 
z
" style="fill:#1f77b4;"/>
   </g>
   <g id="patch_112">
    <path clip-path="url(#p3edb24f116)" d="M 145.404298 307.584 
L 146.142149 307.584 
L 146.142149 175.285132 
L 145.404298 175.285132 
z
" style="fill:#1f77b4;"/>
   </g>
   <g id="patch_113">
    <path clip-path="url(#p3edb24f116)" d="M 146.142149 307.584 
L 146.88 307.584 
L 146.88 184.848906 
L 146.142149 184.848906 
z
" style="fill:#1f77b4;"/>
   </g>
   <g id="patch_114">
    <path clip-path="url(#p3edb24f116)" d="M 146.88 307.584 
L 147.617851 307.584 
L 147.617851 196.006642 
L 146.88 196.006642 
z
" style="fill:#1f77b4;"/>
   </g>
   <g id="patch_115">
    <path clip-path="url(#p3edb24f116)" d="M 147.617851 307.584 
L 148.355702 307.584 
L 148.355702 192.818717 
L 147.617851 192.818717 
z
" style="fill:#1f77b4;"/>
   </g>
   <g id="patch_116">
    <path clip-path="url(#p3edb24f116)" d="M 148.355702 307.584 
L 149.093554 307.584 
L 149.093554 218.322113 
L 148.355702 218.322113 
z
" style="fill:#1f77b4;"/>
   </g>
   <g id="patch_117">
    <path clip-path="url(#p3edb24f116)" d="M 149.093554 307.584 
L 149.831405 307.584 
L 149.831405 234.261736 
L 149.093554 234.261736 
z
" style="fill:#1f77b4;"/>
   </g>
   <g id="patch_118">
    <path clip-path="url(#p3edb24f116)" d="M 149.831405 307.584 
L 150.569256 307.584 
L 150.569256 224.697962 
L 149.831405 224.697962 
z
" style="fill:#1f77b4;"/>
   </g>
   <g id="patch_119">
    <path clip-path="url(#p3edb24f116)" d="M 150.569256 307.584 
L 151.307107 307.584 
L 151.307107 235.855698 
L 150.569256 235.855698 
z
" style="fill:#1f77b4;"/>
   </g>
   <g id="patch_120">
    <path clip-path="url(#p3edb24f116)" d="M 151.307107 307.584 
L 152.044959 307.584 
L 152.044959 242.231547 
L 151.307107 242.231547 
z
" style="fill:#1f77b4;"/>
   </g>
   <g id="patch_121">
    <path clip-path="url(#p3edb24f116)" d="M 152.044959 307.584 
L 152.78281 307.584 
L 152.78281 266.140981 
L 152.044959 266.140981 
z
" style="fill:#1f77b4;"/>
   </g>
   <g id="patch_122">
    <path clip-path="url(#p3edb24f116)" d="M 152.78281 307.584 
L 153.520661 307.584 
L 153.520661 243.825509 
L 152.78281 243.825509 
z
" style="fill:#1f77b4;"/>
   </g>
   <g id="patch_123">
    <path clip-path="url(#p3edb24f116)" d="M 153.520661 307.584 
L 154.258512 307.584 
L 154.258512 261.359094 
L 153.520661 261.359094 
z
" style="fill:#1f77b4;"/>
   </g>
   <g id="patch_124">
    <path clip-path="url(#p3edb24f116)" d="M 154.258512 307.584 
L 154.996364 307.584 
L 154.996364 259.765132 
L 154.258512 259.765132 
z
" style="fill:#1f77b4;"/>
   </g>
   <g id="patch_125">
    <path clip-path="url(#p3edb24f116)" d="M 154.996364 307.584 
L 155.734215 307.584 
L 155.734215 253.389283 
L 154.996364 253.389283 
z
" style="fill:#1f77b4;"/>
   </g>
   <g id="patch_126">
    <path clip-path="url(#p3edb24f116)" d="M 155.734215 307.584 
L 156.472066 307.584 
L 156.472066 272.51683 
L 155.734215 272.51683 
z
" style="fill:#1f77b4;"/>
   </g>
   <g id="patch_127">
    <path clip-path="url(#p3edb24f116)" d="M 156.472066 307.584 
L 157.209917 307.584 
L 157.209917 274.110792 
L 156.472066 274.110792 
z
" style="fill:#1f77b4;"/>
   </g>
   <g id="patch_128">
    <path clip-path="url(#p3edb24f116)" d="M 157.209917 307.584 
L 157.947769 307.584 
L 157.947769 270.922868 
L 157.209917 270.922868 
z
" style="fill:#1f77b4;"/>
   </g>
   <g id="patch_129">
    <path clip-path="url(#p3edb24f116)" d="M 157.947769 307.584 
L 158.68562 307.584 
L 158.68562 267.734943 
L 157.947769 267.734943 
z
" style="fill:#1f77b4;"/>
   </g>
   <g id="patch_130">
    <path clip-path="url(#p3edb24f116)" d="M 158.68562 307.584 
L 159.423471 307.584 
L 159.423471 277.298717 
L 158.68562 277.298717 
z
" style="fill:#1f77b4;"/>
   </g>
   <g id="patch_131">
    <path clip-path="url(#p3edb24f116)" d="M 159.423471 307.584 
L 160.161322 307.584 
L 160.161322 282.080604 
L 159.423471 282.080604 
z
" style="fill:#1f77b4;"/>
   </g>
   <g id="patch_132">
    <path clip-path="url(#p3edb24f116)" d="M 160.161322 307.584 
L 160.899174 307.584 
L 160.899174 277.298717 
L 160.161322 277.298717 
z
" style="fill:#1f77b4;"/>
   </g>
   <g id="patch_133">
    <path clip-path="url(#p3edb24f116)" d="M 160.899174 307.584 
L 161.637025 307.584 
L 161.637025 259.765132 
L 160.899174 259.765132 
z
" style="fill:#1f77b4;"/>
   </g>
   <g id="patch_134">
    <path clip-path="url(#p3edb24f116)" d="M 161.637025 307.584 
L 162.374876 307.584 
L 162.374876 285.268528 
L 161.637025 285.268528 
z
" style="fill:#1f77b4;"/>
   </g>
   <g id="patch_135">
    <path clip-path="url(#p3edb24f116)" d="M 162.374876 307.584 
L 163.112727 307.584 
L 163.112727 280.486642 
L 162.374876 280.486642 
z
" style="fill:#1f77b4;"/>
   </g>
   <g id="patch_136">
    <path clip-path="url(#p3edb24f116)" d="M 163.112727 307.584 
L 163.850579 307.584 
L 163.850579 285.268528 
L 163.112727 285.268528 
z
" style="fill:#1f77b4;"/>
   </g>
   <g id="patch_137">
    <path clip-path="url(#p3edb24f116)" d="M 163.850579 307.584 
L 164.58843 307.584 
L 164.58843 283.674566 
L 163.850579 283.674566 
z
" style="fill:#1f77b4;"/>
   </g>
   <g id="patch_138">
    <path clip-path="url(#p3edb24f116)" d="M 164.58843 307.584 
L 165.326281 307.584 
L 165.326281 283.674566 
L 164.58843 283.674566 
z
" style="fill:#1f77b4;"/>
   </g>
   <g id="patch_139">
    <path clip-path="url(#p3edb24f116)" d="M 165.326281 307.584 
L 166.064132 307.584 
L 166.064132 290.050415 
L 165.326281 290.050415 
z
" style="fill:#1f77b4;"/>
   </g>
   <g id="patch_140">
    <path clip-path="url(#p3edb24f116)" d="M 166.064132 307.584 
L 166.801983 307.584 
L 166.801983 290.050415 
L 166.064132 290.050415 
z
" style="fill:#1f77b4;"/>
   </g>
   <g id="patch_141">
    <path clip-path="url(#p3edb24f116)" d="M 166.801983 307.584 
L 167.539835 307.584 
L 167.539835 293.23834 
L 166.801983 293.23834 
z
" style="fill:#1f77b4;"/>
   </g>
   <g id="patch_142">
    <path clip-path="url(#p3edb24f116)" d="M 167.539835 307.584 
L 168.277686 307.584 
L 168.277686 282.080604 
L 167.539835 282.080604 
z
" style="fill:#1f77b4;"/>
   </g>
   <g id="patch_143">
    <path clip-path="url(#p3edb24f116)" d="M 168.277686 307.584 
L 169.015537 307.584 
L 169.015537 294.832302 
L 168.277686 294.832302 
z
" style="fill:#1f77b4;"/>
   </g>
   <g id="patch_144">
    <path clip-path="url(#p3edb24f116)" d="M 169.015537 307.584 
L 169.753388 307.584 
L 169.753388 298.020226 
L 169.015537 298.020226 
z
" style="fill:#1f77b4;"/>
   </g>
   <g id="patch_145">
    <path clip-path="url(#p3edb24f116)" d="M 169.753388 307.584 
L 170.49124 307.584 
L 170.49124 296.426264 
L 169.753388 296.426264 
z
" style="fill:#1f77b4;"/>
   </g>
   <g id="patch_146">
    <path clip-path="url(#p3edb24f116)" d="M 170.49124 307.584 
L 171.229091 307.584 
L 171.229091 294.832302 
L 170.49124 294.832302 
z
" style="fill:#1f77b4;"/>
   </g>
   <g id="patch_147">
    <path clip-path="url(#p3edb24f116)" d="M 171.229091 307.584 
L 171.966942 307.584 
L 171.966942 290.050415 
L 171.229091 290.050415 
z
" style="fill:#1f77b4;"/>
   </g>
   <g id="patch_148">
    <path clip-path="url(#p3edb24f116)" d="M 171.966942 307.584 
L 172.704793 307.584 
L 172.704793 293.23834 
L 171.966942 293.23834 
z
" style="fill:#1f77b4;"/>
   </g>
   <g id="patch_149">
    <path clip-path="url(#p3edb24f116)" d="M 172.704793 307.584 
L 173.442645 307.584 
L 173.442645 301.208151 
L 172.704793 301.208151 
z
" style="fill:#1f77b4;"/>
   </g>
   <g id="patch_150">
    <path clip-path="url(#p3edb24f116)" d="M 173.442645 307.584 
L 174.180496 307.584 
L 174.180496 291.644377 
L 173.442645 291.644377 
z
" style="fill:#1f77b4;"/>
   </g>
   <g id="patch_151">
    <path clip-path="url(#p3edb24f116)" d="M 174.180496 307.584 
L 174.918347 307.584 
L 174.918347 305.990038 
L 174.180496 305.990038 
z
" style="fill:#1f77b4;"/>
   </g>
   <g id="patch_152">
    <path clip-path="url(#p3edb24f116)" d="M 174.918347 307.584 
L 175.656198 307.584 
L 175.656198 298.020226 
L 174.918347 298.020226 
z
" style="fill:#1f77b4;"/>
   </g>
   <g id="patch_153">
    <path clip-path="url(#p3edb24f116)" d="M 175.656198 307.584 
L 176.39405 307.584 
L 176.39405 293.23834 
L 175.656198 293.23834 
z
" style="fill:#1f77b4;"/>
   </g>
   <g id="patch_154">
    <path clip-path="url(#p3edb24f116)" d="M 176.39405 307.584 
L 177.131901 307.584 
L 177.131901 301.208151 
L 176.39405 301.208151 
z
" style="fill:#1f77b4;"/>
   </g>
   <g id="patch_155">
    <path clip-path="url(#p3edb24f116)" d="M 177.131901 307.584 
L 177.869752 307.584 
L 177.869752 298.020226 
L 177.131901 298.020226 
z
" style="fill:#1f77b4;"/>
   </g>
   <g id="patch_156">
    <path clip-path="url(#p3edb24f116)" d="M 177.869752 307.584 
L 178.607603 307.584 
L 178.607603 298.020226 
L 177.869752 298.020226 
z
" style="fill:#1f77b4;"/>
   </g>
   <g id="patch_157">
    <path clip-path="url(#p3edb24f116)" d="M 178.607603 307.584 
L 179.345455 307.584 
L 179.345455 298.020226 
L 178.607603 298.020226 
z
" style="fill:#1f77b4;"/>
   </g>
   <g id="patch_158">
    <path clip-path="url(#p3edb24f116)" d="M 179.345455 307.584 
L 180.083306 307.584 
L 180.083306 293.23834 
L 179.345455 293.23834 
z
" style="fill:#1f77b4;"/>
   </g>
   <g id="patch_159">
    <path clip-path="url(#p3edb24f116)" d="M 180.083306 307.584 
L 180.821157 307.584 
L 180.821157 305.990038 
L 180.083306 305.990038 
z
" style="fill:#1f77b4;"/>
   </g>
   <g id="patch_160">
    <path clip-path="url(#p3edb24f116)" d="M 180.821157 307.584 
L 181.559008 307.584 
L 181.559008 302.802113 
L 180.821157 302.802113 
z
" style="fill:#1f77b4;"/>
   </g>
   <g id="patch_161">
    <path clip-path="url(#p3edb24f116)" d="M 181.559008 307.584 
L 182.29686 307.584 
L 182.29686 305.990038 
L 181.559008 305.990038 
z
" style="fill:#1f77b4;"/>
   </g>
   <g id="patch_162">
    <path clip-path="url(#p3edb24f116)" d="M 182.29686 307.584 
L 183.034711 307.584 
L 183.034711 301.208151 
L 182.29686 301.208151 
z
" style="fill:#1f77b4;"/>
   </g>
   <g id="patch_163">
    <path clip-path="url(#p3edb24f116)" d="M 183.034711 307.584 
L 183.772562 307.584 
L 183.772562 301.208151 
L 183.034711 301.208151 
z
" style="fill:#1f77b4;"/>
   </g>
   <g id="patch_164">
    <path clip-path="url(#p3edb24f116)" d="M 183.772562 307.584 
L 184.510413 307.584 
L 184.510413 301.208151 
L 183.772562 301.208151 
z
" style="fill:#1f77b4;"/>
   </g>
   <g id="patch_165">
    <path clip-path="url(#p3edb24f116)" d="M 184.510413 307.584 
L 185.248264 307.584 
L 185.248264 293.23834 
L 184.510413 293.23834 
z
" style="fill:#1f77b4;"/>
   </g>
   <g id="patch_166">
    <path clip-path="url(#p3edb24f116)" d="M 185.248264 307.584 
L 185.986116 307.584 
L 185.986116 298.020226 
L 185.248264 298.020226 
z
" style="fill:#1f77b4;"/>
   </g>
   <g id="patch_167">
    <path clip-path="url(#p3edb24f116)" d="M 185.986116 307.584 
L 186.723967 307.584 
L 186.723967 301.208151 
L 185.986116 301.208151 
z
" style="fill:#1f77b4;"/>
   </g>
   <g id="patch_168">
    <path clip-path="url(#p3edb24f116)" d="M 186.723967 307.584 
L 187.461818 307.584 
L 187.461818 299.614189 
L 186.723967 299.614189 
z
" style="fill:#1f77b4;"/>
   </g>
   <g id="patch_169">
    <path clip-path="url(#p3edb24f116)" d="M 187.461818 307.584 
L 188.199669 307.584 
L 188.199669 304.396075 
L 187.461818 304.396075 
z
" style="fill:#1f77b4;"/>
   </g>
   <g id="patch_170">
    <path clip-path="url(#p3edb24f116)" d="M 188.199669 307.584 
L 188.937521 307.584 
L 188.937521 302.802113 
L 188.199669 302.802113 
z
" style="fill:#1f77b4;"/>
   </g>
   <g id="patch_171">
    <path clip-path="url(#p3edb24f116)" d="M 188.937521 307.584 
L 189.675372 307.584 
L 189.675372 305.990038 
L 188.937521 305.990038 
z
" style="fill:#1f77b4;"/>
   </g>
   <g id="patch_172">
    <path clip-path="url(#p3edb24f116)" d="M 189.675372 307.584 
L 190.413223 307.584 
L 190.413223 301.208151 
L 189.675372 301.208151 
z
" style="fill:#1f77b4;"/>
   </g>
   <g id="patch_173">
    <path clip-path="url(#p3edb24f116)" d="M 190.413223 307.584 
L 191.151074 307.584 
L 191.151074 304.396075 
L 190.413223 304.396075 
z
" style="fill:#1f77b4;"/>
   </g>
   <g id="patch_174">
    <path clip-path="url(#p3edb24f116)" d="M 191.151074 307.584 
L 191.888926 307.584 
L 191.888926 304.396075 
L 191.151074 304.396075 
z
" style="fill:#1f77b4;"/>
   </g>
   <g id="patch_175">
    <path clip-path="url(#p3edb24f116)" d="M 191.888926 307.584 
L 192.626777 307.584 
L 192.626777 302.802113 
L 191.888926 302.802113 
z
" style="fill:#1f77b4;"/>
   </g>
   <g id="patch_176">
    <path clip-path="url(#p3edb24f116)" d="M 192.626777 307.584 
L 193.364628 307.584 
L 193.364628 298.020226 
L 192.626777 298.020226 
z
" style="fill:#1f77b4;"/>
   </g>
   <g id="patch_177">
    <path clip-path="url(#p3edb24f116)" d="M 193.364628 307.584 
L 194.102479 307.584 
L 194.102479 302.802113 
L 193.364628 302.802113 
z
" style="fill:#1f77b4;"/>
   </g>
   <g id="patch_178">
    <path clip-path="url(#p3edb24f116)" d="M 194.102479 307.584 
L 194.840331 307.584 
L 194.840331 305.990038 
L 194.102479 305.990038 
z
" style="fill:#1f77b4;"/>
   </g>
   <g id="patch_179">
    <path clip-path="url(#p3edb24f116)" d="M 194.840331 307.584 
L 195.578182 307.584 
L 195.578182 307.584 
L 194.840331 307.584 
z
" style="fill:#1f77b4;"/>
   </g>
   <g id="patch_180">
    <path clip-path="url(#p3edb24f116)" d="M 195.578182 307.584 
L 196.316033 307.584 
L 196.316033 302.802113 
L 195.578182 302.802113 
z
" style="fill:#1f77b4;"/>
   </g>
   <g id="patch_181">
    <path clip-path="url(#p3edb24f116)" d="M 196.316033 307.584 
L 197.053884 307.584 
L 197.053884 301.208151 
L 196.316033 301.208151 
z
" style="fill:#1f77b4;"/>
   </g>
   <g id="patch_182">
    <path clip-path="url(#p3edb24f116)" d="M 197.053884 307.584 
L 197.791736 307.584 
L 197.791736 307.584 
L 197.053884 307.584 
z
" style="fill:#1f77b4;"/>
   </g>
   <g id="patch_183">
    <path clip-path="url(#p3edb24f116)" d="M 197.791736 307.584 
L 198.529587 307.584 
L 198.529587 307.584 
L 197.791736 307.584 
z
" style="fill:#1f77b4;"/>
   </g>
   <g id="patch_184">
    <path clip-path="url(#p3edb24f116)" d="M 198.529587 307.584 
L 199.267438 307.584 
L 199.267438 304.396075 
L 198.529587 304.396075 
z
" style="fill:#1f77b4;"/>
   </g>
   <g id="patch_185">
    <path clip-path="url(#p3edb24f116)" d="M 199.267438 307.584 
L 200.005289 307.584 
L 200.005289 304.396075 
L 199.267438 304.396075 
z
" style="fill:#1f77b4;"/>
   </g>
   <g id="patch_186">
    <path clip-path="url(#p3edb24f116)" d="M 200.005289 307.584 
L 200.74314 307.584 
L 200.74314 304.396075 
L 200.005289 304.396075 
z
" style="fill:#1f77b4;"/>
   </g>
   <g id="patch_187">
    <path clip-path="url(#p3edb24f116)" d="M 200.74314 307.584 
L 201.480992 307.584 
L 201.480992 305.990038 
L 200.74314 305.990038 
z
" style="fill:#1f77b4;"/>
   </g>
   <g id="patch_188">
    <path clip-path="url(#p3edb24f116)" d="M 201.480992 307.584 
L 202.218843 307.584 
L 202.218843 307.584 
L 201.480992 307.584 
z
" style="fill:#1f77b4;"/>
   </g>
   <g id="patch_189">
    <path clip-path="url(#p3edb24f116)" d="M 202.218843 307.584 
L 202.956694 307.584 
L 202.956694 304.396075 
L 202.218843 304.396075 
z
" style="fill:#1f77b4;"/>
   </g>
   <g id="patch_190">
    <path clip-path="url(#p3edb24f116)" d="M 202.956694 307.584 
L 203.694545 307.584 
L 203.694545 305.990038 
L 202.956694 305.990038 
z
" style="fill:#1f77b4;"/>
   </g>
   <g id="patch_191">
    <path clip-path="url(#p3edb24f116)" d="M 203.694545 307.584 
L 204.432397 307.584 
L 204.432397 305.990038 
L 203.694545 305.990038 
z
" style="fill:#1f77b4;"/>
   </g>
   <g id="patch_192">
    <path clip-path="url(#p3edb24f116)" d="M 204.432397 307.584 
L 205.170248 307.584 
L 205.170248 304.396075 
L 204.432397 304.396075 
z
" style="fill:#1f77b4;"/>
   </g>
   <g id="patch_193">
    <path clip-path="url(#p3edb24f116)" d="M 205.170248 307.584 
L 205.908099 307.584 
L 205.908099 305.990038 
L 205.170248 305.990038 
z
" style="fill:#1f77b4;"/>
   </g>
   <g id="patch_194">
    <path clip-path="url(#p3edb24f116)" d="M 205.908099 307.584 
L 206.64595 307.584 
L 206.64595 304.396075 
L 205.908099 304.396075 
z
" style="fill:#1f77b4;"/>
   </g>
   <g id="patch_195">
    <path clip-path="url(#p3edb24f116)" d="M 206.64595 307.584 
L 207.383802 307.584 
L 207.383802 302.802113 
L 206.64595 302.802113 
z
" style="fill:#1f77b4;"/>
   </g>
   <g id="patch_196">
    <path clip-path="url(#p3edb24f116)" d="M 207.383802 307.584 
L 208.121653 307.584 
L 208.121653 305.990038 
L 207.383802 305.990038 
z
" style="fill:#1f77b4;"/>
   </g>
   <g id="patch_197">
    <path clip-path="url(#p3edb24f116)" d="M 208.121653 307.584 
L 208.859504 307.584 
L 208.859504 304.396075 
L 208.121653 304.396075 
z
" style="fill:#1f77b4;"/>
   </g>
   <g id="patch_198">
    <path clip-path="url(#p3edb24f116)" d="M 208.859504 307.584 
L 209.597355 307.584 
L 209.597355 301.208151 
L 208.859504 301.208151 
z
" style="fill:#1f77b4;"/>
   </g>
   <g id="patch_199">
    <path clip-path="url(#p3edb24f116)" d="M 209.597355 307.584 
L 210.335207 307.584 
L 210.335207 307.584 
L 209.597355 307.584 
z
" style="fill:#1f77b4;"/>
   </g>
   <g id="patch_200">
    <path clip-path="url(#p3edb24f116)" d="M 210.335207 307.584 
L 211.073058 307.584 
L 211.073058 307.584 
L 210.335207 307.584 
z
" style="fill:#1f77b4;"/>
   </g>
   <g id="patch_201">
    <path clip-path="url(#p3edb24f116)" d="M 211.073058 307.584 
L 211.810909 307.584 
L 211.810909 307.584 
L 211.073058 307.584 
z
" style="fill:#1f77b4;"/>
   </g>
   <g id="patch_202">
    <path clip-path="url(#p3edb24f116)" d="M 211.810909 307.584 
L 212.54876 307.584 
L 212.54876 305.990038 
L 211.810909 305.990038 
z
" style="fill:#1f77b4;"/>
   </g>
   <g id="matplotlib.axis_1">
    <g id="xtick_1">
     <g id="line2d_1">
      <defs>
       <path d="M 0 0 
L 0 3.5 
" id="me50ff74b01" style="stroke:#000000;stroke-width:0.8;"/>
      </defs>
      <g>
       <use style="stroke:#000000;stroke-width:0.8;" x="63.487895" xlink:href="#me50ff74b01" y="307.584"/>
      </g>
     </g>
     <g id="text_1">
      <!-- −40 -->
      <g transform="translate(52.935551 322.182437)scale(0.1 -0.1)">
       <defs>
        <path d="M 678 2272 
L 4684 2272 
L 4684 1741 
L 678 1741 
L 678 2272 
z
" id="DejaVuSans-2212" transform="scale(0.015625)"/>
        <path d="M 2419 4116 
L 825 1625 
L 2419 1625 
L 2419 4116 
z
M 2253 4666 
L 3047 4666 
L 3047 1625 
L 3713 1625 
L 3713 1100 
L 3047 1100 
L 3047 0 
L 2419 0 
L 2419 1100 
L 313 1100 
L 313 1709 
L 2253 4666 
z
" id="DejaVuSans-34" transform="scale(0.015625)"/>
        <path d="M 2034 4250 
Q 1547 4250 1301 3770 
Q 1056 3291 1056 2328 
Q 1056 1369 1301 889 
Q 1547 409 2034 409 
Q 2525 409 2770 889 
Q 3016 1369 3016 2328 
Q 3016 3291 2770 3770 
Q 2525 4250 2034 4250 
z
M 2034 4750 
Q 2819 4750 3233 4129 
Q 3647 3509 3647 2328 
Q 3647 1150 3233 529 
Q 2819 -91 2034 -91 
Q 1250 -91 836 529 
Q 422 1150 422 2328 
Q 422 3509 836 4129 
Q 1250 4750 2034 4750 
z
" id="DejaVuSans-30" transform="scale(0.015625)"/>
       </defs>
       <use xlink:href="#DejaVuSans-2212"/>
       <use x="83.789062" xlink:href="#DejaVuSans-34"/>
       <use x="147.412109" xlink:href="#DejaVuSans-30"/>
      </g>
     </g>
    </g>
    <g id="xtick_2">
     <g id="line2d_2">
      <g>
       <use style="stroke:#000000;stroke-width:0.8;" x="100.23047" xlink:href="#me50ff74b01" y="307.584"/>
      </g>
     </g>
     <g id="text_2">
      <!-- −20 -->
      <g transform="translate(89.678126 322.182437)scale(0.1 -0.1)">
       <defs>
        <path d="M 1228 531 
L 3431 531 
L 3431 0 
L 469 0 
L 469 531 
Q 828 903 1448 1529 
Q 2069 2156 2228 2338 
Q 2531 2678 2651 2914 
Q 2772 3150 2772 3378 
Q 2772 3750 2511 3984 
Q 2250 4219 1831 4219 
Q 1534 4219 1204 4116 
Q 875 4013 500 3803 
L 500 4441 
Q 881 4594 1212 4672 
Q 1544 4750 1819 4750 
Q 2544 4750 2975 4387 
Q 3406 4025 3406 3419 
Q 3406 3131 3298 2873 
Q 3191 2616 2906 2266 
Q 2828 2175 2409 1742 
Q 1991 1309 1228 531 
z
" id="DejaVuSans-32" transform="scale(0.015625)"/>
       </defs>
       <use xlink:href="#DejaVuSans-2212"/>
       <use x="83.789062" xlink:href="#DejaVuSans-32"/>
       <use x="147.412109" xlink:href="#DejaVuSans-30"/>
      </g>
     </g>
    </g>
    <g id="xtick_3">
     <g id="line2d_3">
      <g>
       <use style="stroke:#000000;stroke-width:0.8;" x="136.973044" xlink:href="#me50ff74b01" y="307.584"/>
      </g>
     </g>
     <g id="text_3">
      <!-- 0 -->
      <g transform="translate(133.791794 322.182437)scale(0.1 -0.1)">
       <use xlink:href="#DejaVuSans-30"/>
      </g>
     </g>
    </g>
    <g id="xtick_4">
     <g id="line2d_4">
      <g>
       <use style="stroke:#000000;stroke-width:0.8;" x="173.715619" xlink:href="#me50ff74b01" y="307.584"/>
      </g>
     </g>
     <g id="text_4">
      <!-- 20 -->
      <g transform="translate(167.353119 322.182437)scale(0.1 -0.1)">
       <use xlink:href="#DejaVuSans-32"/>
       <use x="63.623047" xlink:href="#DejaVuSans-30"/>
      </g>
     </g>
    </g>
    <g id="xtick_5">
     <g id="line2d_5">
      <g>
       <use style="stroke:#000000;stroke-width:0.8;" x="210.458193" xlink:href="#me50ff74b01" y="307.584"/>
      </g>
     </g>
     <g id="text_5">
      <!-- 40 -->
      <g transform="translate(204.095693 322.182437)scale(0.1 -0.1)">
       <use xlink:href="#DejaVuSans-34"/>
       <use x="63.623047" xlink:href="#DejaVuSans-30"/>
      </g>
     </g>
    </g>
    <g id="text_6">
     <!-- $x_{GCA}$ [kpc] -->
     <g transform="translate(113.763636 335.862125)scale(0.1 -0.1)">
      <defs>
       <path d="M 3841 3500 
L 2234 1784 
L 3219 0 
L 2559 0 
L 1819 1388 
L 531 0 
L -166 0 
L 1556 1844 
L 641 3500 
L 1300 3500 
L 1972 2234 
L 3144 3500 
L 3841 3500 
z
" id="DejaVuSans-Oblique-78" transform="scale(0.015625)"/>
       <path d="M 3494 697 
L 3738 1919 
L 2700 1919 
L 2797 2438 
L 4453 2438 
L 4050 384 
Q 3634 156 3143 32 
Q 2653 -91 2156 -91 
Q 1278 -91 783 396 
Q 288 884 288 1753 
Q 288 2475 589 3126 
Q 891 3778 1422 4213 
Q 1756 4484 2153 4617 
Q 2550 4750 3034 4750 
Q 3472 4750 3873 4639 
Q 4275 4528 4641 4306 
L 4513 3634 
Q 4231 3928 3853 4083 
Q 3475 4238 3047 4238 
Q 2550 4238 2172 4048 
Q 1794 3859 1497 3463 
Q 1244 3125 1098 2667 
Q 953 2209 953 1734 
Q 953 1081 1287 751 
Q 1622 422 2284 422 
Q 2616 422 2925 492 
Q 3234 563 3494 697 
z
" id="DejaVuSans-Oblique-47" transform="scale(0.015625)"/>
       <path d="M 4447 4306 
L 4319 3641 
Q 4019 3944 3683 4091 
Q 3347 4238 2956 4238 
Q 2422 4238 2017 3981 
Q 1613 3725 1319 3200 
Q 1131 2863 1032 2486 
Q 934 2109 934 1728 
Q 934 1091 1264 756 
Q 1594 422 2222 422 
Q 2656 422 3056 561 
Q 3456 700 3834 978 
L 3688 231 
Q 3316 72 2936 -9 
Q 2556 -91 2175 -91 
Q 1278 -91 773 396 
Q 269 884 269 1753 
Q 269 2309 461 2846 
Q 653 3384 1013 3828 
Q 1394 4300 1883 4525 
Q 2372 4750 3022 4750 
Q 3422 4750 3780 4639 
Q 4138 4528 4447 4306 
z
" id="DejaVuSans-Oblique-43" transform="scale(0.015625)"/>
       <path d="M 2356 4666 
L 3072 4666 
L 3938 0 
L 3278 0 
L 3084 1197 
L 984 1197 
L 325 0 
L -341 0 
L 2356 4666 
z
M 2584 4044 
L 1275 1722 
L 2988 1722 
L 2584 4044 
z
" id="DejaVuSans-Oblique-41" transform="scale(0.015625)"/>
       <path id="DejaVuSans-20" transform="scale(0.015625)"/>
       <path d="M 550 4863 
L 1875 4863 
L 1875 4416 
L 1125 4416 
L 1125 -397 
L 1875 -397 
L 1875 -844 
L 550 -844 
L 550 4863 
z
" id="DejaVuSans-5b" transform="scale(0.015625)"/>
       <path d="M 581 4863 
L 1159 4863 
L 1159 1991 
L 2875 3500 
L 3609 3500 
L 1753 1863 
L 3688 0 
L 2938 0 
L 1159 1709 
L 1159 0 
L 581 0 
L 581 4863 
z
" id="DejaVuSans-6b" transform="scale(0.015625)"/>
       <path d="M 1159 525 
L 1159 -1331 
L 581 -1331 
L 581 3500 
L 1159 3500 
L 1159 2969 
Q 1341 3281 1617 3432 
Q 1894 3584 2278 3584 
Q 2916 3584 3314 3078 
Q 3713 2572 3713 1747 
Q 3713 922 3314 415 
Q 2916 -91 2278 -91 
Q 1894 -91 1617 61 
Q 1341 213 1159 525 
z
M 3116 1747 
Q 3116 2381 2855 2742 
Q 2594 3103 2138 3103 
Q 1681 3103 1420 2742 
Q 1159 2381 1159 1747 
Q 1159 1113 1420 752 
Q 1681 391 2138 391 
Q 2594 391 2855 752 
Q 3116 1113 3116 1747 
z
" id="DejaVuSans-70" transform="scale(0.015625)"/>
       <path d="M 3122 3366 
L 3122 2828 
Q 2878 2963 2633 3030 
Q 2388 3097 2138 3097 
Q 1578 3097 1268 2742 
Q 959 2388 959 1747 
Q 959 1106 1268 751 
Q 1578 397 2138 397 
Q 2388 397 2633 464 
Q 2878 531 3122 666 
L 3122 134 
Q 2881 22 2623 -34 
Q 2366 -91 2075 -91 
Q 1284 -91 818 406 
Q 353 903 353 1747 
Q 353 2603 823 3093 
Q 1294 3584 2113 3584 
Q 2378 3584 2631 3529 
Q 2884 3475 3122 3366 
z
" id="DejaVuSans-63" transform="scale(0.015625)"/>
       <path d="M 1947 4863 
L 1947 -844 
L 622 -844 
L 622 -397 
L 1369 -397 
L 1369 4416 
L 622 4416 
L 622 4863 
L 1947 4863 
z
" id="DejaVuSans-5d" transform="scale(0.015625)"/>
      </defs>
      <use transform="translate(0 0.015625)" xlink:href="#DejaVuSans-Oblique-78"/>
      <use transform="translate(59.179688 -16.390625)scale(0.7)" xlink:href="#DejaVuSans-Oblique-47"/>
      <use transform="translate(113.422852 -16.390625)scale(0.7)" xlink:href="#DejaVuSans-Oblique-43"/>
      <use transform="translate(162.299805 -16.390625)scale(0.7)" xlink:href="#DejaVuSans-Oblique-41"/>
      <use transform="translate(212.919922 0.015625)" xlink:href="#DejaVuSans-20"/>
      <use transform="translate(244.707031 0.015625)" xlink:href="#DejaVuSans-5b"/>
      <use transform="translate(283.720703 0.015625)" xlink:href="#DejaVuSans-6b"/>
      <use transform="translate(341.630859 0.015625)" xlink:href="#DejaVuSans-70"/>
      <use transform="translate(405.107422 0.015625)" xlink:href="#DejaVuSans-63"/>
      <use transform="translate(460.087891 0.015625)" xlink:href="#DejaVuSans-5d"/>
     </g>
    </g>
   </g>
   <g id="matplotlib.axis_2">
    <g id="ytick_1">
     <g id="line2d_6">
      <defs>
       <path d="M 0 0 
L -3.5 0 
" id="m31bd411cef" style="stroke:#000000;stroke-width:0.8;"/>
      </defs>
      <g>
       <use style="stroke:#000000;stroke-width:0.8;" x="57.6" xlink:href="#m31bd411cef" y="307.584"/>
      </g>
     </g>
     <g id="text_7">
      <!-- 0 -->
      <g transform="translate(44.2375 311.383219)scale(0.1 -0.1)">
       <use xlink:href="#DejaVuSans-30"/>
      </g>
     </g>
    </g>
    <g id="ytick_2">
     <g id="line2d_7">
      <g>
       <use style="stroke:#000000;stroke-width:0.8;" x="57.6" xlink:href="#m31bd411cef" y="275.704755"/>
      </g>
     </g>
     <g id="text_8">
      <!-- 20 -->
      <g transform="translate(37.875 279.503973)scale(0.1 -0.1)">
       <use xlink:href="#DejaVuSans-32"/>
       <use x="63.623047" xlink:href="#DejaVuSans-30"/>
      </g>
     </g>
    </g>
    <g id="ytick_3">
     <g id="line2d_8">
      <g>
       <use style="stroke:#000000;stroke-width:0.8;" x="57.6" xlink:href="#m31bd411cef" y="243.825509"/>
      </g>
     </g>
     <g id="text_9">
      <!-- 40 -->
      <g transform="translate(37.875 247.624728)scale(0.1 -0.1)">
       <use xlink:href="#DejaVuSans-34"/>
       <use x="63.623047" xlink:href="#DejaVuSans-30"/>
      </g>
     </g>
    </g>
    <g id="ytick_4">
     <g id="line2d_9">
      <g>
       <use style="stroke:#000000;stroke-width:0.8;" x="57.6" xlink:href="#m31bd411cef" y="211.946264"/>
      </g>
     </g>
     <g id="text_10">
      <!-- 60 -->
      <g transform="translate(37.875 215.745483)scale(0.1 -0.1)">
       <defs>
        <path d="M 2113 2584 
Q 1688 2584 1439 2293 
Q 1191 2003 1191 1497 
Q 1191 994 1439 701 
Q 1688 409 2113 409 
Q 2538 409 2786 701 
Q 3034 994 3034 1497 
Q 3034 2003 2786 2293 
Q 2538 2584 2113 2584 
z
M 3366 4563 
L 3366 3988 
Q 3128 4100 2886 4159 
Q 2644 4219 2406 4219 
Q 1781 4219 1451 3797 
Q 1122 3375 1075 2522 
Q 1259 2794 1537 2939 
Q 1816 3084 2150 3084 
Q 2853 3084 3261 2657 
Q 3669 2231 3669 1497 
Q 3669 778 3244 343 
Q 2819 -91 2113 -91 
Q 1303 -91 875 529 
Q 447 1150 447 2328 
Q 447 3434 972 4092 
Q 1497 4750 2381 4750 
Q 2619 4750 2861 4703 
Q 3103 4656 3366 4563 
z
" id="DejaVuSans-36" transform="scale(0.015625)"/>
       </defs>
       <use xlink:href="#DejaVuSans-36"/>
       <use x="63.623047" xlink:href="#DejaVuSans-30"/>
      </g>
     </g>
    </g>
    <g id="ytick_5">
     <g id="line2d_10">
      <g>
       <use style="stroke:#000000;stroke-width:0.8;" x="57.6" xlink:href="#m31bd411cef" y="180.067019"/>
      </g>
     </g>
     <g id="text_11">
      <!-- 80 -->
      <g transform="translate(37.875 183.866238)scale(0.1 -0.1)">
       <defs>
        <path d="M 2034 2216 
Q 1584 2216 1326 1975 
Q 1069 1734 1069 1313 
Q 1069 891 1326 650 
Q 1584 409 2034 409 
Q 2484 409 2743 651 
Q 3003 894 3003 1313 
Q 3003 1734 2745 1975 
Q 2488 2216 2034 2216 
z
M 1403 2484 
Q 997 2584 770 2862 
Q 544 3141 544 3541 
Q 544 4100 942 4425 
Q 1341 4750 2034 4750 
Q 2731 4750 3128 4425 
Q 3525 4100 3525 3541 
Q 3525 3141 3298 2862 
Q 3072 2584 2669 2484 
Q 3125 2378 3379 2068 
Q 3634 1759 3634 1313 
Q 3634 634 3220 271 
Q 2806 -91 2034 -91 
Q 1263 -91 848 271 
Q 434 634 434 1313 
Q 434 1759 690 2068 
Q 947 2378 1403 2484 
z
M 1172 3481 
Q 1172 3119 1398 2916 
Q 1625 2713 2034 2713 
Q 2441 2713 2670 2916 
Q 2900 3119 2900 3481 
Q 2900 3844 2670 4047 
Q 2441 4250 2034 4250 
Q 1625 4250 1398 4047 
Q 1172 3844 1172 3481 
z
" id="DejaVuSans-38" transform="scale(0.015625)"/>
       </defs>
       <use xlink:href="#DejaVuSans-38"/>
       <use x="63.623047" xlink:href="#DejaVuSans-30"/>
      </g>
     </g>
    </g>
    <g id="ytick_6">
     <g id="line2d_11">
      <g>
       <use style="stroke:#000000;stroke-width:0.8;" x="57.6" xlink:href="#m31bd411cef" y="148.187774"/>
      </g>
     </g>
     <g id="text_12">
      <!-- 100 -->
      <g transform="translate(31.5125 151.986992)scale(0.1 -0.1)">
       <defs>
        <path d="M 794 531 
L 1825 531 
L 1825 4091 
L 703 3866 
L 703 4441 
L 1819 4666 
L 2450 4666 
L 2450 531 
L 3481 531 
L 3481 0 
L 794 0 
L 794 531 
z
" id="DejaVuSans-31" transform="scale(0.015625)"/>
       </defs>
       <use xlink:href="#DejaVuSans-31"/>
       <use x="63.623047" xlink:href="#DejaVuSans-30"/>
       <use x="127.246094" xlink:href="#DejaVuSans-30"/>
      </g>
     </g>
    </g>
    <g id="ytick_7">
     <g id="line2d_12">
      <g>
       <use style="stroke:#000000;stroke-width:0.8;" x="57.6" xlink:href="#m31bd411cef" y="116.308528"/>
      </g>
     </g>
     <g id="text_13">
      <!-- 120 -->
      <g transform="translate(31.5125 120.107747)scale(0.1 -0.1)">
       <use xlink:href="#DejaVuSans-31"/>
       <use x="63.623047" xlink:href="#DejaVuSans-32"/>
       <use x="127.246094" xlink:href="#DejaVuSans-30"/>
      </g>
     </g>
    </g>
    <g id="ytick_8">
     <g id="line2d_13">
      <g>
       <use style="stroke:#000000;stroke-width:0.8;" x="57.6" xlink:href="#m31bd411cef" y="84.429283"/>
      </g>
     </g>
     <g id="text_14">
      <!-- 140 -->
      <g transform="translate(31.5125 88.228502)scale(0.1 -0.1)">
       <use xlink:href="#DejaVuSans-31"/>
       <use x="63.623047" xlink:href="#DejaVuSans-34"/>
       <use x="127.246094" xlink:href="#DejaVuSans-30"/>
      </g>
     </g>
    </g>
    <g id="ytick_9">
     <g id="line2d_14">
      <g>
       <use style="stroke:#000000;stroke-width:0.8;" x="57.6" xlink:href="#m31bd411cef" y="52.550038"/>
      </g>
     </g>
     <g id="text_15">
      <!-- 160 -->
      <g transform="translate(31.5125 56.349256)scale(0.1 -0.1)">
       <use xlink:href="#DejaVuSans-31"/>
       <use x="63.623047" xlink:href="#DejaVuSans-36"/>
       <use x="127.246094" xlink:href="#DejaVuSans-30"/>
      </g>
     </g>
    </g>
   </g>
   <g id="patch_203">
    <path d="M 57.6 307.584 
L 57.6 41.472 
" style="fill:none;stroke:#000000;stroke-linecap:square;stroke-linejoin:miter;stroke-width:0.8;"/>
   </g>
   <g id="patch_204">
    <path d="M 219.927273 307.584 
L 219.927273 41.472 
" style="fill:none;stroke:#000000;stroke-linecap:square;stroke-linejoin:miter;stroke-width:0.8;"/>
   </g>
   <g id="patch_205">
    <path d="M 57.6 307.584 
L 219.927273 307.584 
" style="fill:none;stroke:#000000;stroke-linecap:square;stroke-linejoin:miter;stroke-width:0.8;"/>
   </g>
   <g id="patch_206">
    <path d="M 57.6 41.472 
L 219.927273 41.472 
" style="fill:none;stroke:#000000;stroke-linecap:square;stroke-linejoin:miter;stroke-width:0.8;"/>
   </g>
  </g>
  <g id="axes_2">
   <g id="patch_207">
    <path d="M 252.392727 307.584 
L 414.72 307.584 
L 414.72 41.472 
L 252.392727 41.472 
z
" style="fill:#ffffff;"/>
   </g>
   <g id="patch_208">
    <path clip-path="url(#p1ebace0b3e)" d="M 129.919006 307.584 
L 132.437434 307.584 
L 132.437434 307.035429 
L 129.919006 307.035429 
z
" style="fill:#1f77b4;"/>
   </g>
   <g id="patch_209">
    <path clip-path="url(#p1ebace0b3e)" d="M 132.437434 307.584 
L 134.955862 307.584 
L 134.955862 307.584 
L 132.437434 307.584 
z
" style="fill:#1f77b4;"/>
   </g>
   <g id="patch_210">
    <path clip-path="url(#p1ebace0b3e)" d="M 134.955862 307.584 
L 137.474289 307.584 
L 137.474289 307.584 
L 134.955862 307.584 
z
" style="fill:#1f77b4;"/>
   </g>
   <g id="patch_211">
    <path clip-path="url(#p1ebace0b3e)" d="M 137.474289 307.584 
L 139.992717 307.584 
L 139.992717 307.584 
L 137.474289 307.584 
z
" style="fill:#1f77b4;"/>
   </g>
   <g id="patch_212">
    <path clip-path="url(#p1ebace0b3e)" d="M 139.992717 307.584 
L 142.511144 307.584 
L 142.511144 307.584 
L 139.992717 307.584 
z
" style="fill:#1f77b4;"/>
   </g>
   <g id="patch_213">
    <path clip-path="url(#p1ebace0b3e)" d="M 142.511144 307.584 
L 145.029572 307.584 
L 145.029572 307.584 
L 142.511144 307.584 
z
" style="fill:#1f77b4;"/>
   </g>
   <g id="patch_214">
    <path clip-path="url(#p1ebace0b3e)" d="M 145.029572 307.584 
L 147.547999 307.584 
L 147.547999 307.584 
L 145.029572 307.584 
z
" style="fill:#1f77b4;"/>
   </g>
   <g id="patch_215">
    <path clip-path="url(#p1ebace0b3e)" d="M 147.547999 307.584 
L 150.066427 307.584 
L 150.066427 307.584 
L 147.547999 307.584 
z
" style="fill:#1f77b4;"/>
   </g>
   <g id="patch_216">
    <path clip-path="url(#p1ebace0b3e)" d="M 150.066427 307.584 
L 152.584855 307.584 
L 152.584855 307.584 
L 150.066427 307.584 
z
" style="fill:#1f77b4;"/>
   </g>
   <g id="patch_217">
    <path clip-path="url(#p1ebace0b3e)" d="M 152.584855 307.584 
L 155.103282 307.584 
L 155.103282 307.584 
L 152.584855 307.584 
z
" style="fill:#1f77b4;"/>
   </g>
   <g id="patch_218">
    <path clip-path="url(#p1ebace0b3e)" d="M 155.103282 307.584 
L 157.62171 307.584 
L 157.62171 307.584 
L 155.103282 307.584 
z
" style="fill:#1f77b4;"/>
   </g>
   <g id="patch_219">
    <path clip-path="url(#p1ebace0b3e)" d="M 157.62171 307.584 
L 160.140137 307.584 
L 160.140137 307.584 
L 157.62171 307.584 
z
" style="fill:#1f77b4;"/>
   </g>
   <g id="patch_220">
    <path clip-path="url(#p1ebace0b3e)" d="M 160.140137 307.584 
L 162.658565 307.584 
L 162.658565 307.584 
L 160.140137 307.584 
z
" style="fill:#1f77b4;"/>
   </g>
   <g id="patch_221">
    <path clip-path="url(#p1ebace0b3e)" d="M 162.658565 307.584 
L 165.176992 307.584 
L 165.176992 307.584 
L 162.658565 307.584 
z
" style="fill:#1f77b4;"/>
   </g>
   <g id="patch_222">
    <path clip-path="url(#p1ebace0b3e)" d="M 165.176992 307.584 
L 167.69542 307.584 
L 167.69542 307.584 
L 165.176992 307.584 
z
" style="fill:#1f77b4;"/>
   </g>
   <g id="patch_223">
    <path clip-path="url(#p1ebace0b3e)" d="M 167.69542 307.584 
L 170.213848 307.584 
L 170.213848 307.035429 
L 167.69542 307.035429 
z
" style="fill:#1f77b4;"/>
   </g>
   <g id="patch_224">
    <path clip-path="url(#p1ebace0b3e)" d="M 170.213848 307.584 
L 172.732275 307.584 
L 172.732275 307.584 
L 170.213848 307.584 
z
" style="fill:#1f77b4;"/>
   </g>
   <g id="patch_225">
    <path clip-path="url(#p1ebace0b3e)" d="M 172.732275 307.584 
L 175.250703 307.584 
L 175.250703 307.584 
L 172.732275 307.584 
z
" style="fill:#1f77b4;"/>
   </g>
   <g id="patch_226">
    <path clip-path="url(#p1ebace0b3e)" d="M 175.250703 307.584 
L 177.76913 307.584 
L 177.76913 307.584 
L 175.250703 307.584 
z
" style="fill:#1f77b4;"/>
   </g>
   <g id="patch_227">
    <path clip-path="url(#p1ebace0b3e)" d="M 177.76913 307.584 
L 180.287558 307.584 
L 180.287558 307.584 
L 177.76913 307.584 
z
" style="fill:#1f77b4;"/>
   </g>
   <g id="patch_228">
    <path clip-path="url(#p1ebace0b3e)" d="M 180.287558 307.584 
L 182.805985 307.584 
L 182.805985 307.584 
L 180.287558 307.584 
z
" style="fill:#1f77b4;"/>
   </g>
   <g id="patch_229">
    <path clip-path="url(#p1ebace0b3e)" d="M 182.805985 307.584 
L 185.324413 307.584 
L 185.324413 307.584 
L 182.805985 307.584 
z
" style="fill:#1f77b4;"/>
   </g>
   <g id="patch_230">
    <path clip-path="url(#p1ebace0b3e)" d="M 185.324413 307.584 
L 187.842841 307.584 
L 187.842841 307.584 
L 185.324413 307.584 
z
" style="fill:#1f77b4;"/>
   </g>
   <g id="patch_231">
    <path clip-path="url(#p1ebace0b3e)" d="M 187.842841 307.584 
L 190.361268 307.584 
L 190.361268 307.584 
L 187.842841 307.584 
z
" style="fill:#1f77b4;"/>
   </g>
   <g id="patch_232">
    <path clip-path="url(#p1ebace0b3e)" d="M 190.361268 307.584 
L 192.879696 307.584 
L 192.879696 307.584 
L 190.361268 307.584 
z
" style="fill:#1f77b4;"/>
   </g>
   <g id="patch_233">
    <path clip-path="url(#p1ebace0b3e)" d="M 192.879696 307.584 
L 195.398123 307.584 
L 195.398123 307.584 
L 192.879696 307.584 
z
" style="fill:#1f77b4;"/>
   </g>
   <g id="patch_234">
    <path clip-path="url(#p1ebace0b3e)" d="M 195.398123 307.584 
L 197.916551 307.584 
L 197.916551 307.584 
L 195.398123 307.584 
z
" style="fill:#1f77b4;"/>
   </g>
   <g id="patch_235">
    <path clip-path="url(#p1ebace0b3e)" d="M 197.916551 307.584 
L 200.434978 307.584 
L 200.434978 307.584 
L 197.916551 307.584 
z
" style="fill:#1f77b4;"/>
   </g>
   <g id="patch_236">
    <path clip-path="url(#p1ebace0b3e)" d="M 200.434978 307.584 
L 202.953406 307.584 
L 202.953406 307.584 
L 200.434978 307.584 
z
" style="fill:#1f77b4;"/>
   </g>
   <g id="patch_237">
    <path clip-path="url(#p1ebace0b3e)" d="M 202.953406 307.584 
L 205.471834 307.584 
L 205.471834 307.584 
L 202.953406 307.584 
z
" style="fill:#1f77b4;"/>
   </g>
   <g id="patch_238">
    <path clip-path="url(#p1ebace0b3e)" d="M 205.471834 307.584 
L 207.990261 307.584 
L 207.990261 307.584 
L 205.471834 307.584 
z
" style="fill:#1f77b4;"/>
   </g>
   <g id="patch_239">
    <path clip-path="url(#p1ebace0b3e)" d="M 207.990261 307.584 
L 210.508689 307.584 
L 210.508689 307.584 
L 207.990261 307.584 
z
" style="fill:#1f77b4;"/>
   </g>
   <g id="patch_240">
    <path clip-path="url(#p1ebace0b3e)" d="M 210.508689 307.584 
L 213.027116 307.584 
L 213.027116 307.584 
L 210.508689 307.584 
z
" style="fill:#1f77b4;"/>
   </g>
   <g id="patch_241">
    <path clip-path="url(#p1ebace0b3e)" d="M 213.027116 307.584 
L 215.545544 307.584 
L 215.545544 307.584 
L 213.027116 307.584 
z
" style="fill:#1f77b4;"/>
   </g>
   <g id="patch_242">
    <path clip-path="url(#p1ebace0b3e)" d="M 215.545544 307.584 
L 218.063971 307.584 
L 218.063971 307.584 
L 215.545544 307.584 
z
" style="fill:#1f77b4;"/>
   </g>
   <g id="patch_243">
    <path clip-path="url(#p1ebace0b3e)" d="M 218.063971 307.584 
L 220.582399 307.584 
L 220.582399 307.584 
L 218.063971 307.584 
z
" style="fill:#1f77b4;"/>
   </g>
   <g id="patch_244">
    <path clip-path="url(#p1ebace0b3e)" d="M 220.582399 307.584 
L 223.100827 307.584 
L 223.100827 307.584 
L 220.582399 307.584 
z
" style="fill:#1f77b4;"/>
   </g>
   <g id="patch_245">
    <path clip-path="url(#p1ebace0b3e)" d="M 223.100827 307.584 
L 225.619254 307.584 
L 225.619254 307.584 
L 223.100827 307.584 
z
" style="fill:#1f77b4;"/>
   </g>
   <g id="patch_246">
    <path clip-path="url(#p1ebace0b3e)" d="M 225.619254 307.584 
L 228.137682 307.584 
L 228.137682 307.584 
L 225.619254 307.584 
z
" style="fill:#1f77b4;"/>
   </g>
   <g id="patch_247">
    <path clip-path="url(#p1ebace0b3e)" d="M 228.137682 307.584 
L 230.656109 307.584 
L 230.656109 307.584 
L 228.137682 307.584 
z
" style="fill:#1f77b4;"/>
   </g>
   <g id="patch_248">
    <path clip-path="url(#p1ebace0b3e)" d="M 230.656109 307.584 
L 233.174537 307.584 
L 233.174537 307.584 
L 230.656109 307.584 
z
" style="fill:#1f77b4;"/>
   </g>
   <g id="patch_249">
    <path clip-path="url(#p1ebace0b3e)" d="M 233.174537 307.584 
L 235.692964 307.584 
L 235.692964 307.584 
L 233.174537 307.584 
z
" style="fill:#1f77b4;"/>
   </g>
   <g id="patch_250">
    <path clip-path="url(#p1ebace0b3e)" d="M 235.692964 307.584 
L 238.211392 307.584 
L 238.211392 307.584 
L 235.692964 307.584 
z
" style="fill:#1f77b4;"/>
   </g>
   <g id="patch_251">
    <path clip-path="url(#p1ebace0b3e)" d="M 238.211392 307.584 
L 240.72982 307.584 
L 240.72982 307.584 
L 238.211392 307.584 
z
" style="fill:#1f77b4;"/>
   </g>
   <g id="patch_252">
    <path clip-path="url(#p1ebace0b3e)" d="M 240.72982 307.584 
L 243.248247 307.584 
L 243.248247 307.035429 
L 240.72982 307.035429 
z
" style="fill:#1f77b4;"/>
   </g>
   <g id="patch_253">
    <path clip-path="url(#p1ebace0b3e)" d="M 243.248247 307.584 
L 245.766675 307.584 
L 245.766675 307.035429 
L 243.248247 307.035429 
z
" style="fill:#1f77b4;"/>
   </g>
   <g id="patch_254">
    <path clip-path="url(#p1ebace0b3e)" d="M 245.766675 307.584 
L 248.285102 307.584 
L 248.285102 307.035429 
L 245.766675 307.035429 
z
" style="fill:#1f77b4;"/>
   </g>
   <g id="patch_255">
    <path clip-path="url(#p1ebace0b3e)" d="M 248.285102 307.584 
L 250.80353 307.584 
L 250.80353 307.035429 
L 248.285102 307.035429 
z
" style="fill:#1f77b4;"/>
   </g>
   <g id="patch_256">
    <path clip-path="url(#p1ebace0b3e)" d="M 250.80353 307.584 
L 253.321957 307.584 
L 253.321957 307.035429 
L 250.80353 307.035429 
z
" style="fill:#1f77b4;"/>
   </g>
   <g id="patch_257">
    <path clip-path="url(#p1ebace0b3e)" d="M 253.321957 307.584 
L 255.840385 307.584 
L 255.840385 307.035429 
L 253.321957 307.035429 
z
" style="fill:#1f77b4;"/>
   </g>
   <g id="patch_258">
    <path clip-path="url(#p1ebace0b3e)" d="M 255.840385 307.584 
L 258.358813 307.584 
L 258.358813 307.035429 
L 255.840385 307.035429 
z
" style="fill:#1f77b4;"/>
   </g>
   <g id="patch_259">
    <path clip-path="url(#p1ebace0b3e)" d="M 258.358813 307.584 
L 260.87724 307.584 
L 260.87724 307.584 
L 258.358813 307.584 
z
" style="fill:#1f77b4;"/>
   </g>
   <g id="patch_260">
    <path clip-path="url(#p1ebace0b3e)" d="M 260.87724 307.584 
L 263.395668 307.584 
L 263.395668 307.035429 
L 260.87724 307.035429 
z
" style="fill:#1f77b4;"/>
   </g>
   <g id="patch_261">
    <path clip-path="url(#p1ebace0b3e)" d="M 263.395668 307.584 
L 265.914095 307.584 
L 265.914095 306.486857 
L 263.395668 306.486857 
z
" style="fill:#1f77b4;"/>
   </g>
   <g id="patch_262">
    <path clip-path="url(#p1ebace0b3e)" d="M 265.914095 307.584 
L 268.432523 307.584 
L 268.432523 305.938286 
L 265.914095 305.938286 
z
" style="fill:#1f77b4;"/>
   </g>
   <g id="patch_263">
    <path clip-path="url(#p1ebace0b3e)" d="M 268.432523 307.584 
L 270.95095 307.584 
L 270.95095 307.584 
L 268.432523 307.584 
z
" style="fill:#1f77b4;"/>
   </g>
   <g id="patch_264">
    <path clip-path="url(#p1ebace0b3e)" d="M 270.95095 307.584 
L 273.469378 307.584 
L 273.469378 306.486857 
L 270.95095 306.486857 
z
" style="fill:#1f77b4;"/>
   </g>
   <g id="patch_265">
    <path clip-path="url(#p1ebace0b3e)" d="M 273.469378 307.584 
L 275.987806 307.584 
L 275.987806 304.841143 
L 273.469378 304.841143 
z
" style="fill:#1f77b4;"/>
   </g>
   <g id="patch_266">
    <path clip-path="url(#p1ebace0b3e)" d="M 275.987806 307.584 
L 278.506233 307.584 
L 278.506233 307.035429 
L 275.987806 307.035429 
z
" style="fill:#1f77b4;"/>
   </g>
   <g id="patch_267">
    <path clip-path="url(#p1ebace0b3e)" d="M 278.506233 307.584 
L 281.024661 307.584 
L 281.024661 304.841143 
L 278.506233 304.841143 
z
" style="fill:#1f77b4;"/>
   </g>
   <g id="patch_268">
    <path clip-path="url(#p1ebace0b3e)" d="M 281.024661 307.584 
L 283.543088 307.584 
L 283.543088 305.389714 
L 281.024661 305.389714 
z
" style="fill:#1f77b4;"/>
   </g>
   <g id="patch_269">
    <path clip-path="url(#p1ebace0b3e)" d="M 283.543088 307.584 
L 286.061516 307.584 
L 286.061516 305.389714 
L 283.543088 305.389714 
z
" style="fill:#1f77b4;"/>
   </g>
   <g id="patch_270">
    <path clip-path="url(#p1ebace0b3e)" d="M 286.061516 307.584 
L 288.579943 307.584 
L 288.579943 303.195429 
L 286.061516 303.195429 
z
" style="fill:#1f77b4;"/>
   </g>
   <g id="patch_271">
    <path clip-path="url(#p1ebace0b3e)" d="M 288.579943 307.584 
L 291.098371 307.584 
L 291.098371 303.744 
L 288.579943 303.744 
z
" style="fill:#1f77b4;"/>
   </g>
   <g id="patch_272">
    <path clip-path="url(#p1ebace0b3e)" d="M 291.098371 307.584 
L 293.616799 307.584 
L 293.616799 302.098286 
L 291.098371 302.098286 
z
" style="fill:#1f77b4;"/>
   </g>
   <g id="patch_273">
    <path clip-path="url(#p1ebace0b3e)" d="M 293.616799 307.584 
L 296.135226 307.584 
L 296.135226 302.098286 
L 293.616799 302.098286 
z
" style="fill:#1f77b4;"/>
   </g>
   <g id="patch_274">
    <path clip-path="url(#p1ebace0b3e)" d="M 296.135226 307.584 
L 298.653654 307.584 
L 298.653654 301.549714 
L 296.135226 301.549714 
z
" style="fill:#1f77b4;"/>
   </g>
   <g id="patch_275">
    <path clip-path="url(#p1ebace0b3e)" d="M 298.653654 307.584 
L 301.172081 307.584 
L 301.172081 297.161143 
L 298.653654 297.161143 
z
" style="fill:#1f77b4;"/>
   </g>
   <g id="patch_276">
    <path clip-path="url(#p1ebace0b3e)" d="M 301.172081 307.584 
L 303.690509 307.584 
L 303.690509 296.612571 
L 301.172081 296.612571 
z
" style="fill:#1f77b4;"/>
   </g>
   <g id="patch_277">
    <path clip-path="url(#p1ebace0b3e)" d="M 303.690509 307.584 
L 306.208937 307.584 
L 306.208937 291.675429 
L 303.690509 291.675429 
z
" style="fill:#1f77b4;"/>
   </g>
   <g id="patch_278">
    <path clip-path="url(#p1ebace0b3e)" d="M 306.208937 307.584 
L 308.727364 307.584 
L 308.727364 292.224 
L 306.208937 292.224 
z
" style="fill:#1f77b4;"/>
   </g>
   <g id="patch_279">
    <path clip-path="url(#p1ebace0b3e)" d="M 308.727364 307.584 
L 311.245792 307.584 
L 311.245792 284.544 
L 308.727364 284.544 
z
" style="fill:#1f77b4;"/>
   </g>
   <g id="patch_280">
    <path clip-path="url(#p1ebace0b3e)" d="M 311.245792 307.584 
L 313.764219 307.584 
L 313.764219 274.669714 
L 311.245792 274.669714 
z
" style="fill:#1f77b4;"/>
   </g>
   <g id="patch_281">
    <path clip-path="url(#p1ebace0b3e)" d="M 313.764219 307.584 
L 316.282647 307.584 
L 316.282647 255.469714 
L 313.764219 255.469714 
z
" style="fill:#1f77b4;"/>
   </g>
   <g id="patch_282">
    <path clip-path="url(#p1ebace0b3e)" d="M 316.282647 307.584 
L 318.801074 307.584 
L 318.801074 229.138286 
L 316.282647 229.138286 
z
" style="fill:#1f77b4;"/>
   </g>
   <g id="patch_283">
    <path clip-path="url(#p1ebace0b3e)" d="M 318.801074 307.584 
L 321.319502 307.584 
L 321.319502 207.744 
L 318.801074 207.744 
z
" style="fill:#1f77b4;"/>
   </g>
   <g id="patch_284">
    <path clip-path="url(#p1ebace0b3e)" d="M 321.319502 307.584 
L 323.83793 307.584 
L 323.83793 167.149714 
L 321.319502 167.149714 
z
" style="fill:#1f77b4;"/>
   </g>
   <g id="patch_285">
    <path clip-path="url(#p1ebace0b3e)" d="M 323.83793 307.584 
L 326.356357 307.584 
L 326.356357 127.104 
L 323.83793 127.104 
z
" style="fill:#1f77b4;"/>
   </g>
   <g id="patch_286">
    <path clip-path="url(#p1ebace0b3e)" d="M 326.356357 307.584 
L 328.874785 307.584 
L 328.874785 98.029714 
L 326.356357 98.029714 
z
" style="fill:#1f77b4;"/>
   </g>
   <g id="patch_287">
    <path clip-path="url(#p1ebace0b3e)" d="M 328.874785 307.584 
L 331.393212 307.584 
L 331.393212 70.052571 
L 328.874785 70.052571 
z
" style="fill:#1f77b4;"/>
   </g>
   <g id="patch_288">
    <path clip-path="url(#p1ebace0b3e)" d="M 331.393212 307.584 
L 333.91164 307.584 
L 333.91164 79.378286 
L 331.393212 79.378286 
z
" style="fill:#1f77b4;"/>
   </g>
   <g id="patch_289">
    <path clip-path="url(#p1ebace0b3e)" d="M 333.91164 307.584 
L 336.430067 307.584 
L 336.430067 54.144 
L 333.91164 54.144 
z
" style="fill:#1f77b4;"/>
   </g>
   <g id="patch_290">
    <path clip-path="url(#p1ebace0b3e)" d="M 336.430067 307.584 
L 338.948495 307.584 
L 338.948495 62.921143 
L 336.430067 62.921143 
z
" style="fill:#1f77b4;"/>
   </g>
   <g id="patch_291">
    <path clip-path="url(#p1ebace0b3e)" d="M 338.948495 307.584 
L 341.466923 307.584 
L 341.466923 95.835429 
L 338.948495 95.835429 
z
" style="fill:#1f77b4;"/>
   </g>
   <g id="patch_292">
    <path clip-path="url(#p1ebace0b3e)" d="M 341.466923 307.584 
L 343.98535 307.584 
L 343.98535 141.915429 
L 341.466923 141.915429 
z
" style="fill:#1f77b4;"/>
   </g>
   <g id="patch_293">
    <path clip-path="url(#p1ebace0b3e)" d="M 343.98535 307.584 
L 346.503778 307.584 
L 346.503778 170.989714 
L 343.98535 170.989714 
z
" style="fill:#1f77b4;"/>
   </g>
   <g id="patch_294">
    <path clip-path="url(#p1ebace0b3e)" d="M 346.503778 307.584 
L 349.022205 307.584 
L 349.022205 217.618286 
L 346.503778 217.618286 
z
" style="fill:#1f77b4;"/>
   </g>
   <g id="patch_295">
    <path clip-path="url(#p1ebace0b3e)" d="M 349.022205 307.584 
L 351.540633 307.584 
L 351.540633 239.561143 
L 349.022205 239.561143 
z
" style="fill:#1f77b4;"/>
   </g>
   <g id="patch_296">
    <path clip-path="url(#p1ebace0b3e)" d="M 351.540633 307.584 
L 354.05906 307.584 
L 354.05906 266.989714 
L 351.540633 266.989714 
z
" style="fill:#1f77b4;"/>
   </g>
   <g id="patch_297">
    <path clip-path="url(#p1ebace0b3e)" d="M 354.05906 307.584 
L 356.577488 307.584 
L 356.577488 276.864 
L 354.05906 276.864 
z
" style="fill:#1f77b4;"/>
   </g>
   <g id="patch_298">
    <path clip-path="url(#p1ebace0b3e)" d="M 356.577488 307.584 
L 359.095916 307.584 
L 359.095916 279.058286 
L 356.577488 279.058286 
z
" style="fill:#1f77b4;"/>
   </g>
   <g id="patch_299">
    <path clip-path="url(#p1ebace0b3e)" d="M 359.095916 307.584 
L 361.614343 307.584 
L 361.614343 291.126857 
L 359.095916 291.126857 
z
" style="fill:#1f77b4;"/>
   </g>
   <g id="patch_300">
    <path clip-path="url(#p1ebace0b3e)" d="M 361.614343 307.584 
L 364.132771 307.584 
L 364.132771 294.966857 
L 361.614343 294.966857 
z
" style="fill:#1f77b4;"/>
   </g>
   <g id="patch_301">
    <path clip-path="url(#p1ebace0b3e)" d="M 364.132771 307.584 
L 366.651198 307.584 
L 366.651198 293.869714 
L 364.132771 293.869714 
z
" style="fill:#1f77b4;"/>
   </g>
   <g id="patch_302">
    <path clip-path="url(#p1ebace0b3e)" d="M 366.651198 307.584 
L 369.169626 307.584 
L 369.169626 300.452571 
L 366.651198 300.452571 
z
" style="fill:#1f77b4;"/>
   </g>
   <g id="patch_303">
    <path clip-path="url(#p1ebace0b3e)" d="M 369.169626 307.584 
L 371.688053 307.584 
L 371.688053 301.001143 
L 369.169626 301.001143 
z
" style="fill:#1f77b4;"/>
   </g>
   <g id="patch_304">
    <path clip-path="url(#p1ebace0b3e)" d="M 371.688053 307.584 
L 374.206481 307.584 
L 374.206481 303.195429 
L 371.688053 303.195429 
z
" style="fill:#1f77b4;"/>
   </g>
   <g id="patch_305">
    <path clip-path="url(#p1ebace0b3e)" d="M 374.206481 307.584 
L 376.724909 307.584 
L 376.724909 303.744 
L 374.206481 303.744 
z
" style="fill:#1f77b4;"/>
   </g>
   <g id="patch_306">
    <path clip-path="url(#p1ebace0b3e)" d="M 376.724909 307.584 
L 379.243336 307.584 
L 379.243336 299.904 
L 376.724909 299.904 
z
" style="fill:#1f77b4;"/>
   </g>
   <g id="patch_307">
    <path clip-path="url(#p1ebace0b3e)" d="M 379.243336 307.584 
L 381.761764 307.584 
L 381.761764 304.292571 
L 379.243336 304.292571 
z
" style="fill:#1f77b4;"/>
   </g>
   <g id="patch_308">
    <path clip-path="url(#p1ebace0b3e)" d="M 381.761764 307.584 
L 384.280191 307.584 
L 384.280191 304.841143 
L 381.761764 304.841143 
z
" style="fill:#1f77b4;"/>
   </g>
   <g id="patch_309">
    <path clip-path="url(#p1ebace0b3e)" d="M 384.280191 307.584 
L 386.798619 307.584 
L 386.798619 306.486857 
L 384.280191 306.486857 
z
" style="fill:#1f77b4;"/>
   </g>
   <g id="patch_310">
    <path clip-path="url(#p1ebace0b3e)" d="M 386.798619 307.584 
L 389.317046 307.584 
L 389.317046 307.035429 
L 386.798619 307.035429 
z
" style="fill:#1f77b4;"/>
   </g>
   <g id="patch_311">
    <path clip-path="url(#p1ebace0b3e)" d="M 389.317046 307.584 
L 391.835474 307.584 
L 391.835474 305.389714 
L 389.317046 305.389714 
z
" style="fill:#1f77b4;"/>
   </g>
   <g id="patch_312">
    <path clip-path="url(#p1ebace0b3e)" d="M 391.835474 307.584 
L 394.353902 307.584 
L 394.353902 305.938286 
L 391.835474 305.938286 
z
" style="fill:#1f77b4;"/>
   </g>
   <g id="patch_313">
    <path clip-path="url(#p1ebace0b3e)" d="M 394.353902 307.584 
L 396.872329 307.584 
L 396.872329 307.035429 
L 394.353902 307.035429 
z
" style="fill:#1f77b4;"/>
   </g>
   <g id="patch_314">
    <path clip-path="url(#p1ebace0b3e)" d="M 396.872329 307.584 
L 399.390757 307.584 
L 399.390757 306.486857 
L 396.872329 306.486857 
z
" style="fill:#1f77b4;"/>
   </g>
   <g id="patch_315">
    <path clip-path="url(#p1ebace0b3e)" d="M 399.390757 307.584 
L 401.909184 307.584 
L 401.909184 305.938286 
L 399.390757 305.938286 
z
" style="fill:#1f77b4;"/>
   </g>
   <g id="patch_316">
    <path clip-path="url(#p1ebace0b3e)" d="M 401.909184 307.584 
L 404.427612 307.584 
L 404.427612 307.584 
L 401.909184 307.584 
z
" style="fill:#1f77b4;"/>
   </g>
   <g id="patch_317">
    <path clip-path="url(#p1ebace0b3e)" d="M 404.427612 307.584 
L 406.946039 307.584 
L 406.946039 305.938286 
L 404.427612 305.938286 
z
" style="fill:#1f77b4;"/>
   </g>
   <g id="patch_318">
    <path clip-path="url(#p1ebace0b3e)" d="M 406.946039 307.584 
L 409.464467 307.584 
L 409.464467 307.584 
L 406.946039 307.584 
z
" style="fill:#1f77b4;"/>
   </g>
   <g id="patch_319">
    <path clip-path="url(#p1ebace0b3e)" d="M 409.464467 307.584 
L 411.982895 307.584 
L 411.982895 307.035429 
L 409.464467 307.035429 
z
" style="fill:#1f77b4;"/>
   </g>
   <g id="patch_320">
    <path clip-path="url(#p1ebace0b3e)" d="M 411.982895 307.584 
L 414.501322 307.584 
L 414.501322 307.584 
L 411.982895 307.584 
z
" style="fill:#1f77b4;"/>
   </g>
   <g id="patch_321">
    <path clip-path="url(#p1ebace0b3e)" d="M 414.501322 307.584 
L 417.01975 307.584 
L 417.01975 307.584 
L 414.501322 307.584 
z
" style="fill:#1f77b4;"/>
   </g>
   <g id="patch_322">
    <path clip-path="url(#p1ebace0b3e)" d="M 417.01975 307.584 
L 419.538177 307.584 
L 419.538177 307.584 
L 417.01975 307.584 
z
" style="fill:#1f77b4;"/>
   </g>
   <g id="patch_323">
    <path clip-path="url(#p1ebace0b3e)" d="M 419.538177 307.584 
L 422.056605 307.584 
L 422.056605 307.584 
L 419.538177 307.584 
z
" style="fill:#1f77b4;"/>
   </g>
   <g id="patch_324">
    <path clip-path="url(#p1ebace0b3e)" d="M 422.056605 307.584 
L 424.575032 307.584 
L 424.575032 307.584 
L 422.056605 307.584 
z
" style="fill:#1f77b4;"/>
   </g>
   <g id="patch_325">
    <path clip-path="url(#p1ebace0b3e)" d="M 424.575032 307.584 
L 427.09346 307.584 
L 427.09346 307.584 
L 424.575032 307.584 
z
" style="fill:#1f77b4;"/>
   </g>
   <g id="patch_326">
    <path clip-path="url(#p1ebace0b3e)" d="M 427.09346 307.584 
L 429.611888 307.584 
L 429.611888 307.035429 
L 427.09346 307.035429 
z
" style="fill:#1f77b4;"/>
   </g>
   <g id="patch_327">
    <path clip-path="url(#p1ebace0b3e)" d="M 429.611888 307.584 
L 432.130315 307.584 
L 432.130315 307.584 
L 429.611888 307.584 
z
" style="fill:#1f77b4;"/>
   </g>
   <g id="patch_328">
    <path clip-path="url(#p1ebace0b3e)" d="M 432.130315 307.584 
L 434.648743 307.584 
L 434.648743 307.035429 
L 432.130315 307.035429 
z
" style="fill:#1f77b4;"/>
   </g>
   <g id="patch_329">
    <path clip-path="url(#p1ebace0b3e)" d="M 434.648743 307.584 
L 437.16717 307.584 
L 437.16717 307.584 
L 434.648743 307.584 
z
" style="fill:#1f77b4;"/>
   </g>
   <g id="patch_330">
    <path clip-path="url(#p1ebace0b3e)" d="M 437.16717 307.584 
L 439.685598 307.584 
L 439.685598 307.584 
L 437.16717 307.584 
z
" style="fill:#1f77b4;"/>
   </g>
   <g id="patch_331">
    <path clip-path="url(#p1ebace0b3e)" d="M 439.685598 307.584 
L 442.204025 307.584 
L 442.204025 307.584 
L 439.685598 307.584 
z
" style="fill:#1f77b4;"/>
   </g>
   <g id="patch_332">
    <path clip-path="url(#p1ebace0b3e)" d="M 442.204025 307.584 
L 444.722453 307.584 
L 444.722453 307.584 
L 442.204025 307.584 
z
" style="fill:#1f77b4;"/>
   </g>
   <g id="patch_333">
    <path clip-path="url(#p1ebace0b3e)" d="M 444.722453 307.584 
L 447.240881 307.584 
L 447.240881 307.584 
L 444.722453 307.584 
z
" style="fill:#1f77b4;"/>
   </g>
   <g id="patch_334">
    <path clip-path="url(#p1ebace0b3e)" d="M 447.240881 307.584 
L 449.759308 307.584 
L 449.759308 307.584 
L 447.240881 307.584 
z
" style="fill:#1f77b4;"/>
   </g>
   <g id="patch_335">
    <path clip-path="url(#p1ebace0b3e)" d="M 449.759308 307.584 
L 452.277736 307.584 
L 452.277736 307.584 
L 449.759308 307.584 
z
" style="fill:#1f77b4;"/>
   </g>
   <g id="patch_336">
    <path clip-path="url(#p1ebace0b3e)" d="M 452.277736 307.584 
L 454.796163 307.584 
L 454.796163 307.584 
L 452.277736 307.584 
z
" style="fill:#1f77b4;"/>
   </g>
   <g id="patch_337">
    <path clip-path="url(#p1ebace0b3e)" d="M 454.796163 307.584 
L 457.314591 307.584 
L 457.314591 307.584 
L 454.796163 307.584 
z
" style="fill:#1f77b4;"/>
   </g>
   <g id="patch_338">
    <path clip-path="url(#p1ebace0b3e)" d="M 457.314591 307.584 
L 459.833018 307.584 
L 459.833018 307.584 
L 457.314591 307.584 
z
" style="fill:#1f77b4;"/>
   </g>
   <g id="patch_339">
    <path clip-path="url(#p1ebace0b3e)" d="M 459.833018 307.584 
L 462.351446 307.584 
L 462.351446 307.584 
L 459.833018 307.584 
z
" style="fill:#1f77b4;"/>
   </g>
   <g id="patch_340">
    <path clip-path="url(#p1ebace0b3e)" d="M 462.351446 307.584 
L 464.869874 307.584 
L 464.869874 307.584 
L 462.351446 307.584 
z
" style="fill:#1f77b4;"/>
   </g>
   <g id="patch_341">
    <path clip-path="url(#p1ebace0b3e)" d="M 464.869874 307.584 
L 467.388301 307.584 
L 467.388301 307.584 
L 464.869874 307.584 
z
" style="fill:#1f77b4;"/>
   </g>
   <g id="patch_342">
    <path clip-path="url(#p1ebace0b3e)" d="M 467.388301 307.584 
L 469.906729 307.584 
L 469.906729 307.584 
L 467.388301 307.584 
z
" style="fill:#1f77b4;"/>
   </g>
   <g id="patch_343">
    <path clip-path="url(#p1ebace0b3e)" d="M 469.906729 307.584 
L 472.425156 307.584 
L 472.425156 307.584 
L 469.906729 307.584 
z
" style="fill:#1f77b4;"/>
   </g>
   <g id="patch_344">
    <path clip-path="url(#p1ebace0b3e)" d="M 472.425156 307.584 
L 474.943584 307.584 
L 474.943584 307.035429 
L 472.425156 307.035429 
z
" style="fill:#1f77b4;"/>
   </g>
   <g id="patch_345">
    <path clip-path="url(#p1ebace0b3e)" d="M 474.943584 307.584 
L 477.462011 307.584 
L 477.462011 307.584 
L 474.943584 307.584 
z
" style="fill:#1f77b4;"/>
   </g>
   <g id="patch_346">
    <path clip-path="url(#p1ebace0b3e)" d="M 477.462011 307.584 
L 479.980439 307.584 
L 479.980439 307.584 
L 477.462011 307.584 
z
" style="fill:#1f77b4;"/>
   </g>
   <g id="patch_347">
    <path clip-path="url(#p1ebace0b3e)" d="M 479.980439 307.584 
L 482.498867 307.584 
L 482.498867 307.584 
L 479.980439 307.584 
z
" style="fill:#1f77b4;"/>
   </g>
   <g id="patch_348">
    <path clip-path="url(#p1ebace0b3e)" d="M 482.498867 307.584 
L 485.017294 307.584 
L 485.017294 307.584 
L 482.498867 307.584 
z
" style="fill:#1f77b4;"/>
   </g>
   <g id="patch_349">
    <path clip-path="url(#p1ebace0b3e)" d="M 485.017294 307.584 
L 487.535722 307.584 
L 487.535722 307.584 
L 485.017294 307.584 
z
" style="fill:#1f77b4;"/>
   </g>
   <g id="patch_350">
    <path clip-path="url(#p1ebace0b3e)" d="M 487.535722 307.584 
L 490.054149 307.584 
L 490.054149 307.584 
L 487.535722 307.584 
z
" style="fill:#1f77b4;"/>
   </g>
   <g id="patch_351">
    <path clip-path="url(#p1ebace0b3e)" d="M 490.054149 307.584 
L 492.572577 307.584 
L 492.572577 307.584 
L 490.054149 307.584 
z
" style="fill:#1f77b4;"/>
   </g>
   <g id="patch_352">
    <path clip-path="url(#p1ebace0b3e)" d="M 492.572577 307.584 
L 495.091004 307.584 
L 495.091004 307.584 
L 492.572577 307.584 
z
" style="fill:#1f77b4;"/>
   </g>
   <g id="patch_353">
    <path clip-path="url(#p1ebace0b3e)" d="M 495.091004 307.584 
L 497.609432 307.584 
L 497.609432 307.584 
L 495.091004 307.584 
z
" style="fill:#1f77b4;"/>
   </g>
   <g id="patch_354">
    <path clip-path="url(#p1ebace0b3e)" d="M 497.609432 307.584 
L 500.12786 307.584 
L 500.12786 307.035429 
L 497.609432 307.035429 
z
" style="fill:#1f77b4;"/>
   </g>
   <g id="patch_355">
    <path clip-path="url(#p1ebace0b3e)" d="M 500.12786 307.584 
L 502.646287 307.584 
L 502.646287 307.584 
L 500.12786 307.584 
z
" style="fill:#1f77b4;"/>
   </g>
   <g id="patch_356">
    <path clip-path="url(#p1ebace0b3e)" d="M 502.646287 307.584 
L 505.164715 307.584 
L 505.164715 307.584 
L 502.646287 307.584 
z
" style="fill:#1f77b4;"/>
   </g>
   <g id="patch_357">
    <path clip-path="url(#p1ebace0b3e)" d="M 505.164715 307.584 
L 507.683142 307.584 
L 507.683142 307.584 
L 505.164715 307.584 
z
" style="fill:#1f77b4;"/>
   </g>
   <g id="patch_358">
    <path clip-path="url(#p1ebace0b3e)" d="M 507.683142 307.584 
L 510.20157 307.584 
L 510.20157 307.584 
L 507.683142 307.584 
z
" style="fill:#1f77b4;"/>
   </g>
   <g id="patch_359">
    <path clip-path="url(#p1ebace0b3e)" d="M 510.20157 307.584 
L 512.719997 307.584 
L 512.719997 307.584 
L 510.20157 307.584 
z
" style="fill:#1f77b4;"/>
   </g>
   <g id="patch_360">
    <path clip-path="url(#p1ebace0b3e)" d="M 512.719997 307.584 
L 515.238425 307.584 
L 515.238425 307.584 
L 512.719997 307.584 
z
" style="fill:#1f77b4;"/>
   </g>
   <g id="patch_361">
    <path clip-path="url(#p1ebace0b3e)" d="M 515.238425 307.584 
L 517.756853 307.584 
L 517.756853 307.584 
L 515.238425 307.584 
z
" style="fill:#1f77b4;"/>
   </g>
   <g id="patch_362">
    <path clip-path="url(#p1ebace0b3e)" d="M 517.756853 307.584 
L 520.27528 307.584 
L 520.27528 307.584 
L 517.756853 307.584 
z
" style="fill:#1f77b4;"/>
   </g>
   <g id="patch_363">
    <path clip-path="url(#p1ebace0b3e)" d="M 520.27528 307.584 
L 522.793708 307.584 
L 522.793708 307.584 
L 520.27528 307.584 
z
" style="fill:#1f77b4;"/>
   </g>
   <g id="patch_364">
    <path clip-path="url(#p1ebace0b3e)" d="M 522.793708 307.584 
L 525.312135 307.584 
L 525.312135 307.584 
L 522.793708 307.584 
z
" style="fill:#1f77b4;"/>
   </g>
   <g id="patch_365">
    <path clip-path="url(#p1ebace0b3e)" d="M 525.312135 307.584 
L 527.830563 307.584 
L 527.830563 307.584 
L 525.312135 307.584 
z
" style="fill:#1f77b4;"/>
   </g>
   <g id="patch_366">
    <path clip-path="url(#p1ebace0b3e)" d="M 527.830563 307.584 
L 530.34899 307.584 
L 530.34899 307.584 
L 527.830563 307.584 
z
" style="fill:#1f77b4;"/>
   </g>
   <g id="patch_367">
    <path clip-path="url(#p1ebace0b3e)" d="M 530.34899 307.584 
L 532.867418 307.584 
L 532.867418 307.584 
L 530.34899 307.584 
z
" style="fill:#1f77b4;"/>
   </g>
   <g id="patch_368">
    <path clip-path="url(#p1ebace0b3e)" d="M 532.867418 307.584 
L 535.385846 307.584 
L 535.385846 307.584 
L 532.867418 307.584 
z
" style="fill:#1f77b4;"/>
   </g>
   <g id="patch_369">
    <path clip-path="url(#p1ebace0b3e)" d="M 535.385846 307.584 
L 537.904273 307.584 
L 537.904273 307.584 
L 535.385846 307.584 
z
" style="fill:#1f77b4;"/>
   </g>
   <g id="patch_370">
    <path clip-path="url(#p1ebace0b3e)" d="M 537.904273 307.584 
L 540.422701 307.584 
L 540.422701 307.584 
L 537.904273 307.584 
z
" style="fill:#1f77b4;"/>
   </g>
   <g id="patch_371">
    <path clip-path="url(#p1ebace0b3e)" d="M 540.422701 307.584 
L 542.941128 307.584 
L 542.941128 307.584 
L 540.422701 307.584 
z
" style="fill:#1f77b4;"/>
   </g>
   <g id="patch_372">
    <path clip-path="url(#p1ebace0b3e)" d="M 542.941128 307.584 
L 545.459556 307.584 
L 545.459556 307.584 
L 542.941128 307.584 
z
" style="fill:#1f77b4;"/>
   </g>
   <g id="patch_373">
    <path clip-path="url(#p1ebace0b3e)" d="M 545.459556 307.584 
L 547.977983 307.584 
L 547.977983 307.584 
L 545.459556 307.584 
z
" style="fill:#1f77b4;"/>
   </g>
   <g id="patch_374">
    <path clip-path="url(#p1ebace0b3e)" d="M 547.977983 307.584 
L 550.496411 307.584 
L 550.496411 307.584 
L 547.977983 307.584 
z
" style="fill:#1f77b4;"/>
   </g>
   <g id="patch_375">
    <path clip-path="url(#p1ebace0b3e)" d="M 550.496411 307.584 
L 553.014839 307.584 
L 553.014839 307.584 
L 550.496411 307.584 
z
" style="fill:#1f77b4;"/>
   </g>
   <g id="patch_376">
    <path clip-path="url(#p1ebace0b3e)" d="M 553.014839 307.584 
L 555.533266 307.584 
L 555.533266 307.584 
L 553.014839 307.584 
z
" style="fill:#1f77b4;"/>
   </g>
   <g id="patch_377">
    <path clip-path="url(#p1ebace0b3e)" d="M 555.533266 307.584 
L 558.051694 307.584 
L 558.051694 307.584 
L 555.533266 307.584 
z
" style="fill:#1f77b4;"/>
   </g>
   <g id="patch_378">
    <path clip-path="url(#p1ebace0b3e)" d="M 558.051694 307.584 
L 560.570121 307.584 
L 560.570121 307.584 
L 558.051694 307.584 
z
" style="fill:#1f77b4;"/>
   </g>
   <g id="patch_379">
    <path clip-path="url(#p1ebace0b3e)" d="M 560.570121 307.584 
L 563.088549 307.584 
L 563.088549 307.584 
L 560.570121 307.584 
z
" style="fill:#1f77b4;"/>
   </g>
   <g id="patch_380">
    <path clip-path="url(#p1ebace0b3e)" d="M 563.088549 307.584 
L 565.606976 307.584 
L 565.606976 307.584 
L 563.088549 307.584 
z
" style="fill:#1f77b4;"/>
   </g>
   <g id="patch_381">
    <path clip-path="url(#p1ebace0b3e)" d="M 565.606976 307.584 
L 568.125404 307.584 
L 568.125404 307.584 
L 565.606976 307.584 
z
" style="fill:#1f77b4;"/>
   </g>
   <g id="patch_382">
    <path clip-path="url(#p1ebace0b3e)" d="M 568.125404 307.584 
L 570.643832 307.584 
L 570.643832 307.584 
L 568.125404 307.584 
z
" style="fill:#1f77b4;"/>
   </g>
   <g id="patch_383">
    <path clip-path="url(#p1ebace0b3e)" d="M 570.643832 307.584 
L 573.162259 307.584 
L 573.162259 307.584 
L 570.643832 307.584 
z
" style="fill:#1f77b4;"/>
   </g>
   <g id="patch_384">
    <path clip-path="url(#p1ebace0b3e)" d="M 573.162259 307.584 
L 575.680687 307.584 
L 575.680687 307.584 
L 573.162259 307.584 
z
" style="fill:#1f77b4;"/>
   </g>
   <g id="patch_385">
    <path clip-path="url(#p1ebace0b3e)" d="M 575.680687 307.584 
L 578.199114 307.584 
L 578.199114 307.584 
L 575.680687 307.584 
z
" style="fill:#1f77b4;"/>
   </g>
   <g id="patch_386">
    <path clip-path="url(#p1ebace0b3e)" d="M 578.199114 307.584 
L 580.717542 307.584 
L 580.717542 307.584 
L 578.199114 307.584 
z
" style="fill:#1f77b4;"/>
   </g>
   <g id="patch_387">
    <path clip-path="url(#p1ebace0b3e)" d="M 580.717542 307.584 
L 583.235969 307.584 
L 583.235969 307.584 
L 580.717542 307.584 
z
" style="fill:#1f77b4;"/>
   </g>
   <g id="patch_388">
    <path clip-path="url(#p1ebace0b3e)" d="M 583.235969 307.584 
L 585.754397 307.584 
L 585.754397 307.584 
L 583.235969 307.584 
z
" style="fill:#1f77b4;"/>
   </g>
   <g id="patch_389">
    <path clip-path="url(#p1ebace0b3e)" d="M 585.754397 307.584 
L 588.272825 307.584 
L 588.272825 307.584 
L 585.754397 307.584 
z
" style="fill:#1f77b4;"/>
   </g>
   <g id="patch_390">
    <path clip-path="url(#p1ebace0b3e)" d="M 588.272825 307.584 
L 590.791252 307.584 
L 590.791252 307.035429 
L 588.272825 307.035429 
z
" style="fill:#1f77b4;"/>
   </g>
   <g id="patch_391">
    <path clip-path="url(#p1ebace0b3e)" d="M 590.791252 307.584 
L 593.30968 307.584 
L 593.30968 307.584 
L 590.791252 307.584 
z
" style="fill:#1f77b4;"/>
   </g>
   <g id="patch_392">
    <path clip-path="url(#p1ebace0b3e)" d="M 593.30968 307.584 
L 595.828107 307.584 
L 595.828107 307.584 
L 593.30968 307.584 
z
" style="fill:#1f77b4;"/>
   </g>
   <g id="patch_393">
    <path clip-path="url(#p1ebace0b3e)" d="M 595.828107 307.584 
L 598.346535 307.584 
L 598.346535 307.584 
L 595.828107 307.584 
z
" style="fill:#1f77b4;"/>
   </g>
   <g id="patch_394">
    <path clip-path="url(#p1ebace0b3e)" d="M 598.346535 307.584 
L 600.864963 307.584 
L 600.864963 307.584 
L 598.346535 307.584 
z
" style="fill:#1f77b4;"/>
   </g>
   <g id="patch_395">
    <path clip-path="url(#p1ebace0b3e)" d="M 600.864963 307.584 
L 603.38339 307.584 
L 603.38339 307.584 
L 600.864963 307.584 
z
" style="fill:#1f77b4;"/>
   </g>
   <g id="patch_396">
    <path clip-path="url(#p1ebace0b3e)" d="M 603.38339 307.584 
L 605.901818 307.584 
L 605.901818 307.584 
L 603.38339 307.584 
z
" style="fill:#1f77b4;"/>
   </g>
   <g id="patch_397">
    <path clip-path="url(#p1ebace0b3e)" d="M 605.901818 307.584 
L 608.420245 307.584 
L 608.420245 307.584 
L 605.901818 307.584 
z
" style="fill:#1f77b4;"/>
   </g>
   <g id="patch_398">
    <path clip-path="url(#p1ebace0b3e)" d="M 608.420245 307.584 
L 610.938673 307.584 
L 610.938673 307.584 
L 608.420245 307.584 
z
" style="fill:#1f77b4;"/>
   </g>
   <g id="patch_399">
    <path clip-path="url(#p1ebace0b3e)" d="M 610.938673 307.584 
L 613.4571 307.584 
L 613.4571 307.584 
L 610.938673 307.584 
z
" style="fill:#1f77b4;"/>
   </g>
   <g id="patch_400">
    <path clip-path="url(#p1ebace0b3e)" d="M 613.4571 307.584 
L 615.975528 307.584 
L 615.975528 307.584 
L 613.4571 307.584 
z
" style="fill:#1f77b4;"/>
   </g>
   <g id="patch_401">
    <path clip-path="url(#p1ebace0b3e)" d="M 615.975528 307.584 
L 618.493956 307.584 
L 618.493956 307.584 
L 615.975528 307.584 
z
" style="fill:#1f77b4;"/>
   </g>
   <g id="patch_402">
    <path clip-path="url(#p1ebace0b3e)" d="M 618.493956 307.584 
L 621.012383 307.584 
L 621.012383 307.584 
L 618.493956 307.584 
z
" style="fill:#1f77b4;"/>
   </g>
   <g id="patch_403">
    <path clip-path="url(#p1ebace0b3e)" d="M 621.012383 307.584 
L 623.530811 307.584 
L 623.530811 307.584 
L 621.012383 307.584 
z
" style="fill:#1f77b4;"/>
   </g>
   <g id="patch_404">
    <path clip-path="url(#p1ebace0b3e)" d="M 623.530811 307.584 
L 626.049238 307.584 
L 626.049238 307.584 
L 623.530811 307.584 
z
" style="fill:#1f77b4;"/>
   </g>
   <g id="patch_405">
    <path clip-path="url(#p1ebace0b3e)" d="M 626.049238 307.584 
L 628.567666 307.584 
L 628.567666 307.584 
L 626.049238 307.584 
z
" style="fill:#1f77b4;"/>
   </g>
   <g id="patch_406">
    <path clip-path="url(#p1ebace0b3e)" d="M 628.567666 307.584 
L 631.086093 307.584 
L 631.086093 307.584 
L 628.567666 307.584 
z
" style="fill:#1f77b4;"/>
   </g>
   <g id="patch_407">
    <path clip-path="url(#p1ebace0b3e)" d="M 631.086093 307.584 
L 633.604521 307.584 
L 633.604521 307.035429 
L 631.086093 307.035429 
z
" style="fill:#1f77b4;"/>
   </g>
   <g id="matplotlib.axis_3">
    <g id="xtick_6">
     <g id="line2d_15">
      <g>
       <use style="stroke:#000000;stroke-width:0.8;" x="268.625455" xlink:href="#me50ff74b01" y="307.584"/>
      </g>
     </g>
     <g id="text_16">
      <!-- −4 -->
      <g transform="translate(261.254361 322.182437)scale(0.1 -0.1)">
       <use xlink:href="#DejaVuSans-2212"/>
       <use x="83.789062" xlink:href="#DejaVuSans-34"/>
      </g>
     </g>
    </g>
    <g id="xtick_7">
     <g id="line2d_16">
      <g>
       <use style="stroke:#000000;stroke-width:0.8;" x="301.090909" xlink:href="#me50ff74b01" y="307.584"/>
      </g>
     </g>
     <g id="text_17">
      <!-- −2 -->
      <g transform="translate(293.719815 322.182437)scale(0.1 -0.1)">
       <use xlink:href="#DejaVuSans-2212"/>
       <use x="83.789062" xlink:href="#DejaVuSans-32"/>
      </g>
     </g>
    </g>
    <g id="xtick_8">
     <g id="line2d_17">
      <g>
       <use style="stroke:#000000;stroke-width:0.8;" x="333.556364" xlink:href="#me50ff74b01" y="307.584"/>
      </g>
     </g>
     <g id="text_18">
      <!-- 0 -->
      <g transform="translate(330.375114 322.182437)scale(0.1 -0.1)">
       <use xlink:href="#DejaVuSans-30"/>
      </g>
     </g>
    </g>
    <g id="xtick_9">
     <g id="line2d_18">
      <g>
       <use style="stroke:#000000;stroke-width:0.8;" x="366.021818" xlink:href="#me50ff74b01" y="307.584"/>
      </g>
     </g>
     <g id="text_19">
      <!-- 2 -->
      <g transform="translate(362.840568 322.182437)scale(0.1 -0.1)">
       <use xlink:href="#DejaVuSans-32"/>
      </g>
     </g>
    </g>
    <g id="xtick_10">
     <g id="line2d_19">
      <g>
       <use style="stroke:#000000;stroke-width:0.8;" x="398.487273" xlink:href="#me50ff74b01" y="307.584"/>
      </g>
     </g>
     <g id="text_20">
      <!-- 4 -->
      <g transform="translate(395.306023 322.182437)scale(0.1 -0.1)">
       <use xlink:href="#DejaVuSans-34"/>
      </g>
     </g>
    </g>
    <g id="text_21">
     <!-- $z_{GCA}$ [kpc] -->
     <g transform="translate(308.906364 335.862125)scale(0.1 -0.1)">
      <defs>
       <path d="M 744 3500 
L 3475 3500 
L 3372 2975 
L 738 459 
L 2913 459 
L 2822 0 
L -19 0 
L 84 525 
L 2719 3041 
L 653 3041 
L 744 3500 
z
" id="DejaVuSans-Oblique-7a" transform="scale(0.015625)"/>
      </defs>
      <use transform="translate(0 0.015625)" xlink:href="#DejaVuSans-Oblique-7a"/>
      <use transform="translate(52.490234 -16.390625)scale(0.7)" xlink:href="#DejaVuSans-Oblique-47"/>
      <use transform="translate(106.733398 -16.390625)scale(0.7)" xlink:href="#DejaVuSans-Oblique-43"/>
      <use transform="translate(155.610352 -16.390625)scale(0.7)" xlink:href="#DejaVuSans-Oblique-41"/>
      <use transform="translate(206.230469 0.015625)" xlink:href="#DejaVuSans-20"/>
      <use transform="translate(238.017578 0.015625)" xlink:href="#DejaVuSans-5b"/>
      <use transform="translate(277.03125 0.015625)" xlink:href="#DejaVuSans-6b"/>
      <use transform="translate(334.941406 0.015625)" xlink:href="#DejaVuSans-70"/>
      <use transform="translate(398.417969 0.015625)" xlink:href="#DejaVuSans-63"/>
      <use transform="translate(453.398438 0.015625)" xlink:href="#DejaVuSans-5d"/>
     </g>
    </g>
   </g>
   <g id="matplotlib.axis_4">
    <g id="ytick_10">
     <g id="line2d_20">
      <g>
       <use style="stroke:#000000;stroke-width:0.8;" x="252.392727" xlink:href="#m31bd411cef" y="307.584"/>
      </g>
     </g>
     <g id="text_22">
      <!-- 0 -->
      <g transform="translate(239.030227 311.383219)scale(0.1 -0.1)">
       <use xlink:href="#DejaVuSans-30"/>
      </g>
     </g>
    </g>
    <g id="ytick_11">
     <g id="line2d_21">
      <g>
       <use style="stroke:#000000;stroke-width:0.8;" x="252.392727" xlink:href="#m31bd411cef" y="252.726857"/>
      </g>
     </g>
     <g id="text_23">
      <!-- 100 -->
      <g transform="translate(226.305227 256.526076)scale(0.1 -0.1)">
       <use xlink:href="#DejaVuSans-31"/>
       <use x="63.623047" xlink:href="#DejaVuSans-30"/>
       <use x="127.246094" xlink:href="#DejaVuSans-30"/>
      </g>
     </g>
    </g>
    <g id="ytick_12">
     <g id="line2d_22">
      <g>
       <use style="stroke:#000000;stroke-width:0.8;" x="252.392727" xlink:href="#m31bd411cef" y="197.869714"/>
      </g>
     </g>
     <g id="text_24">
      <!-- 200 -->
      <g transform="translate(226.305227 201.668933)scale(0.1 -0.1)">
       <use xlink:href="#DejaVuSans-32"/>
       <use x="63.623047" xlink:href="#DejaVuSans-30"/>
       <use x="127.246094" xlink:href="#DejaVuSans-30"/>
      </g>
     </g>
    </g>
    <g id="ytick_13">
     <g id="line2d_23">
      <g>
       <use style="stroke:#000000;stroke-width:0.8;" x="252.392727" xlink:href="#m31bd411cef" y="143.012571"/>
      </g>
     </g>
     <g id="text_25">
      <!-- 300 -->
      <g transform="translate(226.305227 146.81179)scale(0.1 -0.1)">
       <defs>
        <path d="M 2597 2516 
Q 3050 2419 3304 2112 
Q 3559 1806 3559 1356 
Q 3559 666 3084 287 
Q 2609 -91 1734 -91 
Q 1441 -91 1130 -33 
Q 819 25 488 141 
L 488 750 
Q 750 597 1062 519 
Q 1375 441 1716 441 
Q 2309 441 2620 675 
Q 2931 909 2931 1356 
Q 2931 1769 2642 2001 
Q 2353 2234 1838 2234 
L 1294 2234 
L 1294 2753 
L 1863 2753 
Q 2328 2753 2575 2939 
Q 2822 3125 2822 3475 
Q 2822 3834 2567 4026 
Q 2313 4219 1838 4219 
Q 1578 4219 1281 4162 
Q 984 4106 628 3988 
L 628 4550 
Q 988 4650 1302 4700 
Q 1616 4750 1894 4750 
Q 2613 4750 3031 4423 
Q 3450 4097 3450 3541 
Q 3450 3153 3228 2886 
Q 3006 2619 2597 2516 
z
" id="DejaVuSans-33" transform="scale(0.015625)"/>
       </defs>
       <use xlink:href="#DejaVuSans-33"/>
       <use x="63.623047" xlink:href="#DejaVuSans-30"/>
       <use x="127.246094" xlink:href="#DejaVuSans-30"/>
      </g>
     </g>
    </g>
    <g id="ytick_14">
     <g id="line2d_24">
      <g>
       <use style="stroke:#000000;stroke-width:0.8;" x="252.392727" xlink:href="#m31bd411cef" y="88.155429"/>
      </g>
     </g>
     <g id="text_26">
      <!-- 400 -->
      <g transform="translate(226.305227 91.954647)scale(0.1 -0.1)">
       <use xlink:href="#DejaVuSans-34"/>
       <use x="63.623047" xlink:href="#DejaVuSans-30"/>
       <use x="127.246094" xlink:href="#DejaVuSans-30"/>
      </g>
     </g>
    </g>
   </g>
   <g id="patch_408">
    <path d="M 252.392727 307.584 
L 252.392727 41.472 
" style="fill:none;stroke:#000000;stroke-linecap:square;stroke-linejoin:miter;stroke-width:0.8;"/>
   </g>
   <g id="patch_409">
    <path d="M 414.72 307.584 
L 414.72 41.472 
" style="fill:none;stroke:#000000;stroke-linecap:square;stroke-linejoin:miter;stroke-width:0.8;"/>
   </g>
   <g id="patch_410">
    <path d="M 252.392727 307.584 
L 414.72 307.584 
" style="fill:none;stroke:#000000;stroke-linecap:square;stroke-linejoin:miter;stroke-width:0.8;"/>
   </g>
   <g id="patch_411">
    <path d="M 252.392727 41.472 
L 414.72 41.472 
" style="fill:none;stroke:#000000;stroke-linecap:square;stroke-linejoin:miter;stroke-width:0.8;"/>
   </g>
  </g>
 </g>
 <defs>
  <clipPath id="p3edb24f116">
   <rect height="266.112" width="162.327273" x="57.6" y="41.472"/>
  </clipPath>
  <clipPath id="p1ebace0b3e">
   <rect height="266.112" width="162.327273" x="252.392727" y="41.472"/>
  </clipPath>
 </defs>
</svg>
