<?xml version="1.0" encoding="utf-8" standalone="no"?>
<!DOCTYPE svg PUBLIC "-//W3C//DTD SVG 1.1//EN"
  "http://www.w3.org/Graphics/SVG/1.1/DTD/svg11.dtd">
<!-- Created with matplotlib (https://matplotlib.org/) -->
<svg height="345.6pt" version="1.1" viewBox="0 0 460.8 345.6" width="460.8pt" xmlns="http://www.w3.org/2000/svg" xmlns:xlink="http://www.w3.org/1999/xlink">
 <metadata>
  <rdf:RDF xmlns:cc="http://creativecommons.org/ns#" xmlns:dc="http://purl.org/dc/elements/1.1/" xmlns:rdf="http://www.w3.org/1999/02/22-rdf-syntax-ns#">
   <cc:Work>
    <dc:type rdf:resource="http://purl.org/dc/dcmitype/StillImage"/>
    <dc:date>2020-12-10T20:43:48.676211</dc:date>
    <dc:format>image/svg+xml</dc:format>
    <dc:creator>
     <cc:Agent>
      <dc:title>Matplotlib v3.3.2, https://matplotlib.org/</dc:title>
     </cc:Agent>
    </dc:creator>
   </cc:Work>
  </rdf:RDF>
 </metadata>
 <defs>
  <style type="text/css">*{stroke-linecap:butt;stroke-linejoin:round;}</style>
 </defs>
 <g id="figure_1">
  <g id="patch_1">
   <path d="M 0 345.6 
L 460.8 345.6 
L 460.8 0 
L 0 0 
z
" style="fill:#ffffff;"/>
  </g>
  <g id="axes_1">
   <g id="patch_2">
    <path d="M 57.6 307.584 
L 414.72 307.584 
L 414.72 41.472 
L 57.6 41.472 
z
" style="fill:#ffffff;"/>
   </g>
   <g id="matplotlib.axis_1">
    <g id="xtick_1">
     <g id="line2d_1">
      <defs>
       <path d="M 0 0 
L 0 3.5 
" id="mb78580733a" style="stroke:#000000;stroke-width:0.8;"/>
      </defs>
      <g>
       <use style="stroke:#000000;stroke-width:0.8;" x="73.832727" xlink:href="#mb78580733a" y="307.584"/>
      </g>
     </g>
     <g id="text_1">
      <!-- −10.0 -->
      <g transform="translate(58.510071 322.182437)scale(0.1 -0.1)">
       <defs>
        <path d="M 10.59375 35.5 
L 73.1875 35.5 
L 73.1875 27.203125 
L 10.59375 27.203125 
z
" id="DejaVuSans-8722"/>
        <path d="M 12.40625 8.296875 
L 28.515625 8.296875 
L 28.515625 63.921875 
L 10.984375 60.40625 
L 10.984375 69.390625 
L 28.421875 72.90625 
L 38.28125 72.90625 
L 38.28125 8.296875 
L 54.390625 8.296875 
L 54.390625 0 
L 12.40625 0 
z
" id="DejaVuSans-49"/>
        <path d="M 31.78125 66.40625 
Q 24.171875 66.40625 20.328125 58.90625 
Q 16.5 51.421875 16.5 36.375 
Q 16.5 21.390625 20.328125 13.890625 
Q 24.171875 6.390625 31.78125 6.390625 
Q 39.453125 6.390625 43.28125 13.890625 
Q 47.125 21.390625 47.125 36.375 
Q 47.125 51.421875 43.28125 58.90625 
Q 39.453125 66.40625 31.78125 66.40625 
z
M 31.78125 74.21875 
Q 44.046875 74.21875 50.515625 64.515625 
Q 56.984375 54.828125 56.984375 36.375 
Q 56.984375 17.96875 50.515625 8.265625 
Q 44.046875 -1.421875 31.78125 -1.421875 
Q 19.53125 -1.421875 13.0625 8.265625 
Q 6.59375 17.96875 6.59375 36.375 
Q 6.59375 54.828125 13.0625 64.515625 
Q 19.53125 74.21875 31.78125 74.21875 
z
" id="DejaVuSans-48"/>
        <path d="M 10.6875 12.40625 
L 21 12.40625 
L 21 0 
L 10.6875 0 
z
" id="DejaVuSans-46"/>
       </defs>
       <use xlink:href="#DejaVuSans-8722"/>
       <use x="83.789062" xlink:href="#DejaVuSans-49"/>
       <use x="147.412109" xlink:href="#DejaVuSans-48"/>
       <use x="211.035156" xlink:href="#DejaVuSans-46"/>
       <use x="242.822266" xlink:href="#DejaVuSans-48"/>
      </g>
     </g>
    </g>
    <g id="xtick_2">
     <g id="line2d_2">
      <g>
       <use style="stroke:#000000;stroke-width:0.8;" x="114.414545" xlink:href="#mb78580733a" y="307.584"/>
      </g>
     </g>
     <g id="text_2">
      <!-- −7.5 -->
      <g transform="translate(102.273139 322.182437)scale(0.1 -0.1)">
       <defs>
        <path d="M 8.203125 72.90625 
L 55.078125 72.90625 
L 55.078125 68.703125 
L 28.609375 0 
L 18.3125 0 
L 43.21875 64.59375 
L 8.203125 64.59375 
z
" id="DejaVuSans-55"/>
        <path d="M 10.796875 72.90625 
L 49.515625 72.90625 
L 49.515625 64.59375 
L 19.828125 64.59375 
L 19.828125 46.734375 
Q 21.96875 47.46875 24.109375 47.828125 
Q 26.265625 48.1875 28.421875 48.1875 
Q 40.625 48.1875 47.75 41.5 
Q 54.890625 34.8125 54.890625 23.390625 
Q 54.890625 11.625 47.5625 5.09375 
Q 40.234375 -1.421875 26.90625 -1.421875 
Q 22.3125 -1.421875 17.546875 -0.640625 
Q 12.796875 0.140625 7.71875 1.703125 
L 7.71875 11.625 
Q 12.109375 9.234375 16.796875 8.0625 
Q 21.484375 6.890625 26.703125 6.890625 
Q 35.15625 6.890625 40.078125 11.328125 
Q 45.015625 15.765625 45.015625 23.390625 
Q 45.015625 31 40.078125 35.4375 
Q 35.15625 39.890625 26.703125 39.890625 
Q 22.75 39.890625 18.8125 39.015625 
Q 14.890625 38.140625 10.796875 36.28125 
z
" id="DejaVuSans-53"/>
       </defs>
       <use xlink:href="#DejaVuSans-8722"/>
       <use x="83.789062" xlink:href="#DejaVuSans-55"/>
       <use x="147.412109" xlink:href="#DejaVuSans-46"/>
       <use x="179.199219" xlink:href="#DejaVuSans-53"/>
      </g>
     </g>
    </g>
    <g id="xtick_3">
     <g id="line2d_3">
      <g>
       <use style="stroke:#000000;stroke-width:0.8;" x="154.996364" xlink:href="#mb78580733a" y="307.584"/>
      </g>
     </g>
     <g id="text_3">
      <!-- −5.0 -->
      <g transform="translate(142.854957 322.182437)scale(0.1 -0.1)">
       <use xlink:href="#DejaVuSans-8722"/>
       <use x="83.789062" xlink:href="#DejaVuSans-53"/>
       <use x="147.412109" xlink:href="#DejaVuSans-46"/>
       <use x="179.199219" xlink:href="#DejaVuSans-48"/>
      </g>
     </g>
    </g>
    <g id="xtick_4">
     <g id="line2d_4">
      <g>
       <use style="stroke:#000000;stroke-width:0.8;" x="195.578182" xlink:href="#mb78580733a" y="307.584"/>
      </g>
     </g>
     <g id="text_4">
      <!-- −2.5 -->
      <g transform="translate(183.436776 322.182437)scale(0.1 -0.1)">
       <defs>
        <path d="M 19.1875 8.296875 
L 53.609375 8.296875 
L 53.609375 0 
L 7.328125 0 
L 7.328125 8.296875 
Q 12.9375 14.109375 22.625 23.890625 
Q 32.328125 33.6875 34.8125 36.53125 
Q 39.546875 41.84375 41.421875 45.53125 
Q 43.3125 49.21875 43.3125 52.78125 
Q 43.3125 58.59375 39.234375 62.25 
Q 35.15625 65.921875 28.609375 65.921875 
Q 23.96875 65.921875 18.8125 64.3125 
Q 13.671875 62.703125 7.8125 59.421875 
L 7.8125 69.390625 
Q 13.765625 71.78125 18.9375 73 
Q 24.125 74.21875 28.421875 74.21875 
Q 39.75 74.21875 46.484375 68.546875 
Q 53.21875 62.890625 53.21875 53.421875 
Q 53.21875 48.921875 51.53125 44.890625 
Q 49.859375 40.875 45.40625 35.40625 
Q 44.1875 33.984375 37.640625 27.21875 
Q 31.109375 20.453125 19.1875 8.296875 
z
" id="DejaVuSans-50"/>
       </defs>
       <use xlink:href="#DejaVuSans-8722"/>
       <use x="83.789062" xlink:href="#DejaVuSans-50"/>
       <use x="147.412109" xlink:href="#DejaVuSans-46"/>
       <use x="179.199219" xlink:href="#DejaVuSans-53"/>
      </g>
     </g>
    </g>
    <g id="xtick_5">
     <g id="line2d_5">
      <g>
       <use style="stroke:#000000;stroke-width:0.8;" x="236.16" xlink:href="#mb78580733a" y="307.584"/>
      </g>
     </g>
     <g id="text_5">
      <!-- 0.0 -->
      <g transform="translate(228.208438 322.182437)scale(0.1 -0.1)">
       <use xlink:href="#DejaVuSans-48"/>
       <use x="63.623047" xlink:href="#DejaVuSans-46"/>
       <use x="95.410156" xlink:href="#DejaVuSans-48"/>
      </g>
     </g>
    </g>
    <g id="xtick_6">
     <g id="line2d_6">
      <g>
       <use style="stroke:#000000;stroke-width:0.8;" x="276.741818" xlink:href="#mb78580733a" y="307.584"/>
      </g>
     </g>
     <g id="text_6">
      <!-- 2.5 -->
      <g transform="translate(268.790256 322.182437)scale(0.1 -0.1)">
       <use xlink:href="#DejaVuSans-50"/>
       <use x="63.623047" xlink:href="#DejaVuSans-46"/>
       <use x="95.410156" xlink:href="#DejaVuSans-53"/>
      </g>
     </g>
    </g>
    <g id="xtick_7">
     <g id="line2d_7">
      <g>
       <use style="stroke:#000000;stroke-width:0.8;" x="317.323636" xlink:href="#mb78580733a" y="307.584"/>
      </g>
     </g>
     <g id="text_7">
      <!-- 5.0 -->
      <g transform="translate(309.372074 322.182437)scale(0.1 -0.1)">
       <use xlink:href="#DejaVuSans-53"/>
       <use x="63.623047" xlink:href="#DejaVuSans-46"/>
       <use x="95.410156" xlink:href="#DejaVuSans-48"/>
      </g>
     </g>
    </g>
    <g id="xtick_8">
     <g id="line2d_8">
      <g>
       <use style="stroke:#000000;stroke-width:0.8;" x="357.905455" xlink:href="#mb78580733a" y="307.584"/>
      </g>
     </g>
     <g id="text_8">
      <!-- 7.5 -->
      <g transform="translate(349.953892 322.182437)scale(0.1 -0.1)">
       <use xlink:href="#DejaVuSans-55"/>
       <use x="63.623047" xlink:href="#DejaVuSans-46"/>
       <use x="95.410156" xlink:href="#DejaVuSans-53"/>
      </g>
     </g>
    </g>
    <g id="xtick_9">
     <g id="line2d_9">
      <g>
       <use style="stroke:#000000;stroke-width:0.8;" x="398.487273" xlink:href="#mb78580733a" y="307.584"/>
      </g>
     </g>
     <g id="text_9">
      <!-- 10.0 -->
      <g transform="translate(387.35446 322.182437)scale(0.1 -0.1)">
       <use xlink:href="#DejaVuSans-49"/>
       <use x="63.623047" xlink:href="#DejaVuSans-48"/>
       <use x="127.246094" xlink:href="#DejaVuSans-46"/>
       <use x="159.033203" xlink:href="#DejaVuSans-48"/>
      </g>
     </g>
    </g>
    <g id="text_10">
     <!-- longitute l [°] -->
     <g transform="translate(202.845156 335.860562)scale(0.1 -0.1)">
      <defs>
       <path d="M 9.421875 75.984375 
L 18.40625 75.984375 
L 18.40625 0 
L 9.421875 0 
z
" id="DejaVuSans-108"/>
       <path d="M 30.609375 48.390625 
Q 23.390625 48.390625 19.1875 42.75 
Q 14.984375 37.109375 14.984375 27.296875 
Q 14.984375 17.484375 19.15625 11.84375 
Q 23.34375 6.203125 30.609375 6.203125 
Q 37.796875 6.203125 41.984375 11.859375 
Q 46.1875 17.53125 46.1875 27.296875 
Q 46.1875 37.015625 41.984375 42.703125 
Q 37.796875 48.390625 30.609375 48.390625 
z
M 30.609375 56 
Q 42.328125 56 49.015625 48.375 
Q 55.71875 40.765625 55.71875 27.296875 
Q 55.71875 13.875 49.015625 6.21875 
Q 42.328125 -1.421875 30.609375 -1.421875 
Q 18.84375 -1.421875 12.171875 6.21875 
Q 5.515625 13.875 5.515625 27.296875 
Q 5.515625 40.765625 12.171875 48.375 
Q 18.84375 56 30.609375 56 
z
" id="DejaVuSans-111"/>
       <path d="M 54.890625 33.015625 
L 54.890625 0 
L 45.90625 0 
L 45.90625 32.71875 
Q 45.90625 40.484375 42.875 44.328125 
Q 39.84375 48.1875 33.796875 48.1875 
Q 26.515625 48.1875 22.3125 43.546875 
Q 18.109375 38.921875 18.109375 30.90625 
L 18.109375 0 
L 9.078125 0 
L 9.078125 54.6875 
L 18.109375 54.6875 
L 18.109375 46.1875 
Q 21.34375 51.125 25.703125 53.5625 
Q 30.078125 56 35.796875 56 
Q 45.21875 56 50.046875 50.171875 
Q 54.890625 44.34375 54.890625 33.015625 
z
" id="DejaVuSans-110"/>
       <path d="M 45.40625 27.984375 
Q 45.40625 37.75 41.375 43.109375 
Q 37.359375 48.484375 30.078125 48.484375 
Q 22.859375 48.484375 18.828125 43.109375 
Q 14.796875 37.75 14.796875 27.984375 
Q 14.796875 18.265625 18.828125 12.890625 
Q 22.859375 7.515625 30.078125 7.515625 
Q 37.359375 7.515625 41.375 12.890625 
Q 45.40625 18.265625 45.40625 27.984375 
z
M 54.390625 6.78125 
Q 54.390625 -7.171875 48.1875 -13.984375 
Q 42 -20.796875 29.203125 -20.796875 
Q 24.46875 -20.796875 20.265625 -20.09375 
Q 16.0625 -19.390625 12.109375 -17.921875 
L 12.109375 -9.1875 
Q 16.0625 -11.328125 19.921875 -12.34375 
Q 23.78125 -13.375 27.78125 -13.375 
Q 36.625 -13.375 41.015625 -8.765625 
Q 45.40625 -4.15625 45.40625 5.171875 
L 45.40625 9.625 
Q 42.625 4.78125 38.28125 2.390625 
Q 33.9375 0 27.875 0 
Q 17.828125 0 11.671875 7.65625 
Q 5.515625 15.328125 5.515625 27.984375 
Q 5.515625 40.671875 11.671875 48.328125 
Q 17.828125 56 27.875 56 
Q 33.9375 56 38.28125 53.609375 
Q 42.625 51.21875 45.40625 46.390625 
L 45.40625 54.6875 
L 54.390625 54.6875 
z
" id="DejaVuSans-103"/>
       <path d="M 9.421875 54.6875 
L 18.40625 54.6875 
L 18.40625 0 
L 9.421875 0 
z
M 9.421875 75.984375 
L 18.40625 75.984375 
L 18.40625 64.59375 
L 9.421875 64.59375 
z
" id="DejaVuSans-105"/>
       <path d="M 18.3125 70.21875 
L 18.3125 54.6875 
L 36.8125 54.6875 
L 36.8125 47.703125 
L 18.3125 47.703125 
L 18.3125 18.015625 
Q 18.3125 11.328125 20.140625 9.421875 
Q 21.96875 7.515625 27.59375 7.515625 
L 36.8125 7.515625 
L 36.8125 0 
L 27.59375 0 
Q 17.1875 0 13.234375 3.875 
Q 9.28125 7.765625 9.28125 18.015625 
L 9.28125 47.703125 
L 2.6875 47.703125 
L 2.6875 54.6875 
L 9.28125 54.6875 
L 9.28125 70.21875 
z
" id="DejaVuSans-116"/>
       <path d="M 8.5 21.578125 
L 8.5 54.6875 
L 17.484375 54.6875 
L 17.484375 21.921875 
Q 17.484375 14.15625 20.5 10.265625 
Q 23.53125 6.390625 29.59375 6.390625 
Q 36.859375 6.390625 41.078125 11.03125 
Q 45.3125 15.671875 45.3125 23.6875 
L 45.3125 54.6875 
L 54.296875 54.6875 
L 54.296875 0 
L 45.3125 0 
L 45.3125 8.40625 
Q 42.046875 3.421875 37.71875 1 
Q 33.40625 -1.421875 27.6875 -1.421875 
Q 18.265625 -1.421875 13.375 4.4375 
Q 8.5 10.296875 8.5 21.578125 
z
M 31.109375 56 
z
" id="DejaVuSans-117"/>
       <path d="M 56.203125 29.59375 
L 56.203125 25.203125 
L 14.890625 25.203125 
Q 15.484375 15.921875 20.484375 11.0625 
Q 25.484375 6.203125 34.421875 6.203125 
Q 39.59375 6.203125 44.453125 7.46875 
Q 49.3125 8.734375 54.109375 11.28125 
L 54.109375 2.78125 
Q 49.265625 0.734375 44.1875 -0.34375 
Q 39.109375 -1.421875 33.890625 -1.421875 
Q 20.796875 -1.421875 13.15625 6.1875 
Q 5.515625 13.8125 5.515625 26.8125 
Q 5.515625 40.234375 12.765625 48.109375 
Q 20.015625 56 32.328125 56 
Q 43.359375 56 49.78125 48.890625 
Q 56.203125 41.796875 56.203125 29.59375 
z
M 47.21875 32.234375 
Q 47.125 39.59375 43.09375 43.984375 
Q 39.0625 48.390625 32.421875 48.390625 
Q 24.90625 48.390625 20.390625 44.140625 
Q 15.875 39.890625 15.1875 32.171875 
z
" id="DejaVuSans-101"/>
       <path id="DejaVuSans-32"/>
       <path d="M 8.59375 75.984375 
L 29.296875 75.984375 
L 29.296875 69 
L 17.578125 69 
L 17.578125 -6.203125 
L 29.296875 -6.203125 
L 29.296875 -13.1875 
L 8.59375 -13.1875 
z
" id="DejaVuSans-91"/>
       <path d="M 25 67.921875 
Q 21.09375 67.921875 18.40625 65.203125 
Q 15.71875 62.5 15.71875 58.59375 
Q 15.71875 54.734375 18.40625 52.078125 
Q 21.09375 49.421875 25 49.421875 
Q 28.90625 49.421875 31.59375 52.078125 
Q 34.28125 54.734375 34.28125 58.59375 
Q 34.28125 62.453125 31.5625 65.1875 
Q 28.859375 67.921875 25 67.921875 
z
M 25 74.21875 
Q 28.125 74.21875 31 73.015625 
Q 33.890625 71.828125 35.984375 69.578125 
Q 38.234375 67.390625 39.359375 64.59375 
Q 40.484375 61.8125 40.484375 58.59375 
Q 40.484375 52.15625 35.96875 47.6875 
Q 31.453125 43.21875 24.90625 43.21875 
Q 18.3125 43.21875 13.90625 47.609375 
Q 9.515625 52 9.515625 58.59375 
Q 9.515625 65.140625 14 69.671875 
Q 18.5 74.21875 25 74.21875 
z
" id="DejaVuSans-176"/>
       <path d="M 30.421875 75.984375 
L 30.421875 -13.1875 
L 9.71875 -13.1875 
L 9.71875 -6.203125 
L 21.390625 -6.203125 
L 21.390625 69 
L 9.71875 69 
L 9.71875 75.984375 
z
" id="DejaVuSans-93"/>
      </defs>
      <use xlink:href="#DejaVuSans-108"/>
      <use x="27.783203" xlink:href="#DejaVuSans-111"/>
      <use x="88.964844" xlink:href="#DejaVuSans-110"/>
      <use x="152.34375" xlink:href="#DejaVuSans-103"/>
      <use x="215.820312" xlink:href="#DejaVuSans-105"/>
      <use x="243.603516" xlink:href="#DejaVuSans-116"/>
      <use x="282.8125" xlink:href="#DejaVuSans-117"/>
      <use x="346.191406" xlink:href="#DejaVuSans-116"/>
      <use x="385.400391" xlink:href="#DejaVuSans-101"/>
      <use x="446.923828" xlink:href="#DejaVuSans-32"/>
      <use x="478.710938" xlink:href="#DejaVuSans-108"/>
      <use x="506.494141" xlink:href="#DejaVuSans-32"/>
      <use x="538.28125" xlink:href="#DejaVuSans-91"/>
      <use x="577.294922" xlink:href="#DejaVuSans-176"/>
      <use x="627.294922" xlink:href="#DejaVuSans-93"/>
     </g>
    </g>
   </g>
   <g id="matplotlib.axis_2">
    <g id="ytick_1">
     <g id="line2d_10">
      <defs>
       <path d="M 0 0 
L -3.5 0 
" id="me4f7977553" style="stroke:#000000;stroke-width:0.8;"/>
      </defs>
      <g>
       <use style="stroke:#000000;stroke-width:0.8;" x="57.6" xlink:href="#me4f7977553" y="273.178375"/>
      </g>
     </g>
     <g id="text_11">
      <!-- 70 -->
      <g transform="translate(37.875 276.977593)scale(0.1 -0.1)">
       <use xlink:href="#DejaVuSans-55"/>
       <use x="63.623047" xlink:href="#DejaVuSans-48"/>
      </g>
     </g>
    </g>
    <g id="ytick_2">
     <g id="line2d_11">
      <g>
       <use style="stroke:#000000;stroke-width:0.8;" x="57.6" xlink:href="#me4f7977553" y="238.319585"/>
      </g>
     </g>
     <g id="text_12">
      <!-- 80 -->
      <g transform="translate(37.875 242.118804)scale(0.1 -0.1)">
       <defs>
        <path d="M 31.78125 34.625 
Q 24.75 34.625 20.71875 30.859375 
Q 16.703125 27.09375 16.703125 20.515625 
Q 16.703125 13.921875 20.71875 10.15625 
Q 24.75 6.390625 31.78125 6.390625 
Q 38.8125 6.390625 42.859375 10.171875 
Q 46.921875 13.96875 46.921875 20.515625 
Q 46.921875 27.09375 42.890625 30.859375 
Q 38.875 34.625 31.78125 34.625 
z
M 21.921875 38.8125 
Q 15.578125 40.375 12.03125 44.71875 
Q 8.5 49.078125 8.5 55.328125 
Q 8.5 64.0625 14.71875 69.140625 
Q 20.953125 74.21875 31.78125 74.21875 
Q 42.671875 74.21875 48.875 69.140625 
Q 55.078125 64.0625 55.078125 55.328125 
Q 55.078125 49.078125 51.53125 44.71875 
Q 48 40.375 41.703125 38.8125 
Q 48.828125 37.15625 52.796875 32.3125 
Q 56.78125 27.484375 56.78125 20.515625 
Q 56.78125 9.90625 50.3125 4.234375 
Q 43.84375 -1.421875 31.78125 -1.421875 
Q 19.734375 -1.421875 13.25 4.234375 
Q 6.78125 9.90625 6.78125 20.515625 
Q 6.78125 27.484375 10.78125 32.3125 
Q 14.796875 37.15625 21.921875 38.8125 
z
M 18.3125 54.390625 
Q 18.3125 48.734375 21.84375 45.5625 
Q 25.390625 42.390625 31.78125 42.390625 
Q 38.140625 42.390625 41.71875 45.5625 
Q 45.3125 48.734375 45.3125 54.390625 
Q 45.3125 60.0625 41.71875 63.234375 
Q 38.140625 66.40625 31.78125 66.40625 
Q 25.390625 66.40625 21.84375 63.234375 
Q 18.3125 60.0625 18.3125 54.390625 
z
" id="DejaVuSans-56"/>
       </defs>
       <use xlink:href="#DejaVuSans-56"/>
       <use x="63.623047" xlink:href="#DejaVuSans-48"/>
      </g>
     </g>
    </g>
    <g id="ytick_3">
     <g id="line2d_12">
      <g>
       <use style="stroke:#000000;stroke-width:0.8;" x="57.6" xlink:href="#me4f7977553" y="203.460795"/>
      </g>
     </g>
     <g id="text_13">
      <!-- 90 -->
      <g transform="translate(37.875 207.260014)scale(0.1 -0.1)">
       <defs>
        <path d="M 10.984375 1.515625 
L 10.984375 10.5 
Q 14.703125 8.734375 18.5 7.8125 
Q 22.3125 6.890625 25.984375 6.890625 
Q 35.75 6.890625 40.890625 13.453125 
Q 46.046875 20.015625 46.78125 33.40625 
Q 43.953125 29.203125 39.59375 26.953125 
Q 35.25 24.703125 29.984375 24.703125 
Q 19.046875 24.703125 12.671875 31.3125 
Q 6.296875 37.9375 6.296875 49.421875 
Q 6.296875 60.640625 12.9375 67.421875 
Q 19.578125 74.21875 30.609375 74.21875 
Q 43.265625 74.21875 49.921875 64.515625 
Q 56.59375 54.828125 56.59375 36.375 
Q 56.59375 19.140625 48.40625 8.859375 
Q 40.234375 -1.421875 26.421875 -1.421875 
Q 22.703125 -1.421875 18.890625 -0.6875 
Q 15.09375 0.046875 10.984375 1.515625 
z
M 30.609375 32.421875 
Q 37.25 32.421875 41.125 36.953125 
Q 45.015625 41.5 45.015625 49.421875 
Q 45.015625 57.28125 41.125 61.84375 
Q 37.25 66.40625 30.609375 66.40625 
Q 23.96875 66.40625 20.09375 61.84375 
Q 16.21875 57.28125 16.21875 49.421875 
Q 16.21875 41.5 20.09375 36.953125 
Q 23.96875 32.421875 30.609375 32.421875 
z
" id="DejaVuSans-57"/>
       </defs>
       <use xlink:href="#DejaVuSans-57"/>
       <use x="63.623047" xlink:href="#DejaVuSans-48"/>
      </g>
     </g>
    </g>
    <g id="ytick_4">
     <g id="line2d_13">
      <g>
       <use style="stroke:#000000;stroke-width:0.8;" x="57.6" xlink:href="#me4f7977553" y="168.602006"/>
      </g>
     </g>
     <g id="text_14">
      <!-- 100 -->
      <g transform="translate(31.5125 172.401225)scale(0.1 -0.1)">
       <use xlink:href="#DejaVuSans-49"/>
       <use x="63.623047" xlink:href="#DejaVuSans-48"/>
       <use x="127.246094" xlink:href="#DejaVuSans-48"/>
      </g>
     </g>
    </g>
    <g id="ytick_5">
     <g id="line2d_14">
      <g>
       <use style="stroke:#000000;stroke-width:0.8;" x="57.6" xlink:href="#me4f7977553" y="133.743216"/>
      </g>
     </g>
     <g id="text_15">
      <!-- 110 -->
      <g transform="translate(31.5125 137.542435)scale(0.1 -0.1)">
       <use xlink:href="#DejaVuSans-49"/>
       <use x="63.623047" xlink:href="#DejaVuSans-49"/>
       <use x="127.246094" xlink:href="#DejaVuSans-48"/>
      </g>
     </g>
    </g>
    <g id="ytick_6">
     <g id="line2d_15">
      <g>
       <use style="stroke:#000000;stroke-width:0.8;" x="57.6" xlink:href="#me4f7977553" y="98.884427"/>
      </g>
     </g>
     <g id="text_16">
      <!-- 120 -->
      <g transform="translate(31.5125 102.683645)scale(0.1 -0.1)">
       <use xlink:href="#DejaVuSans-49"/>
       <use x="63.623047" xlink:href="#DejaVuSans-50"/>
       <use x="127.246094" xlink:href="#DejaVuSans-48"/>
      </g>
     </g>
    </g>
    <g id="ytick_7">
     <g id="line2d_16">
      <g>
       <use style="stroke:#000000;stroke-width:0.8;" x="57.6" xlink:href="#me4f7977553" y="64.025637"/>
      </g>
     </g>
     <g id="text_17">
      <!-- 130 -->
      <g transform="translate(31.5125 67.824856)scale(0.1 -0.1)">
       <defs>
        <path d="M 40.578125 39.3125 
Q 47.65625 37.796875 51.625 33 
Q 55.609375 28.21875 55.609375 21.1875 
Q 55.609375 10.40625 48.1875 4.484375 
Q 40.765625 -1.421875 27.09375 -1.421875 
Q 22.515625 -1.421875 17.65625 -0.515625 
Q 12.796875 0.390625 7.625 2.203125 
L 7.625 11.71875 
Q 11.71875 9.328125 16.59375 8.109375 
Q 21.484375 6.890625 26.8125 6.890625 
Q 36.078125 6.890625 40.9375 10.546875 
Q 45.796875 14.203125 45.796875 21.1875 
Q 45.796875 27.640625 41.28125 31.265625 
Q 36.765625 34.90625 28.71875 34.90625 
L 20.21875 34.90625 
L 20.21875 43.015625 
L 29.109375 43.015625 
Q 36.375 43.015625 40.234375 45.921875 
Q 44.09375 48.828125 44.09375 54.296875 
Q 44.09375 59.90625 40.109375 62.90625 
Q 36.140625 65.921875 28.71875 65.921875 
Q 24.65625 65.921875 20.015625 65.03125 
Q 15.375 64.15625 9.8125 62.3125 
L 9.8125 71.09375 
Q 15.4375 72.65625 20.34375 73.4375 
Q 25.25 74.21875 29.59375 74.21875 
Q 40.828125 74.21875 47.359375 69.109375 
Q 53.90625 64.015625 53.90625 55.328125 
Q 53.90625 49.265625 50.4375 45.09375 
Q 46.96875 40.921875 40.578125 39.3125 
z
" id="DejaVuSans-51"/>
       </defs>
       <use xlink:href="#DejaVuSans-49"/>
       <use x="63.623047" xlink:href="#DejaVuSans-51"/>
       <use x="127.246094" xlink:href="#DejaVuSans-48"/>
      </g>
     </g>
    </g>
    <g id="text_18">
     <!-- velocity dispersion [km/s] -->
     <g transform="translate(25.432812 238.900656)rotate(-90)scale(0.1 -0.1)">
      <defs>
       <path d="M 2.984375 54.6875 
L 12.5 54.6875 
L 29.59375 8.796875 
L 46.6875 54.6875 
L 56.203125 54.6875 
L 35.6875 0 
L 23.484375 0 
z
" id="DejaVuSans-118"/>
       <path d="M 48.78125 52.59375 
L 48.78125 44.1875 
Q 44.96875 46.296875 41.140625 47.34375 
Q 37.3125 48.390625 33.40625 48.390625 
Q 24.65625 48.390625 19.8125 42.84375 
Q 14.984375 37.3125 14.984375 27.296875 
Q 14.984375 17.28125 19.8125 11.734375 
Q 24.65625 6.203125 33.40625 6.203125 
Q 37.3125 6.203125 41.140625 7.25 
Q 44.96875 8.296875 48.78125 10.40625 
L 48.78125 2.09375 
Q 45.015625 0.34375 40.984375 -0.53125 
Q 36.96875 -1.421875 32.421875 -1.421875 
Q 20.0625 -1.421875 12.78125 6.34375 
Q 5.515625 14.109375 5.515625 27.296875 
Q 5.515625 40.671875 12.859375 48.328125 
Q 20.21875 56 33.015625 56 
Q 37.15625 56 41.109375 55.140625 
Q 45.0625 54.296875 48.78125 52.59375 
z
" id="DejaVuSans-99"/>
       <path d="M 32.171875 -5.078125 
Q 28.375 -14.84375 24.75 -17.8125 
Q 21.140625 -20.796875 15.09375 -20.796875 
L 7.90625 -20.796875 
L 7.90625 -13.28125 
L 13.1875 -13.28125 
Q 16.890625 -13.28125 18.9375 -11.515625 
Q 21 -9.765625 23.484375 -3.21875 
L 25.09375 0.875 
L 2.984375 54.6875 
L 12.5 54.6875 
L 29.59375 11.921875 
L 46.6875 54.6875 
L 56.203125 54.6875 
z
" id="DejaVuSans-121"/>
       <path d="M 45.40625 46.390625 
L 45.40625 75.984375 
L 54.390625 75.984375 
L 54.390625 0 
L 45.40625 0 
L 45.40625 8.203125 
Q 42.578125 3.328125 38.25 0.953125 
Q 33.9375 -1.421875 27.875 -1.421875 
Q 17.96875 -1.421875 11.734375 6.484375 
Q 5.515625 14.40625 5.515625 27.296875 
Q 5.515625 40.1875 11.734375 48.09375 
Q 17.96875 56 27.875 56 
Q 33.9375 56 38.25 53.625 
Q 42.578125 51.265625 45.40625 46.390625 
z
M 14.796875 27.296875 
Q 14.796875 17.390625 18.875 11.75 
Q 22.953125 6.109375 30.078125 6.109375 
Q 37.203125 6.109375 41.296875 11.75 
Q 45.40625 17.390625 45.40625 27.296875 
Q 45.40625 37.203125 41.296875 42.84375 
Q 37.203125 48.484375 30.078125 48.484375 
Q 22.953125 48.484375 18.875 42.84375 
Q 14.796875 37.203125 14.796875 27.296875 
z
" id="DejaVuSans-100"/>
       <path d="M 44.28125 53.078125 
L 44.28125 44.578125 
Q 40.484375 46.53125 36.375 47.5 
Q 32.28125 48.484375 27.875 48.484375 
Q 21.1875 48.484375 17.84375 46.4375 
Q 14.5 44.390625 14.5 40.28125 
Q 14.5 37.15625 16.890625 35.375 
Q 19.28125 33.59375 26.515625 31.984375 
L 29.59375 31.296875 
Q 39.15625 29.25 43.1875 25.515625 
Q 47.21875 21.78125 47.21875 15.09375 
Q 47.21875 7.46875 41.1875 3.015625 
Q 35.15625 -1.421875 24.609375 -1.421875 
Q 20.21875 -1.421875 15.453125 -0.5625 
Q 10.6875 0.296875 5.421875 2 
L 5.421875 11.28125 
Q 10.40625 8.6875 15.234375 7.390625 
Q 20.0625 6.109375 24.8125 6.109375 
Q 31.15625 6.109375 34.5625 8.28125 
Q 37.984375 10.453125 37.984375 14.40625 
Q 37.984375 18.0625 35.515625 20.015625 
Q 33.0625 21.96875 24.703125 23.78125 
L 21.578125 24.515625 
Q 13.234375 26.265625 9.515625 29.90625 
Q 5.8125 33.546875 5.8125 39.890625 
Q 5.8125 47.609375 11.28125 51.796875 
Q 16.75 56 26.8125 56 
Q 31.78125 56 36.171875 55.265625 
Q 40.578125 54.546875 44.28125 53.078125 
z
" id="DejaVuSans-115"/>
       <path d="M 18.109375 8.203125 
L 18.109375 -20.796875 
L 9.078125 -20.796875 
L 9.078125 54.6875 
L 18.109375 54.6875 
L 18.109375 46.390625 
Q 20.953125 51.265625 25.265625 53.625 
Q 29.59375 56 35.59375 56 
Q 45.5625 56 51.78125 48.09375 
Q 58.015625 40.1875 58.015625 27.296875 
Q 58.015625 14.40625 51.78125 6.484375 
Q 45.5625 -1.421875 35.59375 -1.421875 
Q 29.59375 -1.421875 25.265625 0.953125 
Q 20.953125 3.328125 18.109375 8.203125 
z
M 48.6875 27.296875 
Q 48.6875 37.203125 44.609375 42.84375 
Q 40.53125 48.484375 33.40625 48.484375 
Q 26.265625 48.484375 22.1875 42.84375 
Q 18.109375 37.203125 18.109375 27.296875 
Q 18.109375 17.390625 22.1875 11.75 
Q 26.265625 6.109375 33.40625 6.109375 
Q 40.53125 6.109375 44.609375 11.75 
Q 48.6875 17.390625 48.6875 27.296875 
z
" id="DejaVuSans-112"/>
       <path d="M 41.109375 46.296875 
Q 39.59375 47.171875 37.8125 47.578125 
Q 36.03125 48 33.890625 48 
Q 26.265625 48 22.1875 43.046875 
Q 18.109375 38.09375 18.109375 28.8125 
L 18.109375 0 
L 9.078125 0 
L 9.078125 54.6875 
L 18.109375 54.6875 
L 18.109375 46.1875 
Q 20.953125 51.171875 25.484375 53.578125 
Q 30.03125 56 36.53125 56 
Q 37.453125 56 38.578125 55.875 
Q 39.703125 55.765625 41.0625 55.515625 
z
" id="DejaVuSans-114"/>
       <path d="M 9.078125 75.984375 
L 18.109375 75.984375 
L 18.109375 31.109375 
L 44.921875 54.6875 
L 56.390625 54.6875 
L 27.390625 29.109375 
L 57.625 0 
L 45.90625 0 
L 18.109375 26.703125 
L 18.109375 0 
L 9.078125 0 
z
" id="DejaVuSans-107"/>
       <path d="M 52 44.1875 
Q 55.375 50.25 60.0625 53.125 
Q 64.75 56 71.09375 56 
Q 79.640625 56 84.28125 50.015625 
Q 88.921875 44.046875 88.921875 33.015625 
L 88.921875 0 
L 79.890625 0 
L 79.890625 32.71875 
Q 79.890625 40.578125 77.09375 44.375 
Q 74.3125 48.1875 68.609375 48.1875 
Q 61.625 48.1875 57.5625 43.546875 
Q 53.515625 38.921875 53.515625 30.90625 
L 53.515625 0 
L 44.484375 0 
L 44.484375 32.71875 
Q 44.484375 40.625 41.703125 44.40625 
Q 38.921875 48.1875 33.109375 48.1875 
Q 26.21875 48.1875 22.15625 43.53125 
Q 18.109375 38.875 18.109375 30.90625 
L 18.109375 0 
L 9.078125 0 
L 9.078125 54.6875 
L 18.109375 54.6875 
L 18.109375 46.1875 
Q 21.1875 51.21875 25.484375 53.609375 
Q 29.78125 56 35.6875 56 
Q 41.65625 56 45.828125 52.96875 
Q 50 49.953125 52 44.1875 
z
" id="DejaVuSans-109"/>
       <path d="M 25.390625 72.90625 
L 33.6875 72.90625 
L 8.296875 -9.28125 
L 0 -9.28125 
z
" id="DejaVuSans-47"/>
      </defs>
      <use xlink:href="#DejaVuSans-118"/>
      <use x="59.179688" xlink:href="#DejaVuSans-101"/>
      <use x="120.703125" xlink:href="#DejaVuSans-108"/>
      <use x="148.486328" xlink:href="#DejaVuSans-111"/>
      <use x="209.667969" xlink:href="#DejaVuSans-99"/>
      <use x="264.648438" xlink:href="#DejaVuSans-105"/>
      <use x="292.431641" xlink:href="#DejaVuSans-116"/>
      <use x="331.640625" xlink:href="#DejaVuSans-121"/>
      <use x="390.820312" xlink:href="#DejaVuSans-32"/>
      <use x="422.607422" xlink:href="#DejaVuSans-100"/>
      <use x="486.083984" xlink:href="#DejaVuSans-105"/>
      <use x="513.867188" xlink:href="#DejaVuSans-115"/>
      <use x="565.966797" xlink:href="#DejaVuSans-112"/>
      <use x="629.443359" xlink:href="#DejaVuSans-101"/>
      <use x="690.966797" xlink:href="#DejaVuSans-114"/>
      <use x="732.080078" xlink:href="#DejaVuSans-115"/>
      <use x="784.179688" xlink:href="#DejaVuSans-105"/>
      <use x="811.962891" xlink:href="#DejaVuSans-111"/>
      <use x="873.144531" xlink:href="#DejaVuSans-110"/>
      <use x="936.523438" xlink:href="#DejaVuSans-32"/>
      <use x="968.310547" xlink:href="#DejaVuSans-91"/>
      <use x="1007.324219" xlink:href="#DejaVuSans-107"/>
      <use x="1065.234375" xlink:href="#DejaVuSans-109"/>
      <use x="1162.646484" xlink:href="#DejaVuSans-47"/>
      <use x="1196.337891" xlink:href="#DejaVuSans-115"/>
      <use x="1248.4375" xlink:href="#DejaVuSans-93"/>
     </g>
    </g>
   </g>
   <g id="LineCollection_1">
    <path clip-path="url(#p734c65fa19)" d="M 73.832727 247.034282 
L 73.832727 201.02068 
" style="fill:none;stroke:#ff0000;stroke-width:1.5;"/>
   </g>
   <g id="LineCollection_2">
    <path clip-path="url(#p734c65fa19)" d="M 90.065455 259.583447 
L 90.065455 219.147251 
" style="fill:none;stroke:#ff0000;stroke-width:1.5;"/>
   </g>
   <g id="LineCollection_3">
    <path clip-path="url(#p734c65fa19)" d="M 106.298182 237.273821 
L 106.298182 191.957395 
" style="fill:none;stroke:#ff0000;stroke-width:1.5;"/>
   </g>
   <g id="LineCollection_4">
    <path clip-path="url(#p734c65fa19)" d="M 122.530909 239.365349 
L 122.530909 197.534801 
" style="fill:none;stroke:#ff0000;stroke-width:1.5;"/>
   </g>
   <g id="LineCollection_5">
    <path clip-path="url(#p734c65fa19)" d="M 138.763636 230.302063 
L 138.763636 186.379988 
" style="fill:none;stroke:#ff0000;stroke-width:1.5;"/>
   </g>
   <g id="LineCollection_6">
    <path clip-path="url(#p734c65fa19)" d="M 154.996364 224.724657 
L 154.996364 180.105406 
" style="fill:none;stroke:#ff0000;stroke-width:1.5;"/>
   </g>
   <g id="LineCollection_7">
    <path clip-path="url(#p734c65fa19)" d="M 171.229091 203.809383 
L 171.229091 157.795781 
" style="fill:none;stroke:#ff0000;stroke-width:1.5;"/>
   </g>
   <g id="LineCollection_8">
    <path clip-path="url(#p734c65fa19)" d="M 187.461818 153.612726 
L 187.461818 100.627366 
" style="fill:none;stroke:#ff0000;stroke-width:1.5;"/>
   </g>
   <g id="LineCollection_9">
    <path clip-path="url(#p734c65fa19)" d="M 203.694545 150.824023 
L 203.694545 97.141487 
" style="fill:none;stroke:#ff0000;stroke-width:1.5;"/>
   </g>
   <g id="LineCollection_10">
    <path clip-path="url(#p734c65fa19)" d="M 219.927273 130.257337 
L 219.927273 73.786098 
" style="fill:none;stroke:#ff0000;stroke-width:1.5;"/>
   </g>
   <g id="LineCollection_11">
    <path clip-path="url(#p734c65fa19)" d="M 236.16 112.130767 
L 236.16 53.568 
" style="fill:none;stroke:#ff0000;stroke-width:1.5;"/>
   </g>
   <g id="LineCollection_12">
    <path clip-path="url(#p734c65fa19)" d="M 252.392727 163.721775 
L 252.392727 93.30702 
" style="fill:none;stroke:#ff0000;stroke-width:1.5;"/>
   </g>
   <g id="LineCollection_13">
    <path clip-path="url(#p734c65fa19)" d="M 268.625455 139.66921 
L 268.625455 83.895147 
" style="fill:none;stroke:#ff0000;stroke-width:1.5;"/>
   </g>
   <g id="LineCollection_14">
    <path clip-path="url(#p734c65fa19)" d="M 284.858182 176.968115 
L 284.858182 127.468634 
" style="fill:none;stroke:#ff0000;stroke-width:1.5;"/>
   </g>
   <g id="LineCollection_15">
    <path clip-path="url(#p734c65fa19)" d="M 301.090909 173.133648 
L 301.090909 121.54264 
" style="fill:none;stroke:#ff0000;stroke-width:1.5;"/>
   </g>
   <g id="LineCollection_16">
    <path clip-path="url(#p734c65fa19)" d="M 317.323636 209.038202 
L 317.323636 164.418951 
" style="fill:none;stroke:#ff0000;stroke-width:1.5;"/>
   </g>
   <g id="LineCollection_17">
    <path clip-path="url(#p734c65fa19)" d="M 333.556364 230.650651 
L 333.556364 188.820104 
" style="fill:none;stroke:#ff0000;stroke-width:1.5;"/>
   </g>
   <g id="LineCollection_18">
    <path clip-path="url(#p734c65fa19)" d="M 349.789091 220.89019 
L 349.789091 174.179412 
" style="fill:none;stroke:#ff0000;stroke-width:1.5;"/>
   </g>
   <g id="LineCollection_19">
    <path clip-path="url(#p734c65fa19)" d="M 366.021818 230.650651 
L 366.021818 188.820104 
" style="fill:none;stroke:#ff0000;stroke-width:1.5;"/>
   </g>
   <g id="LineCollection_20">
    <path clip-path="url(#p734c65fa19)" d="M 382.254545 265.858029 
L 382.254545 226.119009 
" style="fill:none;stroke:#ff0000;stroke-width:1.5;"/>
   </g>
   <g id="LineCollection_21">
    <path clip-path="url(#p734c65fa19)" d="M 398.487273 235.530882 
L 398.487273 192.305983 
" style="fill:none;stroke:#ff0000;stroke-width:1.5;"/>
   </g>
   <g id="LineCollection_22">
    <path clip-path="url(#p734c65fa19)" d="M 73.832727 283.392 
L 73.832727 248.393775 
" style="fill:none;stroke:#008000;stroke-width:1.5;"/>
   </g>
   <g id="LineCollection_23">
    <path clip-path="url(#p734c65fa19)" d="M 90.065455 248.428634 
L 90.065455 207.92272 
" style="fill:none;stroke:#008000;stroke-width:1.5;"/>
   </g>
   <g id="LineCollection_24">
    <path clip-path="url(#p734c65fa19)" d="M 106.298182 275.269902 
L 106.298182 239.435066 
" style="fill:none;stroke:#008000;stroke-width:1.5;"/>
   </g>
   <g id="LineCollection_25">
    <path clip-path="url(#p734c65fa19)" d="M 122.530909 197.743954 
L 122.530909 149.917695 
" style="fill:none;stroke:#008000;stroke-width:1.5;"/>
   </g>
   <g id="LineCollection_26">
    <path clip-path="url(#p734c65fa19)" d="M 138.763636 241.3523 
L 138.763636 198.475988 
" style="fill:none;stroke:#008000;stroke-width:1.5;"/>
   </g>
   <g id="LineCollection_27">
    <path clip-path="url(#p734c65fa19)" d="M 154.996364 232.602744 
L 154.996364 191.051066 
" style="fill:none;stroke:#008000;stroke-width:1.5;"/>
   </g>
   <g id="LineCollection_28">
    <path clip-path="url(#p734c65fa19)" d="M 171.229091 229.604888 
L 171.229091 188.401798 
" style="fill:none;stroke:#008000;stroke-width:1.5;"/>
   </g>
   <g id="LineCollection_29">
    <path clip-path="url(#p734c65fa19)" d="M 187.461818 234.659412 
L 187.461818 193.595758 
" style="fill:none;stroke:#008000;stroke-width:1.5;"/>
   </g>
   <g id="LineCollection_30">
    <path clip-path="url(#p734c65fa19)" d="M 203.694545 227.025337 
L 203.694545 184.846202 
" style="fill:none;stroke:#008000;stroke-width:1.5;"/>
   </g>
   <g id="LineCollection_31">
    <path clip-path="url(#p734c65fa19)" d="M 219.927273 201.369268 
L 219.927273 155.704254 
" style="fill:none;stroke:#008000;stroke-width:1.5;"/>
   </g>
   <g id="LineCollection_32">
    <path clip-path="url(#p734c65fa19)" d="M 236.16 222.04053 
L 236.16 179.164219 
" style="fill:none;stroke:#008000;stroke-width:1.5;"/>
   </g>
   <g id="LineCollection_33">
    <path clip-path="url(#p734c65fa19)" d="M 252.392727 201.89215 
L 252.392727 156.715159 
" style="fill:none;stroke:#008000;stroke-width:1.5;"/>
   </g>
   <g id="LineCollection_34">
    <path clip-path="url(#p734c65fa19)" d="M 268.625455 233.997095 
L 268.625455 193.072876 
" style="fill:none;stroke:#008000;stroke-width:1.5;"/>
   </g>
   <g id="LineCollection_35">
    <path clip-path="url(#p734c65fa19)" d="M 284.858182 204.994582 
L 284.858182 160.723919 
" style="fill:none;stroke:#008000;stroke-width:1.5;"/>
   </g>
   <g id="LineCollection_36">
    <path clip-path="url(#p734c65fa19)" d="M 301.090909 234.101671 
L 301.090909 193.735193 
" style="fill:none;stroke:#008000;stroke-width:1.5;"/>
   </g>
   <g id="LineCollection_37">
    <path clip-path="url(#p734c65fa19)" d="M 317.323636 229.988334 
L 317.323636 188.227504 
" style="fill:none;stroke:#008000;stroke-width:1.5;"/>
   </g>
   <g id="LineCollection_38">
    <path clip-path="url(#p734c65fa19)" d="M 333.556364 244.768461 
L 333.556364 203.774524 
" style="fill:none;stroke:#008000;stroke-width:1.5;"/>
   </g>
   <g id="LineCollection_39">
    <path clip-path="url(#p734c65fa19)" d="M 349.789091 230.68551 
L 349.789091 189.482421 
" style="fill:none;stroke:#008000;stroke-width:1.5;"/>
   </g>
   <g id="LineCollection_40">
    <path clip-path="url(#p734c65fa19)" d="M 366.021818 241.526594 
L 366.021818 201.090398 
" style="fill:none;stroke:#008000;stroke-width:1.5;"/>
   </g>
   <g id="LineCollection_41">
    <path clip-path="url(#p734c65fa19)" d="M 382.254545 245.500496 
L 382.254545 206.388934 
" style="fill:none;stroke:#008000;stroke-width:1.5;"/>
   </g>
   <g id="LineCollection_42">
    <path clip-path="url(#p734c65fa19)" d="M 398.487273 232.323873 
L 398.487273 189.865867 
" style="fill:none;stroke:#008000;stroke-width:1.5;"/>
   </g>
   <g id="LineCollection_43">
    <path clip-path="url(#p734c65fa19)" d="M 73.832727 285.378951 
L 73.832727 249.822986 
" style="fill:none;stroke:#0000ff;stroke-width:1.5;"/>
   </g>
   <g id="LineCollection_44">
    <path clip-path="url(#p734c65fa19)" d="M 90.065455 241.805464 
L 90.065455 200.672092 
" style="fill:none;stroke:#0000ff;stroke-width:1.5;"/>
   </g>
   <g id="LineCollection_45">
    <path clip-path="url(#p734c65fa19)" d="M 106.298182 248.080046 
L 106.298182 206.946674 
" style="fill:none;stroke:#0000ff;stroke-width:1.5;"/>
   </g>
   <g id="LineCollection_46">
    <path clip-path="url(#p734c65fa19)" d="M 122.530909 272.132611 
L 122.530909 235.182294 
" style="fill:none;stroke:#0000ff;stroke-width:1.5;"/>
   </g>
   <g id="LineCollection_47">
    <path clip-path="url(#p734c65fa19)" d="M 138.763636 233.090767 
L 138.763636 187.77434 
" style="fill:none;stroke:#0000ff;stroke-width:1.5;"/>
   </g>
   <g id="LineCollection_48">
    <path clip-path="url(#p734c65fa19)" d="M 154.996364 255.400392 
L 154.996364 217.055723 
" style="fill:none;stroke:#0000ff;stroke-width:1.5;"/>
   </g>
   <g id="LineCollection_49">
    <path clip-path="url(#p734c65fa19)" d="M 171.229091 280.847308 
L 171.229091 244.594167 
" style="fill:none;stroke:#0000ff;stroke-width:1.5;"/>
   </g>
   <g id="LineCollection_50">
    <path clip-path="url(#p734c65fa19)" d="M 187.461818 242.851228 
L 187.461818 203.809383 
" style="fill:none;stroke:#0000ff;stroke-width:1.5;"/>
   </g>
   <g id="LineCollection_51">
    <path clip-path="url(#p734c65fa19)" d="M 203.694545 240.7597 
L 203.694545 198.929153 
" style="fill:none;stroke:#0000ff;stroke-width:1.5;"/>
   </g>
   <g id="LineCollection_52">
    <path clip-path="url(#p734c65fa19)" d="M 219.927273 251.565925 
L 219.927273 209.735378 
" style="fill:none;stroke:#0000ff;stroke-width:1.5;"/>
   </g>
   <g id="LineCollection_53">
    <path clip-path="url(#p734c65fa19)" d="M 236.16 231.347827 
L 236.16 188.122928 
" style="fill:none;stroke:#0000ff;stroke-width:1.5;"/>
   </g>
   <g id="LineCollection_54">
    <path clip-path="url(#p734c65fa19)" d="M 252.392727 272.132611 
L 252.392727 235.182294 
" style="fill:none;stroke:#0000ff;stroke-width:1.5;"/>
   </g>
   <g id="LineCollection_55">
    <path clip-path="url(#p734c65fa19)" d="M 268.625455 266.903793 
L 268.625455 229.2563 
" style="fill:none;stroke:#0000ff;stroke-width:1.5;"/>
   </g>
   <g id="LineCollection_56">
    <path clip-path="url(#p734c65fa19)" d="M 284.858182 223.678893 
L 284.858182 180.453994 
" style="fill:none;stroke:#0000ff;stroke-width:1.5;"/>
   </g>
   <g id="LineCollection_57">
    <path clip-path="url(#p734c65fa19)" d="M 301.090909 288.86483 
L 301.090909 254.703216 
" style="fill:none;stroke:#0000ff;stroke-width:1.5;"/>
   </g>
   <g id="LineCollection_58">
    <path clip-path="url(#p734c65fa19)" d="M 317.323636 221.238778 
L 317.323636 176.619527 
" style="fill:none;stroke:#0000ff;stroke-width:1.5;"/>
   </g>
   <g id="LineCollection_59">
    <path clip-path="url(#p734c65fa19)" d="M 333.556364 281.893072 
L 333.556364 245.639931 
" style="fill:none;stroke:#0000ff;stroke-width:1.5;"/>
   </g>
   <g id="LineCollection_60">
    <path clip-path="url(#p734c65fa19)" d="M 349.789091 270.041084 
L 349.789091 233.090767 
" style="fill:none;stroke:#0000ff;stroke-width:1.5;"/>
   </g>
   <g id="LineCollection_61">
    <path clip-path="url(#p734c65fa19)" d="M 366.021818 295.488 
L 366.021818 261.326386 
" style="fill:none;stroke:#0000ff;stroke-width:1.5;"/>
   </g>
   <g id="LineCollection_62">
    <path clip-path="url(#p734c65fa19)" d="M 382.254545 282.590248 
L 382.254545 248.428634 
" style="fill:none;stroke:#0000ff;stroke-width:1.5;"/>
   </g>
   <g id="LineCollection_63">
    <path clip-path="url(#p734c65fa19)" d="M 398.487273 279.104369 
L 398.487273 242.154052 
" style="fill:none;stroke:#0000ff;stroke-width:1.5;"/>
   </g>
   <g id="line2d_17">
    <path clip-path="url(#p734c65fa19)" d="M 73.832727 238.110432 
L 75.456 238.759154 
L 77.079273 234.708214 
L 78.702545 235.706222 
L 81.949091 232.299123 
L 83.572364 237.031204 
L 85.195636 233.207892 
L 86.818909 225.980619 
L 88.442182 228.333936 
L 90.065455 228.127921 
L 91.688727 227.007908 
L 93.312 223.438716 
L 94.935273 226.878582 
L 96.558545 216.995418 
L 98.181818 217.828194 
L 99.805091 223.156012 
L 101.428364 219.150039 
L 103.051636 218.067674 
L 104.674909 216.525521 
L 106.298182 213.321301 
L 107.921455 211.550126 
L 109.544727 212.056624 
L 111.168 208.383902 
L 112.791273 206.593903 
L 114.414545 205.194672 
L 116.037818 207.923418 
L 117.661091 207.22171 
L 119.284364 204.455665 
L 120.907636 202.039603 
L 122.530909 202.215988 
L 124.154182 198.206879 
L 125.777455 198.256727 
L 127.400727 194.291539 
L 129.024 196.331824 
L 130.647273 194.447707 
L 132.270545 188.390643 
L 133.893818 189.323813 
L 135.517091 189.207733 
L 137.140364 186.88823 
L 138.763636 188.828818 
L 140.386909 184.473561 
L 142.010182 184.344932 
L 143.633455 181.545423 
L 145.256727 179.159687 
L 146.88 178.134142 
L 148.503273 177.546423 
L 150.126545 175.822307 
L 151.749818 179.259732 
L 153.373091 172.188278 
L 154.996364 174.545429 
L 156.619636 170.453007 
L 158.242909 167.591101 
L 159.866182 168.836257 
L 161.489455 169.679142 
L 163.112727 166.698716 
L 164.736 161.881231 
L 166.359273 162.766644 
L 167.982545 162.881678 
L 169.605818 157.642402 
L 171.229091 160.633286 
L 172.852364 156.436288 
L 174.475636 157.007972 
L 176.098909 153.441918 
L 177.722182 152.93298 
L 179.345455 151.329476 
L 182.592 154.090292 
L 184.215273 147.693704 
L 185.838545 145.124611 
L 187.461818 149.520304 
L 189.085091 147.51941 
L 190.708364 143.35727 
L 192.331636 141.359862 
L 193.954909 139.829561 
L 195.578182 137.90187 
L 197.201455 140.861381 
L 198.824727 139.72847 
L 200.448 140.450047 
L 202.071273 136.716671 
L 203.694545 136.824733 
L 205.317818 136.228648 
L 206.941091 132.66608 
L 208.564364 132.063022 
L 210.187636 133.290052 
L 211.810909 131.871299 
L 213.434182 129.270833 
L 215.057455 129.758856 
L 216.680727 128.242499 
L 218.304 130.309625 
L 219.927273 129.016364 
L 221.550545 126.144 
L 223.173818 128.671262 
L 224.797091 129.525303 
L 226.420364 123.933953 
L 228.043636 125.526999 
L 229.666909 129.030308 
L 231.290182 132.024678 
L 232.913455 125.92439 
L 234.536727 126.551848 
L 236.16 128.158838 
L 237.783273 125.063378 
L 239.406545 128.545771 
L 241.029818 128.2669 
L 242.653091 128.197183 
L 244.276364 124.568383 
L 245.899636 128.573658 
L 247.522909 127.402402 
L 249.146182 127.974086 
L 250.769455 128.117007 
L 252.392727 129.13837 
L 254.016 130.386315 
L 255.639273 130.278252 
L 257.262545 134.126663 
L 258.885818 133.439945 
L 260.509091 129.720512 
L 263.755636 135.08528 
L 265.378909 135.974179 
L 267.002182 133.070441 
L 268.625455 137.528881 
L 270.248727 138.724537 
L 271.872 136.068297 
L 273.495273 136.441286 
L 275.118545 140.415188 
L 276.741818 139.951567 
L 278.365091 142.367281 
L 279.988364 140.157233 
L 281.611636 144.375147 
L 283.234909 144.755108 
L 284.858182 147.655359 
L 286.481455 147.955145 
L 288.104727 150.325542 
L 289.728 150.677616 
L 291.351273 147.184765 
L 292.974545 151.224899 
L 294.597818 156.052841 
L 296.221091 154.166981 
L 297.844364 159.531749 
L 299.467636 156.174847 
L 301.090909 159.343511 
L 302.714182 158.726511 
L 304.337455 161.278174 
L 305.960727 159.688613 
L 307.584 164.882573 
L 309.207273 165.492602 
L 310.830545 166.782377 
L 312.453818 166.775405 
L 314.077091 165.095212 
L 315.700364 168.162785 
L 317.323636 169.6279 
L 318.946909 170.288474 
L 320.570182 175.287573 
L 322.193455 176.009847 
L 323.816727 174.527303 
L 325.44 178.688397 
L 327.063273 181.857758 
L 328.686545 181.979763 
L 330.309818 186.748794 
L 331.933091 183.304746 
L 333.556364 184.470075 
L 335.179636 184.38502 
L 336.802909 190.52679 
L 338.426182 191.914867 
L 340.049455 190.040859 
L 341.672727 194.649539 
L 343.296 194.52579 
L 344.919273 197.190396 
L 346.542545 198.353286 
L 348.165818 199.05081 
L 349.789091 201.767704 
L 351.412364 200.700328 
L 353.035636 201.969885 
L 354.658909 200.830003 
L 356.282182 205.076152 
L 357.905455 205.515024 
L 359.528727 209.738515 
L 361.152 208.983473 
L 362.775273 210.439176 
L 364.398545 210.970076 
L 366.021818 213.211496 
L 367.645091 215.73841 
L 369.268364 216.29127 
L 370.891636 219.688608 
L 372.514909 220.143864 
L 375.761455 223.556888 
L 377.384727 228.554244 
L 379.008 221.546233 
L 380.631273 228.41202 
L 382.254545 224.879779 
L 383.877818 230.146942 
L 385.501091 230.866776 
L 387.124364 234.557624 
L 388.747636 237.642627 
L 390.370909 231.472622 
L 391.994182 239.287614 
L 393.617455 233.082052 
L 395.240727 233.400313 
L 396.864 236.991117 
L 398.487273 241.780366 
L 398.487273 241.780366 
" style="fill:none;stroke:#ff0000;stroke-linecap:square;stroke-width:1.5;"/>
   </g>
   <g id="line2d_18">
    <path clip-path="url(#p734c65fa19)" d="M 73.832727 247.517077 
L 75.456 255.545056 
L 77.079273 248.812081 
L 78.702545 247.24483 
L 80.325818 250.943347 
L 81.949091 243.045043 
L 83.572364 241.573653 
L 85.195636 243.525745 
L 88.442182 242.311962 
L 90.065455 239.276459 
L 91.688727 238.335969 
L 93.312 237.869558 
L 94.935273 232.62575 
L 96.558545 232.664792 
L 98.181818 235.679729 
L 99.805091 235.805569 
L 103.051636 228.92305 
L 104.674909 230.538755 
L 106.298182 232.945057 
L 107.921455 230.154959 
L 109.544727 226.530691 
L 111.168 227.65175 
L 112.791273 222.215521 
L 114.414545 221.476166 
L 117.661091 224.340862 
L 119.284364 219.928088 
L 120.907636 217.302872 
L 122.530909 218.293559 
L 124.154182 219.455402 
L 125.777455 215.283502 
L 127.400727 212.155275 
L 129.024 216.015188 
L 130.647273 215.538669 
L 132.270545 215.268862 
L 133.893818 211.870478 
L 135.517091 213.621087 
L 137.140364 206.974561 
L 138.763636 207.877753 
L 140.386909 208.550527 
L 142.010182 202.552724 
L 143.633455 203.362494 
L 145.256727 204.52852 
L 146.88 204.217928 
L 148.503273 200.098317 
L 150.126545 202.255727 
L 151.749818 200.865907 
L 153.373091 195.426193 
L 154.996364 194.435506 
L 156.619636 196.930001 
L 158.242909 191.516083 
L 159.866182 192.10171 
L 161.489455 194.488492 
L 163.112727 195.038215 
L 164.736 190.924529 
L 166.359273 189.333922 
L 167.982545 185.490392 
L 169.605818 187.453639 
L 171.229091 185.166205 
L 172.852364 186.600993 
L 174.475636 186.710101 
L 176.098909 183.754773 
L 177.722182 183.346925 
L 179.345455 178.723953 
L 182.592 183.675644 
L 184.215273 179.456336 
L 185.838545 176.738744 
L 187.461818 173.542891 
L 189.085091 180.864282 
L 192.331636 173.987689 
L 193.954909 174.682424 
L 195.578182 173.267855 
L 197.201455 171.631235 
L 198.824727 173.404153 
L 200.448 171.392452 
L 202.071273 172.064181 
L 203.694545 172.589503 
L 205.317818 170.868873 
L 206.941091 171.474719 
L 208.564364 169.702498 
L 210.187636 169.376568 
L 211.810909 172.670027 
L 213.434182 167.054276 
L 215.057455 169.057262 
L 218.304 167.029874 
L 219.927273 168.935604 
L 221.550545 167.029874 
L 223.173818 168.424226 
L 224.797091 166.318755 
L 226.420364 164.872115 
L 228.043636 167.517897 
L 229.666909 163.062944 
L 231.290182 164.795426 
L 232.913455 164.150538 
L 234.536727 164.812855 
L 236.16 165.346195 
L 237.783273 163.603255 
L 241.029818 166.168862 
L 242.653091 164.994121 
L 244.276364 165.245104 
L 245.899636 168.225531 
L 247.522909 163.547481 
L 249.146182 167.479553 
L 250.769455 164.37712 
L 252.392727 166.93227 
L 254.016 168.462571 
L 255.639273 166.200235 
L 257.262545 167.266914 
L 258.885818 172.827937 
L 260.509091 168.295248 
L 262.132364 164.697821 
L 263.755636 167.015931 
L 265.378909 165.914393 
L 267.002182 167.252971 
L 268.625455 166.22115 
L 271.872 171.988189 
L 273.495273 169.070159 
L 275.118545 170.128821 
L 276.741818 173.184194 
L 278.365091 175.941873 
L 279.988364 171.312277 
L 281.611636 173.219052 
L 283.234909 174.051829 
L 284.858182 175.403653 
L 286.481455 176.09804 
L 288.104727 179.453198 
L 289.728 178.825392 
L 291.351273 183.233286 
L 292.974545 180.971996 
L 294.597818 181.169994 
L 296.221091 184.139265 
L 297.844364 186.100421 
L 299.467636 182.367742 
L 301.090909 188.400404 
L 302.714182 183.662746 
L 305.960727 191.244184 
L 307.584 189.886086 
L 309.207273 190.253846 
L 310.830545 194.259469 
L 312.453818 193.973279 
L 314.077091 198.199558 
L 315.700364 193.559853 
L 317.323636 197.017148 
L 318.946909 194.380778 
L 320.570182 199.251597 
L 322.193455 198.531414 
L 323.816727 200.935625 
L 325.44 200.956889 
L 327.063273 206.148408 
L 328.686545 203.835179 
L 330.309818 203.601276 
L 331.933091 203.497397 
L 333.556364 208.057624 
L 335.179636 211.74917 
L 336.802909 206.708937 
L 338.426182 211.464722 
L 340.049455 211.722677 
L 341.672727 212.596587 
L 343.296 213.070318 
L 344.919273 217.188187 
L 346.542545 219.24381 
L 348.165818 216.785568 
L 349.789091 215.553658 
L 351.412364 217.321347 
L 353.035636 222.983809 
L 354.658909 222.789994 
L 356.282182 223.915933 
L 357.905455 221.485927 
L 359.528727 222.917229 
L 361.152 228.352411 
L 362.775273 223.986696 
L 364.398545 229.246191 
L 366.021818 226.453653 
L 367.645091 233.099481 
L 369.268364 226.314218 
L 370.891636 231.698158 
L 372.514909 236.008099 
L 374.138182 235.275367 
L 375.761455 233.642233 
L 377.384727 239.659557 
L 379.008 237.15809 
L 380.631273 240.30305 
L 382.254545 238.852576 
L 383.877818 243.320776 
L 385.501091 243.573502 
L 387.124364 240.22915 
L 388.747636 245.745204 
L 390.370909 244.564189 
L 391.994182 244.787982 
L 393.617455 244.305885 
L 395.240727 252.20907 
L 396.864 252.592865 
L 398.487273 248.312554 
L 398.487273 248.312554 
" style="fill:none;stroke:#008000;stroke-linecap:square;stroke-width:1.5;"/>
   </g>
   <g id="line2d_19">
    <path clip-path="url(#p734c65fa19)" d="M 73.832727 264.798322 
L 75.456 260.270862 
L 77.079273 255.374596 
L 78.702545 262.86331 
L 80.325818 254.474891 
L 81.949091 261.07366 
L 83.572364 262.676467 
L 85.195636 260.203933 
L 86.818909 256.662629 
L 88.442182 255.811726 
L 90.065455 257.130782 
L 91.688727 257.344118 
L 93.312 256.643805 
L 94.935273 256.956488 
L 96.558545 250.731406 
L 98.181818 251.398951 
L 99.805091 249.737582 
L 101.428364 247.687885 
L 103.051636 250.064557 
L 104.674909 245.224414 
L 106.298182 246.098673 
L 107.921455 244.434165 
L 109.544727 242.02124 
L 111.168 243.46544 
L 112.791273 246.666174 
L 114.414545 238.696757 
L 116.037818 239.252755 
L 117.661091 239.664089 
L 119.284364 242.995543 
L 120.907636 234.649652 
L 122.530909 237.584762 
L 124.154182 234.425161 
L 125.777455 234.989873 
L 127.400727 234.757714 
L 129.024 230.290211 
L 130.647273 233.426457 
L 132.270545 231.751143 
L 133.893818 232.061735 
L 135.517091 231.207695 
L 137.140364 229.283141 
L 138.763636 231.537459 
L 140.386909 233.078915 
L 142.010182 232.118555 
L 143.633455 228.36252 
L 145.256727 224.236285 
L 146.88 226.059052 
L 148.503273 220.288527 
L 150.126545 227.310133 
L 151.749818 221.272591 
L 153.373091 222.534828 
L 154.996364 219.548824 
L 156.619636 222.188332 
L 158.242909 217.134504 
L 159.866182 218.377917 
L 161.489455 218.251728 
L 163.112727 215.206465 
L 164.736 218.062794 
L 166.359273 214.656741 
L 167.982545 213.5315 
L 169.605818 213.341171 
L 171.229091 213.402522 
L 172.852364 212.433448 
L 174.475636 212.224295 
L 176.098909 209.629755 
L 177.722182 212.185253 
L 179.345455 209.773374 
L 180.968727 212.228478 
L 182.592 209.223999 
L 184.215273 203.9286 
L 185.838545 209.854246 
L 187.461818 203.12894 
L 189.085091 212.892538 
L 190.708364 208.458849 
L 192.331636 209.05842 
L 193.954909 208.592358 
L 195.578182 207.260055 
L 197.201455 202.029842 
L 198.824727 202.081084 
L 200.448 200.35906 
L 202.071273 205.024909 
L 203.694545 202.07481 
L 205.317818 204.63972 
L 206.941091 204.20015 
L 208.564364 206.796084 
L 210.187636 204.25941 
L 211.810909 198.397556 
L 213.434182 203.110813 
L 215.057455 200.242981 
L 216.680727 203.17565 
L 218.304 201.185214 
L 219.927273 199.371859 
L 223.173818 203.369465 
L 224.797091 198.131235 
L 226.420364 201.882041 
L 228.043636 199.535696 
L 229.666909 198.69281 
L 231.290182 200.702419 
L 232.913455 199.919142 
L 234.536727 201.6823 
L 236.16 204.316927 
L 237.783273 196.321018 
L 239.406545 198.931941 
L 241.029818 199.187805 
L 242.653091 198.090799 
L 244.276364 200.060669 
L 245.899636 200.312001 
L 247.522909 198.540129 
L 249.146182 201.586438 
L 250.769455 197.918248 
L 252.392727 199.91984 
L 254.016 198.547798 
L 255.639273 199.732648 
L 257.262545 203.915354 
L 258.885818 202.664272 
L 260.509091 198.743355 
L 262.132364 203.010768 
L 263.755636 200.417623 
L 265.378909 204.291132 
L 267.002182 203.522147 
L 268.625455 202.40074 
L 270.248727 200.067292 
L 271.872 203.558749 
L 273.495273 205.868841 
L 275.118545 201.559946 
L 276.741818 202.544358 
L 278.365091 204.855147 
L 279.988364 210.691554 
L 281.611636 203.63997 
L 283.234909 210.104881 
L 284.858182 208.945129 
L 286.481455 204.078145 
L 288.104727 212.044424 
L 289.728 211.516662 
L 291.351273 209.588971 
L 292.974545 212.746828 
L 294.597818 215.002541 
L 296.221091 210.75674 
L 297.844364 214.620837 
L 299.467636 211.758233 
L 301.090909 215.434092 
L 302.714182 218.530947 
L 304.337455 215.132913 
L 305.960727 213.765751 
L 307.584 213.958868 
L 309.207273 217.313678 
L 310.830545 221.813251 
L 312.453818 221.653946 
L 314.077091 219.760068 
L 315.700364 221.242613 
L 317.323636 218.948207 
L 318.946909 220.764699 
L 320.570182 219.932619 
L 322.193455 227.522075 
L 323.816727 221.651506 
L 325.44 225.900095 
L 327.063273 224.682827 
L 328.686545 225.316211 
L 330.309818 226.895314 
L 331.933091 226.318401 
L 333.556364 226.292257 
L 335.179636 226.734615 
L 336.802909 235.428397 
L 338.426182 228.857167 
L 340.049455 234.639891 
L 341.672727 233.769467 
L 343.296 233.068806 
L 344.919273 238.650744 
L 346.542545 238.72813 
L 348.165818 231.246737 
L 349.789091 240.309673 
L 351.412364 238.943906 
L 353.035636 237.327155 
L 354.658909 241.526942 
L 356.282182 240.330937 
L 357.905455 243.570016 
L 359.528727 243.157636 
L 361.152 246.280287 
L 362.775273 244.154946 
L 364.398545 247.22496 
L 366.021818 239.548009 
L 367.645091 242.72469 
L 369.268364 249.080145 
L 370.891636 249.468123 
L 374.138182 253.118187 
L 375.761455 246.968748 
L 377.384727 250.224559 
L 379.008 254.863915 
L 380.631273 254.216239 
L 382.254545 252.131683 
L 383.877818 252.613432 
L 385.501091 253.392177 
L 387.124364 254.916901 
L 388.747636 258.62239 
L 390.370909 258.63459 
L 391.994182 261.784431 
L 393.617455 262.993682 
L 395.240727 266.820829 
L 396.864 261.517064 
L 398.487273 262.606052 
L 398.487273 262.606052 
" style="fill:none;stroke:#0000ff;stroke-linecap:square;stroke-width:1.5;"/>
   </g>
   <g id="line2d_20">
    <defs>
     <path d="M 0 3 
C 0.795609 3 1.55874 2.683901 2.12132 2.12132 
C 2.683901 1.55874 3 0.795609 3 0 
C 3 -0.795609 2.683901 -1.55874 2.12132 -2.12132 
C 1.55874 -2.683901 0.795609 -3 0 -3 
C -0.795609 -3 -1.55874 -2.683901 -2.12132 -2.12132 
C -2.683901 -1.55874 -3 -0.795609 -3 0 
C -3 0.795609 -2.683901 1.55874 -2.12132 2.12132 
C -1.55874 2.683901 -0.795609 3 0 3 
z
" id="ma9b3c1c0ad" style="stroke:#ff0000;"/>
    </defs>
    <g clip-path="url(#p734c65fa19)">
     <use style="fill:#ff0000;stroke:#ff0000;" x="73.832727" xlink:href="#ma9b3c1c0ad" y="224.027481"/>
    </g>
   </g>
   <g id="line2d_21">
    <g clip-path="url(#p734c65fa19)">
     <use style="fill:#ff0000;stroke:#ff0000;" x="90.065455" xlink:href="#ma9b3c1c0ad" y="239.365349"/>
    </g>
   </g>
   <g id="line2d_22">
    <g clip-path="url(#p734c65fa19)">
     <use style="fill:#ff0000;stroke:#ff0000;" x="106.298182" xlink:href="#ma9b3c1c0ad" y="214.615608"/>
    </g>
   </g>
   <g id="line2d_23">
    <g clip-path="url(#p734c65fa19)">
     <use style="fill:#ff0000;stroke:#ff0000;" x="122.530909" xlink:href="#ma9b3c1c0ad" y="218.450075"/>
    </g>
   </g>
   <g id="line2d_24">
    <g clip-path="url(#p734c65fa19)">
     <use style="fill:#ff0000;stroke:#ff0000;" x="138.763636" xlink:href="#ma9b3c1c0ad" y="208.341026"/>
    </g>
   </g>
   <g id="line2d_25">
    <g clip-path="url(#p734c65fa19)">
     <use style="fill:#ff0000;stroke:#ff0000;" x="154.996364" xlink:href="#ma9b3c1c0ad" y="202.415032"/>
    </g>
   </g>
   <g id="line2d_26">
    <g clip-path="url(#p734c65fa19)">
     <use style="fill:#ff0000;stroke:#ff0000;" x="171.229091" xlink:href="#ma9b3c1c0ad" y="180.802582"/>
    </g>
   </g>
   <g id="line2d_27">
    <g clip-path="url(#p734c65fa19)">
     <use style="fill:#ff0000;stroke:#ff0000;" x="187.461818" xlink:href="#ma9b3c1c0ad" y="127.120046"/>
    </g>
   </g>
   <g id="line2d_28">
    <g clip-path="url(#p734c65fa19)">
     <use style="fill:#ff0000;stroke:#ff0000;" x="203.694545" xlink:href="#ma9b3c1c0ad" y="123.982755"/>
    </g>
   </g>
   <g id="line2d_29">
    <g clip-path="url(#p734c65fa19)">
     <use style="fill:#ff0000;stroke:#ff0000;" x="219.927273" xlink:href="#ma9b3c1c0ad" y="102.021718"/>
    </g>
   </g>
   <g id="line2d_30">
    <g clip-path="url(#p734c65fa19)">
     <use style="fill:#ff0000;stroke:#ff0000;" x="236.16" xlink:href="#ma9b3c1c0ad" y="82.849383"/>
    </g>
   </g>
   <g id="line2d_31">
    <g clip-path="url(#p734c65fa19)">
     <use style="fill:#ff0000;stroke:#ff0000;" x="252.392727" xlink:href="#ma9b3c1c0ad" y="128.514398"/>
    </g>
   </g>
   <g id="line2d_32">
    <g clip-path="url(#p734c65fa19)">
     <use style="fill:#ff0000;stroke:#ff0000;" x="268.625455" xlink:href="#ma9b3c1c0ad" y="111.782179"/>
    </g>
   </g>
   <g id="line2d_33">
    <g clip-path="url(#p734c65fa19)">
     <use style="fill:#ff0000;stroke:#ff0000;" x="284.858182" xlink:href="#ma9b3c1c0ad" y="152.218375"/>
    </g>
   </g>
   <g id="line2d_34">
    <g clip-path="url(#p734c65fa19)">
     <use style="fill:#ff0000;stroke:#ff0000;" x="301.090909" xlink:href="#ma9b3c1c0ad" y="147.338144"/>
    </g>
   </g>
   <g id="line2d_35">
    <g clip-path="url(#p734c65fa19)">
     <use style="fill:#ff0000;stroke:#ff0000;" x="317.323636" xlink:href="#ma9b3c1c0ad" y="186.728576"/>
    </g>
   </g>
   <g id="line2d_36">
    <g clip-path="url(#p734c65fa19)">
     <use style="fill:#ff0000;stroke:#ff0000;" x="333.556364" xlink:href="#ma9b3c1c0ad" y="209.735378"/>
    </g>
   </g>
   <g id="line2d_37">
    <g clip-path="url(#p734c65fa19)">
     <use style="fill:#ff0000;stroke:#ff0000;" x="349.789091" xlink:href="#ma9b3c1c0ad" y="197.534801"/>
    </g>
   </g>
   <g id="line2d_38">
    <g clip-path="url(#p734c65fa19)">
     <use style="fill:#ff0000;stroke:#ff0000;" x="366.021818" xlink:href="#ma9b3c1c0ad" y="209.735378"/>
    </g>
   </g>
   <g id="line2d_39">
    <g clip-path="url(#p734c65fa19)">
     <use style="fill:#ff0000;stroke:#ff0000;" x="382.254545" xlink:href="#ma9b3c1c0ad" y="245.988519"/>
    </g>
   </g>
   <g id="line2d_40">
    <g clip-path="url(#p734c65fa19)">
     <use style="fill:#ff0000;stroke:#ff0000;" x="398.487273" xlink:href="#ma9b3c1c0ad" y="213.918432"/>
    </g>
   </g>
   <g id="line2d_41">
    <defs>
     <path d="M 0 3 
C 0.795609 3 1.55874 2.683901 2.12132 2.12132 
C 2.683901 1.55874 3 0.795609 3 0 
C 3 -0.795609 2.683901 -1.55874 2.12132 -2.12132 
C 1.55874 -2.683901 0.795609 -3 0 -3 
C -0.795609 -3 -1.55874 -2.683901 -2.12132 -2.12132 
C -2.683901 -1.55874 -3 -0.795609 -3 0 
C -3 0.795609 -2.683901 1.55874 -2.12132 2.12132 
C -1.55874 2.683901 -0.795609 3 0 3 
z
" id="m8ef5f84e3a" style="stroke:#008000;"/>
    </defs>
    <g clip-path="url(#p734c65fa19)">
     <use style="fill:#008000;stroke:#008000;" x="73.832727" xlink:href="#m8ef5f84e3a" y="265.892888"/>
    </g>
   </g>
   <g id="line2d_42">
    <g clip-path="url(#p734c65fa19)">
     <use style="fill:#008000;stroke:#008000;" x="90.065455" xlink:href="#m8ef5f84e3a" y="228.175677"/>
    </g>
   </g>
   <g id="line2d_43">
    <g clip-path="url(#p734c65fa19)">
     <use style="fill:#008000;stroke:#008000;" x="106.298182" xlink:href="#m8ef5f84e3a" y="257.352484"/>
    </g>
   </g>
   <g id="line2d_44">
    <g clip-path="url(#p734c65fa19)">
     <use style="fill:#008000;stroke:#008000;" x="122.530909" xlink:href="#m8ef5f84e3a" y="173.830824"/>
    </g>
   </g>
   <g id="line2d_45">
    <g clip-path="url(#p734c65fa19)">
     <use style="fill:#008000;stroke:#008000;" x="138.763636" xlink:href="#m8ef5f84e3a" y="219.914144"/>
    </g>
   </g>
   <g id="line2d_46">
    <g clip-path="url(#p734c65fa19)">
     <use style="fill:#008000;stroke:#008000;" x="154.996364" xlink:href="#m8ef5f84e3a" y="211.826905"/>
    </g>
   </g>
   <g id="line2d_47">
    <g clip-path="url(#p734c65fa19)">
     <use style="fill:#008000;stroke:#008000;" x="171.229091" xlink:href="#m8ef5f84e3a" y="209.003343"/>
    </g>
   </g>
   <g id="line2d_48">
    <g clip-path="url(#p734c65fa19)">
     <use style="fill:#008000;stroke:#008000;" x="187.461818" xlink:href="#m8ef5f84e3a" y="214.127585"/>
    </g>
   </g>
   <g id="line2d_49">
    <g clip-path="url(#p734c65fa19)">
     <use style="fill:#008000;stroke:#008000;" x="203.694545" xlink:href="#m8ef5f84e3a" y="205.935769"/>
    </g>
   </g>
   <g id="line2d_50">
    <g clip-path="url(#p734c65fa19)">
     <use style="fill:#008000;stroke:#008000;" x="219.927273" xlink:href="#m8ef5f84e3a" y="178.536761"/>
    </g>
   </g>
   <g id="line2d_51">
    <g clip-path="url(#p734c65fa19)">
     <use style="fill:#008000;stroke:#008000;" x="236.16" xlink:href="#m8ef5f84e3a" y="200.602375"/>
    </g>
   </g>
   <g id="line2d_52">
    <g clip-path="url(#p734c65fa19)">
     <use style="fill:#008000;stroke:#008000;" x="252.392727" xlink:href="#m8ef5f84e3a" y="179.303654"/>
    </g>
   </g>
   <g id="line2d_53">
    <g clip-path="url(#p734c65fa19)">
     <use style="fill:#008000;stroke:#008000;" x="268.625455" xlink:href="#m8ef5f84e3a" y="213.534986"/>
    </g>
   </g>
   <g id="line2d_54">
    <g clip-path="url(#p734c65fa19)">
     <use style="fill:#008000;stroke:#008000;" x="284.858182" xlink:href="#m8ef5f84e3a" y="182.859251"/>
    </g>
   </g>
   <g id="line2d_55">
    <g clip-path="url(#p734c65fa19)">
     <use style="fill:#008000;stroke:#008000;" x="301.090909" xlink:href="#m8ef5f84e3a" y="213.918432"/>
    </g>
   </g>
   <g id="line2d_56">
    <g clip-path="url(#p734c65fa19)">
     <use style="fill:#008000;stroke:#008000;" x="317.323636" xlink:href="#m8ef5f84e3a" y="209.107919"/>
    </g>
   </g>
   <g id="line2d_57">
    <g clip-path="url(#p734c65fa19)">
     <use style="fill:#008000;stroke:#008000;" x="333.556364" xlink:href="#m8ef5f84e3a" y="224.271493"/>
    </g>
   </g>
   <g id="line2d_58">
    <g clip-path="url(#p734c65fa19)">
     <use style="fill:#008000;stroke:#008000;" x="349.789091" xlink:href="#m8ef5f84e3a" y="210.083965"/>
    </g>
   </g>
   <g id="line2d_59">
    <g clip-path="url(#p734c65fa19)">
     <use style="fill:#008000;stroke:#008000;" x="366.021818" xlink:href="#m8ef5f84e3a" y="221.308496"/>
    </g>
   </g>
   <g id="line2d_60">
    <g clip-path="url(#p734c65fa19)">
     <use style="fill:#008000;stroke:#008000;" x="382.254545" xlink:href="#m8ef5f84e3a" y="225.944715"/>
    </g>
   </g>
   <g id="line2d_61">
    <g clip-path="url(#p734c65fa19)">
     <use style="fill:#008000;stroke:#008000;" x="398.487273" xlink:href="#m8ef5f84e3a" y="211.09487"/>
    </g>
   </g>
   <g id="line2d_62">
    <defs>
     <path d="M 0 3 
C 0.795609 3 1.55874 2.683901 2.12132 2.12132 
C 2.683901 1.55874 3 0.795609 3 0 
C 3 -0.795609 2.683901 -1.55874 2.12132 -2.12132 
C 1.55874 -2.683901 0.795609 -3 0 -3 
C -0.795609 -3 -1.55874 -2.683901 -2.12132 -2.12132 
C -2.683901 -1.55874 -3 -0.795609 -3 0 
C -3 0.795609 -2.683901 1.55874 -2.12132 2.12132 
C -1.55874 2.683901 -0.795609 3 0 3 
z
" id="m971e1bddcc" style="stroke:#0000ff;"/>
    </defs>
    <g clip-path="url(#p734c65fa19)">
     <use style="fill:#0000ff;stroke:#0000ff;" x="73.832727" xlink:href="#m971e1bddcc" y="267.600968"/>
    </g>
   </g>
   <g id="line2d_63">
    <g clip-path="url(#p734c65fa19)">
     <use style="fill:#0000ff;stroke:#0000ff;" x="90.065455" xlink:href="#m971e1bddcc" y="221.238778"/>
    </g>
   </g>
   <g id="line2d_64">
    <g clip-path="url(#p734c65fa19)">
     <use style="fill:#0000ff;stroke:#0000ff;" x="106.298182" xlink:href="#m971e1bddcc" y="227.51336"/>
    </g>
   </g>
   <g id="line2d_65">
    <g clip-path="url(#p734c65fa19)">
     <use style="fill:#0000ff;stroke:#0000ff;" x="122.530909" xlink:href="#m971e1bddcc" y="253.657452"/>
    </g>
   </g>
   <g id="line2d_66">
    <g clip-path="url(#p734c65fa19)">
     <use style="fill:#0000ff;stroke:#0000ff;" x="138.763636" xlink:href="#m971e1bddcc" y="210.432553"/>
    </g>
   </g>
   <g id="line2d_67">
    <g clip-path="url(#p734c65fa19)">
     <use style="fill:#0000ff;stroke:#0000ff;" x="154.996364" xlink:href="#m971e1bddcc" y="236.228058"/>
    </g>
   </g>
   <g id="line2d_68">
    <g clip-path="url(#p734c65fa19)">
     <use style="fill:#0000ff;stroke:#0000ff;" x="171.229091" xlink:href="#m971e1bddcc" y="262.720738"/>
    </g>
   </g>
   <g id="line2d_69">
    <g clip-path="url(#p734c65fa19)">
     <use style="fill:#0000ff;stroke:#0000ff;" x="187.461818" xlink:href="#m971e1bddcc" y="223.330305"/>
    </g>
   </g>
   <g id="line2d_70">
    <g clip-path="url(#p734c65fa19)">
     <use style="fill:#0000ff;stroke:#0000ff;" x="203.694545" xlink:href="#m971e1bddcc" y="219.844427"/>
    </g>
   </g>
   <g id="line2d_71">
    <g clip-path="url(#p734c65fa19)">
     <use style="fill:#0000ff;stroke:#0000ff;" x="219.927273" xlink:href="#m971e1bddcc" y="230.650651"/>
    </g>
   </g>
   <g id="line2d_72">
    <g clip-path="url(#p734c65fa19)">
     <use style="fill:#0000ff;stroke:#0000ff;" x="236.16" xlink:href="#m971e1bddcc" y="209.735378"/>
    </g>
   </g>
   <g id="line2d_73">
    <g clip-path="url(#p734c65fa19)">
     <use style="fill:#0000ff;stroke:#0000ff;" x="252.392727" xlink:href="#m971e1bddcc" y="253.657452"/>
    </g>
   </g>
   <g id="line2d_74">
    <g clip-path="url(#p734c65fa19)">
     <use style="fill:#0000ff;stroke:#0000ff;" x="268.625455" xlink:href="#m971e1bddcc" y="248.080046"/>
    </g>
   </g>
   <g id="line2d_75">
    <g clip-path="url(#p734c65fa19)">
     <use style="fill:#0000ff;stroke:#0000ff;" x="284.858182" xlink:href="#m971e1bddcc" y="202.066444"/>
    </g>
   </g>
   <g id="line2d_76">
    <g clip-path="url(#p734c65fa19)">
     <use style="fill:#0000ff;stroke:#0000ff;" x="301.090909" xlink:href="#m971e1bddcc" y="271.784023"/>
    </g>
   </g>
   <g id="line2d_77">
    <g clip-path="url(#p734c65fa19)">
     <use style="fill:#0000ff;stroke:#0000ff;" x="317.323636" xlink:href="#m971e1bddcc" y="198.929153"/>
    </g>
   </g>
   <g id="line2d_78">
    <g clip-path="url(#p734c65fa19)">
     <use style="fill:#0000ff;stroke:#0000ff;" x="333.556364" xlink:href="#m971e1bddcc" y="263.766501"/>
    </g>
   </g>
   <g id="line2d_79">
    <g clip-path="url(#p734c65fa19)">
     <use style="fill:#0000ff;stroke:#0000ff;" x="349.789091" xlink:href="#m971e1bddcc" y="251.565925"/>
    </g>
   </g>
   <g id="line2d_80">
    <g clip-path="url(#p734c65fa19)">
     <use style="fill:#0000ff;stroke:#0000ff;" x="366.021818" xlink:href="#m971e1bddcc" y="278.407193"/>
    </g>
   </g>
   <g id="line2d_81">
    <g clip-path="url(#p734c65fa19)">
     <use style="fill:#0000ff;stroke:#0000ff;" x="382.254545" xlink:href="#m971e1bddcc" y="265.509441"/>
    </g>
   </g>
   <g id="line2d_82">
    <g clip-path="url(#p734c65fa19)">
     <use style="fill:#0000ff;stroke:#0000ff;" x="398.487273" xlink:href="#m971e1bddcc" y="260.62921"/>
    </g>
   </g>
   <g id="line2d_83">
    <path clip-path="url(#p734c65fa19)" d="M 73.832727 224.027481 
" style="fill:none;stroke:#ff0000;stroke-linecap:square;stroke-width:1.5;"/>
    <g clip-path="url(#p734c65fa19)">
     <use style="fill:#ff0000;stroke:#ff0000;" x="73.832727" xlink:href="#ma9b3c1c0ad" y="224.027481"/>
    </g>
   </g>
   <g id="line2d_84">
    <path clip-path="url(#p734c65fa19)" d="M 90.065455 239.365349 
" style="fill:none;stroke:#ff0000;stroke-linecap:square;stroke-width:1.5;"/>
    <g clip-path="url(#p734c65fa19)">
     <use style="fill:#ff0000;stroke:#ff0000;" x="90.065455" xlink:href="#ma9b3c1c0ad" y="239.365349"/>
    </g>
   </g>
   <g id="line2d_85">
    <path clip-path="url(#p734c65fa19)" d="M 106.298182 214.615608 
" style="fill:none;stroke:#ff0000;stroke-linecap:square;stroke-width:1.5;"/>
    <g clip-path="url(#p734c65fa19)">
     <use style="fill:#ff0000;stroke:#ff0000;" x="106.298182" xlink:href="#ma9b3c1c0ad" y="214.615608"/>
    </g>
   </g>
   <g id="line2d_86">
    <path clip-path="url(#p734c65fa19)" d="M 122.530909 218.450075 
" style="fill:none;stroke:#ff0000;stroke-linecap:square;stroke-width:1.5;"/>
    <g clip-path="url(#p734c65fa19)">
     <use style="fill:#ff0000;stroke:#ff0000;" x="122.530909" xlink:href="#ma9b3c1c0ad" y="218.450075"/>
    </g>
   </g>
   <g id="line2d_87">
    <path clip-path="url(#p734c65fa19)" d="M 138.763636 208.341026 
" style="fill:none;stroke:#ff0000;stroke-linecap:square;stroke-width:1.5;"/>
    <g clip-path="url(#p734c65fa19)">
     <use style="fill:#ff0000;stroke:#ff0000;" x="138.763636" xlink:href="#ma9b3c1c0ad" y="208.341026"/>
    </g>
   </g>
   <g id="line2d_88">
    <path clip-path="url(#p734c65fa19)" d="M 154.996364 202.415032 
" style="fill:none;stroke:#ff0000;stroke-linecap:square;stroke-width:1.5;"/>
    <g clip-path="url(#p734c65fa19)">
     <use style="fill:#ff0000;stroke:#ff0000;" x="154.996364" xlink:href="#ma9b3c1c0ad" y="202.415032"/>
    </g>
   </g>
   <g id="line2d_89">
    <path clip-path="url(#p734c65fa19)" d="M 171.229091 180.802582 
" style="fill:none;stroke:#ff0000;stroke-linecap:square;stroke-width:1.5;"/>
    <g clip-path="url(#p734c65fa19)">
     <use style="fill:#ff0000;stroke:#ff0000;" x="171.229091" xlink:href="#ma9b3c1c0ad" y="180.802582"/>
    </g>
   </g>
   <g id="line2d_90">
    <path clip-path="url(#p734c65fa19)" d="M 187.461818 127.120046 
" style="fill:none;stroke:#ff0000;stroke-linecap:square;stroke-width:1.5;"/>
    <g clip-path="url(#p734c65fa19)">
     <use style="fill:#ff0000;stroke:#ff0000;" x="187.461818" xlink:href="#ma9b3c1c0ad" y="127.120046"/>
    </g>
   </g>
   <g id="line2d_91">
    <path clip-path="url(#p734c65fa19)" d="M 203.694545 123.982755 
" style="fill:none;stroke:#ff0000;stroke-linecap:square;stroke-width:1.5;"/>
    <g clip-path="url(#p734c65fa19)">
     <use style="fill:#ff0000;stroke:#ff0000;" x="203.694545" xlink:href="#ma9b3c1c0ad" y="123.982755"/>
    </g>
   </g>
   <g id="line2d_92">
    <path clip-path="url(#p734c65fa19)" d="M 219.927273 102.021718 
" style="fill:none;stroke:#ff0000;stroke-linecap:square;stroke-width:1.5;"/>
    <g clip-path="url(#p734c65fa19)">
     <use style="fill:#ff0000;stroke:#ff0000;" x="219.927273" xlink:href="#ma9b3c1c0ad" y="102.021718"/>
    </g>
   </g>
   <g id="line2d_93">
    <path clip-path="url(#p734c65fa19)" d="M 236.16 82.849383 
" style="fill:none;stroke:#ff0000;stroke-linecap:square;stroke-width:1.5;"/>
    <g clip-path="url(#p734c65fa19)">
     <use style="fill:#ff0000;stroke:#ff0000;" x="236.16" xlink:href="#ma9b3c1c0ad" y="82.849383"/>
    </g>
   </g>
   <g id="line2d_94">
    <path clip-path="url(#p734c65fa19)" d="M 252.392727 128.514398 
" style="fill:none;stroke:#ff0000;stroke-linecap:square;stroke-width:1.5;"/>
    <g clip-path="url(#p734c65fa19)">
     <use style="fill:#ff0000;stroke:#ff0000;" x="252.392727" xlink:href="#ma9b3c1c0ad" y="128.514398"/>
    </g>
   </g>
   <g id="line2d_95">
    <path clip-path="url(#p734c65fa19)" d="M 268.625455 111.782179 
" style="fill:none;stroke:#ff0000;stroke-linecap:square;stroke-width:1.5;"/>
    <g clip-path="url(#p734c65fa19)">
     <use style="fill:#ff0000;stroke:#ff0000;" x="268.625455" xlink:href="#ma9b3c1c0ad" y="111.782179"/>
    </g>
   </g>
   <g id="line2d_96">
    <path clip-path="url(#p734c65fa19)" d="M 284.858182 152.218375 
" style="fill:none;stroke:#ff0000;stroke-linecap:square;stroke-width:1.5;"/>
    <g clip-path="url(#p734c65fa19)">
     <use style="fill:#ff0000;stroke:#ff0000;" x="284.858182" xlink:href="#ma9b3c1c0ad" y="152.218375"/>
    </g>
   </g>
   <g id="line2d_97">
    <path clip-path="url(#p734c65fa19)" d="M 301.090909 147.338144 
" style="fill:none;stroke:#ff0000;stroke-linecap:square;stroke-width:1.5;"/>
    <g clip-path="url(#p734c65fa19)">
     <use style="fill:#ff0000;stroke:#ff0000;" x="301.090909" xlink:href="#ma9b3c1c0ad" y="147.338144"/>
    </g>
   </g>
   <g id="line2d_98">
    <path clip-path="url(#p734c65fa19)" d="M 317.323636 186.728576 
" style="fill:none;stroke:#ff0000;stroke-linecap:square;stroke-width:1.5;"/>
    <g clip-path="url(#p734c65fa19)">
     <use style="fill:#ff0000;stroke:#ff0000;" x="317.323636" xlink:href="#ma9b3c1c0ad" y="186.728576"/>
    </g>
   </g>
   <g id="line2d_99">
    <path clip-path="url(#p734c65fa19)" d="M 333.556364 209.735378 
" style="fill:none;stroke:#ff0000;stroke-linecap:square;stroke-width:1.5;"/>
    <g clip-path="url(#p734c65fa19)">
     <use style="fill:#ff0000;stroke:#ff0000;" x="333.556364" xlink:href="#ma9b3c1c0ad" y="209.735378"/>
    </g>
   </g>
   <g id="line2d_100">
    <path clip-path="url(#p734c65fa19)" d="M 349.789091 197.534801 
" style="fill:none;stroke:#ff0000;stroke-linecap:square;stroke-width:1.5;"/>
    <g clip-path="url(#p734c65fa19)">
     <use style="fill:#ff0000;stroke:#ff0000;" x="349.789091" xlink:href="#ma9b3c1c0ad" y="197.534801"/>
    </g>
   </g>
   <g id="line2d_101">
    <path clip-path="url(#p734c65fa19)" d="M 366.021818 209.735378 
" style="fill:none;stroke:#ff0000;stroke-linecap:square;stroke-width:1.5;"/>
    <g clip-path="url(#p734c65fa19)">
     <use style="fill:#ff0000;stroke:#ff0000;" x="366.021818" xlink:href="#ma9b3c1c0ad" y="209.735378"/>
    </g>
   </g>
   <g id="line2d_102">
    <path clip-path="url(#p734c65fa19)" d="M 382.254545 245.988519 
" style="fill:none;stroke:#ff0000;stroke-linecap:square;stroke-width:1.5;"/>
    <g clip-path="url(#p734c65fa19)">
     <use style="fill:#ff0000;stroke:#ff0000;" x="382.254545" xlink:href="#ma9b3c1c0ad" y="245.988519"/>
    </g>
   </g>
   <g id="line2d_103">
    <path clip-path="url(#p734c65fa19)" d="M 398.487273 213.918432 
" style="fill:none;stroke:#ff0000;stroke-linecap:square;stroke-width:1.5;"/>
    <g clip-path="url(#p734c65fa19)">
     <use style="fill:#ff0000;stroke:#ff0000;" x="398.487273" xlink:href="#ma9b3c1c0ad" y="213.918432"/>
    </g>
   </g>
   <g id="line2d_104">
    <path clip-path="url(#p734c65fa19)" d="M 73.832727 265.892888 
" style="fill:none;stroke:#008000;stroke-linecap:square;stroke-width:1.5;"/>
    <g clip-path="url(#p734c65fa19)">
     <use style="fill:#008000;stroke:#008000;" x="73.832727" xlink:href="#m8ef5f84e3a" y="265.892888"/>
    </g>
   </g>
   <g id="line2d_105">
    <path clip-path="url(#p734c65fa19)" d="M 90.065455 228.175677 
" style="fill:none;stroke:#008000;stroke-linecap:square;stroke-width:1.5;"/>
    <g clip-path="url(#p734c65fa19)">
     <use style="fill:#008000;stroke:#008000;" x="90.065455" xlink:href="#m8ef5f84e3a" y="228.175677"/>
    </g>
   </g>
   <g id="line2d_106">
    <path clip-path="url(#p734c65fa19)" d="M 106.298182 257.352484 
" style="fill:none;stroke:#008000;stroke-linecap:square;stroke-width:1.5;"/>
    <g clip-path="url(#p734c65fa19)">
     <use style="fill:#008000;stroke:#008000;" x="106.298182" xlink:href="#m8ef5f84e3a" y="257.352484"/>
    </g>
   </g>
   <g id="line2d_107">
    <path clip-path="url(#p734c65fa19)" d="M 122.530909 173.830824 
" style="fill:none;stroke:#008000;stroke-linecap:square;stroke-width:1.5;"/>
    <g clip-path="url(#p734c65fa19)">
     <use style="fill:#008000;stroke:#008000;" x="122.530909" xlink:href="#m8ef5f84e3a" y="173.830824"/>
    </g>
   </g>
   <g id="line2d_108">
    <path clip-path="url(#p734c65fa19)" d="M 138.763636 219.914144 
" style="fill:none;stroke:#008000;stroke-linecap:square;stroke-width:1.5;"/>
    <g clip-path="url(#p734c65fa19)">
     <use style="fill:#008000;stroke:#008000;" x="138.763636" xlink:href="#m8ef5f84e3a" y="219.914144"/>
    </g>
   </g>
   <g id="line2d_109">
    <path clip-path="url(#p734c65fa19)" d="M 154.996364 211.826905 
" style="fill:none;stroke:#008000;stroke-linecap:square;stroke-width:1.5;"/>
    <g clip-path="url(#p734c65fa19)">
     <use style="fill:#008000;stroke:#008000;" x="154.996364" xlink:href="#m8ef5f84e3a" y="211.826905"/>
    </g>
   </g>
   <g id="line2d_110">
    <path clip-path="url(#p734c65fa19)" d="M 171.229091 209.003343 
" style="fill:none;stroke:#008000;stroke-linecap:square;stroke-width:1.5;"/>
    <g clip-path="url(#p734c65fa19)">
     <use style="fill:#008000;stroke:#008000;" x="171.229091" xlink:href="#m8ef5f84e3a" y="209.003343"/>
    </g>
   </g>
   <g id="line2d_111">
    <path clip-path="url(#p734c65fa19)" d="M 187.461818 214.127585 
" style="fill:none;stroke:#008000;stroke-linecap:square;stroke-width:1.5;"/>
    <g clip-path="url(#p734c65fa19)">
     <use style="fill:#008000;stroke:#008000;" x="187.461818" xlink:href="#m8ef5f84e3a" y="214.127585"/>
    </g>
   </g>
   <g id="line2d_112">
    <path clip-path="url(#p734c65fa19)" d="M 203.694545 205.935769 
" style="fill:none;stroke:#008000;stroke-linecap:square;stroke-width:1.5;"/>
    <g clip-path="url(#p734c65fa19)">
     <use style="fill:#008000;stroke:#008000;" x="203.694545" xlink:href="#m8ef5f84e3a" y="205.935769"/>
    </g>
   </g>
   <g id="line2d_113">
    <path clip-path="url(#p734c65fa19)" d="M 219.927273 178.536761 
" style="fill:none;stroke:#008000;stroke-linecap:square;stroke-width:1.5;"/>
    <g clip-path="url(#p734c65fa19)">
     <use style="fill:#008000;stroke:#008000;" x="219.927273" xlink:href="#m8ef5f84e3a" y="178.536761"/>
    </g>
   </g>
   <g id="line2d_114">
    <path clip-path="url(#p734c65fa19)" d="M 236.16 200.602375 
" style="fill:none;stroke:#008000;stroke-linecap:square;stroke-width:1.5;"/>
    <g clip-path="url(#p734c65fa19)">
     <use style="fill:#008000;stroke:#008000;" x="236.16" xlink:href="#m8ef5f84e3a" y="200.602375"/>
    </g>
   </g>
   <g id="line2d_115">
    <path clip-path="url(#p734c65fa19)" d="M 252.392727 179.303654 
" style="fill:none;stroke:#008000;stroke-linecap:square;stroke-width:1.5;"/>
    <g clip-path="url(#p734c65fa19)">
     <use style="fill:#008000;stroke:#008000;" x="252.392727" xlink:href="#m8ef5f84e3a" y="179.303654"/>
    </g>
   </g>
   <g id="line2d_116">
    <path clip-path="url(#p734c65fa19)" d="M 268.625455 213.534986 
" style="fill:none;stroke:#008000;stroke-linecap:square;stroke-width:1.5;"/>
    <g clip-path="url(#p734c65fa19)">
     <use style="fill:#008000;stroke:#008000;" x="268.625455" xlink:href="#m8ef5f84e3a" y="213.534986"/>
    </g>
   </g>
   <g id="line2d_117">
    <path clip-path="url(#p734c65fa19)" d="M 284.858182 182.859251 
" style="fill:none;stroke:#008000;stroke-linecap:square;stroke-width:1.5;"/>
    <g clip-path="url(#p734c65fa19)">
     <use style="fill:#008000;stroke:#008000;" x="284.858182" xlink:href="#m8ef5f84e3a" y="182.859251"/>
    </g>
   </g>
   <g id="line2d_118">
    <path clip-path="url(#p734c65fa19)" d="M 301.090909 213.918432 
" style="fill:none;stroke:#008000;stroke-linecap:square;stroke-width:1.5;"/>
    <g clip-path="url(#p734c65fa19)">
     <use style="fill:#008000;stroke:#008000;" x="301.090909" xlink:href="#m8ef5f84e3a" y="213.918432"/>
    </g>
   </g>
   <g id="line2d_119">
    <path clip-path="url(#p734c65fa19)" d="M 317.323636 209.107919 
" style="fill:none;stroke:#008000;stroke-linecap:square;stroke-width:1.5;"/>
    <g clip-path="url(#p734c65fa19)">
     <use style="fill:#008000;stroke:#008000;" x="317.323636" xlink:href="#m8ef5f84e3a" y="209.107919"/>
    </g>
   </g>
   <g id="line2d_120">
    <path clip-path="url(#p734c65fa19)" d="M 333.556364 224.271493 
" style="fill:none;stroke:#008000;stroke-linecap:square;stroke-width:1.5;"/>
    <g clip-path="url(#p734c65fa19)">
     <use style="fill:#008000;stroke:#008000;" x="333.556364" xlink:href="#m8ef5f84e3a" y="224.271493"/>
    </g>
   </g>
   <g id="line2d_121">
    <path clip-path="url(#p734c65fa19)" d="M 349.789091 210.083965 
" style="fill:none;stroke:#008000;stroke-linecap:square;stroke-width:1.5;"/>
    <g clip-path="url(#p734c65fa19)">
     <use style="fill:#008000;stroke:#008000;" x="349.789091" xlink:href="#m8ef5f84e3a" y="210.083965"/>
    </g>
   </g>
   <g id="line2d_122">
    <path clip-path="url(#p734c65fa19)" d="M 366.021818 221.308496 
" style="fill:none;stroke:#008000;stroke-linecap:square;stroke-width:1.5;"/>
    <g clip-path="url(#p734c65fa19)">
     <use style="fill:#008000;stroke:#008000;" x="366.021818" xlink:href="#m8ef5f84e3a" y="221.308496"/>
    </g>
   </g>
   <g id="line2d_123">
    <path clip-path="url(#p734c65fa19)" d="M 382.254545 225.944715 
" style="fill:none;stroke:#008000;stroke-linecap:square;stroke-width:1.5;"/>
    <g clip-path="url(#p734c65fa19)">
     <use style="fill:#008000;stroke:#008000;" x="382.254545" xlink:href="#m8ef5f84e3a" y="225.944715"/>
    </g>
   </g>
   <g id="line2d_124">
    <path clip-path="url(#p734c65fa19)" d="M 398.487273 211.09487 
" style="fill:none;stroke:#008000;stroke-linecap:square;stroke-width:1.5;"/>
    <g clip-path="url(#p734c65fa19)">
     <use style="fill:#008000;stroke:#008000;" x="398.487273" xlink:href="#m8ef5f84e3a" y="211.09487"/>
    </g>
   </g>
   <g id="line2d_125">
    <path clip-path="url(#p734c65fa19)" d="M 73.832727 267.600968 
" style="fill:none;stroke:#0000ff;stroke-linecap:square;stroke-width:1.5;"/>
    <g clip-path="url(#p734c65fa19)">
     <use style="fill:#0000ff;stroke:#0000ff;" x="73.832727" xlink:href="#m971e1bddcc" y="267.600968"/>
    </g>
   </g>
   <g id="line2d_126">
    <path clip-path="url(#p734c65fa19)" d="M 90.065455 221.238778 
" style="fill:none;stroke:#0000ff;stroke-linecap:square;stroke-width:1.5;"/>
    <g clip-path="url(#p734c65fa19)">
     <use style="fill:#0000ff;stroke:#0000ff;" x="90.065455" xlink:href="#m971e1bddcc" y="221.238778"/>
    </g>
   </g>
   <g id="line2d_127">
    <path clip-path="url(#p734c65fa19)" d="M 106.298182 227.51336 
" style="fill:none;stroke:#0000ff;stroke-linecap:square;stroke-width:1.5;"/>
    <g clip-path="url(#p734c65fa19)">
     <use style="fill:#0000ff;stroke:#0000ff;" x="106.298182" xlink:href="#m971e1bddcc" y="227.51336"/>
    </g>
   </g>
   <g id="line2d_128">
    <path clip-path="url(#p734c65fa19)" d="M 122.530909 253.657452 
" style="fill:none;stroke:#0000ff;stroke-linecap:square;stroke-width:1.5;"/>
    <g clip-path="url(#p734c65fa19)">
     <use style="fill:#0000ff;stroke:#0000ff;" x="122.530909" xlink:href="#m971e1bddcc" y="253.657452"/>
    </g>
   </g>
   <g id="line2d_129">
    <path clip-path="url(#p734c65fa19)" d="M 138.763636 210.432553 
" style="fill:none;stroke:#0000ff;stroke-linecap:square;stroke-width:1.5;"/>
    <g clip-path="url(#p734c65fa19)">
     <use style="fill:#0000ff;stroke:#0000ff;" x="138.763636" xlink:href="#m971e1bddcc" y="210.432553"/>
    </g>
   </g>
   <g id="line2d_130">
    <path clip-path="url(#p734c65fa19)" d="M 154.996364 236.228058 
" style="fill:none;stroke:#0000ff;stroke-linecap:square;stroke-width:1.5;"/>
    <g clip-path="url(#p734c65fa19)">
     <use style="fill:#0000ff;stroke:#0000ff;" x="154.996364" xlink:href="#m971e1bddcc" y="236.228058"/>
    </g>
   </g>
   <g id="line2d_131">
    <path clip-path="url(#p734c65fa19)" d="M 171.229091 262.720738 
" style="fill:none;stroke:#0000ff;stroke-linecap:square;stroke-width:1.5;"/>
    <g clip-path="url(#p734c65fa19)">
     <use style="fill:#0000ff;stroke:#0000ff;" x="171.229091" xlink:href="#m971e1bddcc" y="262.720738"/>
    </g>
   </g>
   <g id="line2d_132">
    <path clip-path="url(#p734c65fa19)" d="M 187.461818 223.330305 
" style="fill:none;stroke:#0000ff;stroke-linecap:square;stroke-width:1.5;"/>
    <g clip-path="url(#p734c65fa19)">
     <use style="fill:#0000ff;stroke:#0000ff;" x="187.461818" xlink:href="#m971e1bddcc" y="223.330305"/>
    </g>
   </g>
   <g id="line2d_133">
    <path clip-path="url(#p734c65fa19)" d="M 203.694545 219.844427 
" style="fill:none;stroke:#0000ff;stroke-linecap:square;stroke-width:1.5;"/>
    <g clip-path="url(#p734c65fa19)">
     <use style="fill:#0000ff;stroke:#0000ff;" x="203.694545" xlink:href="#m971e1bddcc" y="219.844427"/>
    </g>
   </g>
   <g id="line2d_134">
    <path clip-path="url(#p734c65fa19)" d="M 219.927273 230.650651 
" style="fill:none;stroke:#0000ff;stroke-linecap:square;stroke-width:1.5;"/>
    <g clip-path="url(#p734c65fa19)">
     <use style="fill:#0000ff;stroke:#0000ff;" x="219.927273" xlink:href="#m971e1bddcc" y="230.650651"/>
    </g>
   </g>
   <g id="line2d_135">
    <path clip-path="url(#p734c65fa19)" d="M 236.16 209.735378 
" style="fill:none;stroke:#0000ff;stroke-linecap:square;stroke-width:1.5;"/>
    <g clip-path="url(#p734c65fa19)">
     <use style="fill:#0000ff;stroke:#0000ff;" x="236.16" xlink:href="#m971e1bddcc" y="209.735378"/>
    </g>
   </g>
   <g id="line2d_136">
    <path clip-path="url(#p734c65fa19)" d="M 252.392727 253.657452 
" style="fill:none;stroke:#0000ff;stroke-linecap:square;stroke-width:1.5;"/>
    <g clip-path="url(#p734c65fa19)">
     <use style="fill:#0000ff;stroke:#0000ff;" x="252.392727" xlink:href="#m971e1bddcc" y="253.657452"/>
    </g>
   </g>
   <g id="line2d_137">
    <path clip-path="url(#p734c65fa19)" d="M 268.625455 248.080046 
" style="fill:none;stroke:#0000ff;stroke-linecap:square;stroke-width:1.5;"/>
    <g clip-path="url(#p734c65fa19)">
     <use style="fill:#0000ff;stroke:#0000ff;" x="268.625455" xlink:href="#m971e1bddcc" y="248.080046"/>
    </g>
   </g>
   <g id="line2d_138">
    <path clip-path="url(#p734c65fa19)" d="M 284.858182 202.066444 
" style="fill:none;stroke:#0000ff;stroke-linecap:square;stroke-width:1.5;"/>
    <g clip-path="url(#p734c65fa19)">
     <use style="fill:#0000ff;stroke:#0000ff;" x="284.858182" xlink:href="#m971e1bddcc" y="202.066444"/>
    </g>
   </g>
   <g id="line2d_139">
    <path clip-path="url(#p734c65fa19)" d="M 301.090909 271.784023 
" style="fill:none;stroke:#0000ff;stroke-linecap:square;stroke-width:1.5;"/>
    <g clip-path="url(#p734c65fa19)">
     <use style="fill:#0000ff;stroke:#0000ff;" x="301.090909" xlink:href="#m971e1bddcc" y="271.784023"/>
    </g>
   </g>
   <g id="line2d_140">
    <path clip-path="url(#p734c65fa19)" d="M 317.323636 198.929153 
" style="fill:none;stroke:#0000ff;stroke-linecap:square;stroke-width:1.5;"/>
    <g clip-path="url(#p734c65fa19)">
     <use style="fill:#0000ff;stroke:#0000ff;" x="317.323636" xlink:href="#m971e1bddcc" y="198.929153"/>
    </g>
   </g>
   <g id="line2d_141">
    <path clip-path="url(#p734c65fa19)" d="M 333.556364 263.766501 
" style="fill:none;stroke:#0000ff;stroke-linecap:square;stroke-width:1.5;"/>
    <g clip-path="url(#p734c65fa19)">
     <use style="fill:#0000ff;stroke:#0000ff;" x="333.556364" xlink:href="#m971e1bddcc" y="263.766501"/>
    </g>
   </g>
   <g id="line2d_142">
    <path clip-path="url(#p734c65fa19)" d="M 349.789091 251.565925 
" style="fill:none;stroke:#0000ff;stroke-linecap:square;stroke-width:1.5;"/>
    <g clip-path="url(#p734c65fa19)">
     <use style="fill:#0000ff;stroke:#0000ff;" x="349.789091" xlink:href="#m971e1bddcc" y="251.565925"/>
    </g>
   </g>
   <g id="line2d_143">
    <path clip-path="url(#p734c65fa19)" d="M 366.021818 278.407193 
" style="fill:none;stroke:#0000ff;stroke-linecap:square;stroke-width:1.5;"/>
    <g clip-path="url(#p734c65fa19)">
     <use style="fill:#0000ff;stroke:#0000ff;" x="366.021818" xlink:href="#m971e1bddcc" y="278.407193"/>
    </g>
   </g>
   <g id="line2d_144">
    <path clip-path="url(#p734c65fa19)" d="M 382.254545 265.509441 
" style="fill:none;stroke:#0000ff;stroke-linecap:square;stroke-width:1.5;"/>
    <g clip-path="url(#p734c65fa19)">
     <use style="fill:#0000ff;stroke:#0000ff;" x="382.254545" xlink:href="#m971e1bddcc" y="265.509441"/>
    </g>
   </g>
   <g id="line2d_145">
    <path clip-path="url(#p734c65fa19)" d="M 398.487273 260.62921 
" style="fill:none;stroke:#0000ff;stroke-linecap:square;stroke-width:1.5;"/>
    <g clip-path="url(#p734c65fa19)">
     <use style="fill:#0000ff;stroke:#0000ff;" x="398.487273" xlink:href="#m971e1bddcc" y="260.62921"/>
    </g>
   </g>
   <g id="patch_3">
    <path d="M 57.6 307.584 
L 57.6 41.472 
" style="fill:none;stroke:#000000;stroke-linecap:square;stroke-linejoin:miter;stroke-width:0.8;"/>
   </g>
   <g id="patch_4">
    <path d="M 414.72 307.584 
L 414.72 41.472 
" style="fill:none;stroke:#000000;stroke-linecap:square;stroke-linejoin:miter;stroke-width:0.8;"/>
   </g>
   <g id="patch_5">
    <path d="M 57.6 307.584 
L 414.72 307.584 
" style="fill:none;stroke:#000000;stroke-linecap:square;stroke-linejoin:miter;stroke-width:0.8;"/>
   </g>
   <g id="patch_6">
    <path d="M 57.6 41.472 
L 414.72 41.472 
" style="fill:none;stroke:#000000;stroke-linecap:square;stroke-linejoin:miter;stroke-width:0.8;"/>
   </g>
   <g id="text_19">
    <!-- velocity dispersion bulge -->
    <g transform="translate(161.280937 35.472)scale(0.12 -0.12)">
     <defs>
      <path d="M 48.6875 27.296875 
Q 48.6875 37.203125 44.609375 42.84375 
Q 40.53125 48.484375 33.40625 48.484375 
Q 26.265625 48.484375 22.1875 42.84375 
Q 18.109375 37.203125 18.109375 27.296875 
Q 18.109375 17.390625 22.1875 11.75 
Q 26.265625 6.109375 33.40625 6.109375 
Q 40.53125 6.109375 44.609375 11.75 
Q 48.6875 17.390625 48.6875 27.296875 
z
M 18.109375 46.390625 
Q 20.953125 51.265625 25.265625 53.625 
Q 29.59375 56 35.59375 56 
Q 45.5625 56 51.78125 48.09375 
Q 58.015625 40.1875 58.015625 27.296875 
Q 58.015625 14.40625 51.78125 6.484375 
Q 45.5625 -1.421875 35.59375 -1.421875 
Q 29.59375 -1.421875 25.265625 0.953125 
Q 20.953125 3.328125 18.109375 8.203125 
L 18.109375 0 
L 9.078125 0 
L 9.078125 75.984375 
L 18.109375 75.984375 
z
" id="DejaVuSans-98"/>
     </defs>
     <use xlink:href="#DejaVuSans-118"/>
     <use x="59.179688" xlink:href="#DejaVuSans-101"/>
     <use x="120.703125" xlink:href="#DejaVuSans-108"/>
     <use x="148.486328" xlink:href="#DejaVuSans-111"/>
     <use x="209.667969" xlink:href="#DejaVuSans-99"/>
     <use x="264.648438" xlink:href="#DejaVuSans-105"/>
     <use x="292.431641" xlink:href="#DejaVuSans-116"/>
     <use x="331.640625" xlink:href="#DejaVuSans-121"/>
     <use x="390.820312" xlink:href="#DejaVuSans-32"/>
     <use x="422.607422" xlink:href="#DejaVuSans-100"/>
     <use x="486.083984" xlink:href="#DejaVuSans-105"/>
     <use x="513.867188" xlink:href="#DejaVuSans-115"/>
     <use x="565.966797" xlink:href="#DejaVuSans-112"/>
     <use x="629.443359" xlink:href="#DejaVuSans-101"/>
     <use x="690.966797" xlink:href="#DejaVuSans-114"/>
     <use x="732.080078" xlink:href="#DejaVuSans-115"/>
     <use x="784.179688" xlink:href="#DejaVuSans-105"/>
     <use x="811.962891" xlink:href="#DejaVuSans-111"/>
     <use x="873.144531" xlink:href="#DejaVuSans-110"/>
     <use x="936.523438" xlink:href="#DejaVuSans-32"/>
     <use x="968.310547" xlink:href="#DejaVuSans-98"/>
     <use x="1031.787109" xlink:href="#DejaVuSans-117"/>
     <use x="1095.166016" xlink:href="#DejaVuSans-108"/>
     <use x="1122.949219" xlink:href="#DejaVuSans-103"/>
     <use x="1186.425781" xlink:href="#DejaVuSans-101"/>
    </g>
   </g>
   <g id="legend_1">
    <g id="patch_7">
     <path d="M 280.415313 93.506375 
L 407.72 93.506375 
Q 409.72 93.506375 409.72 91.506375 
L 409.72 48.472 
Q 409.72 46.472 407.72 46.472 
L 280.415313 46.472 
Q 278.415313 46.472 278.415313 48.472 
L 278.415313 91.506375 
Q 278.415313 93.506375 280.415313 93.506375 
z
" style="fill:#ffffff;opacity:0.8;stroke:#cccccc;stroke-linejoin:miter;"/>
    </g>
    <g id="line2d_146">
     <path d="M 282.415313 54.570438 
L 302.415313 54.570438 
" style="fill:none;stroke:#ff0000;stroke-linecap:square;stroke-width:1.5;"/>
    </g>
    <g id="line2d_147"/>
    <g id="text_20">
     <!-- b = -4[°],d=8.5kpc -->
     <g transform="translate(310.415313 58.070438)scale(0.1 -0.1)">
      <defs>
       <path d="M 10.59375 45.40625 
L 73.1875 45.40625 
L 73.1875 37.203125 
L 10.59375 37.203125 
z
M 10.59375 25.484375 
L 73.1875 25.484375 
L 73.1875 17.1875 
L 10.59375 17.1875 
z
" id="DejaVuSans-61"/>
       <path d="M 4.890625 31.390625 
L 31.203125 31.390625 
L 31.203125 23.390625 
L 4.890625 23.390625 
z
" id="DejaVuSans-45"/>
       <path d="M 37.796875 64.3125 
L 12.890625 25.390625 
L 37.796875 25.390625 
z
M 35.203125 72.90625 
L 47.609375 72.90625 
L 47.609375 25.390625 
L 58.015625 25.390625 
L 58.015625 17.1875 
L 47.609375 17.1875 
L 47.609375 0 
L 37.796875 0 
L 37.796875 17.1875 
L 4.890625 17.1875 
L 4.890625 26.703125 
z
" id="DejaVuSans-52"/>
       <path d="M 11.71875 12.40625 
L 22.015625 12.40625 
L 22.015625 4 
L 14.015625 -11.625 
L 7.71875 -11.625 
L 11.71875 4 
z
" id="DejaVuSans-44"/>
      </defs>
      <use xlink:href="#DejaVuSans-98"/>
      <use x="63.476562" xlink:href="#DejaVuSans-32"/>
      <use x="95.263672" xlink:href="#DejaVuSans-61"/>
      <use x="179.052734" xlink:href="#DejaVuSans-32"/>
      <use x="210.839844" xlink:href="#DejaVuSans-45"/>
      <use x="246.923828" xlink:href="#DejaVuSans-52"/>
      <use x="310.546875" xlink:href="#DejaVuSans-91"/>
      <use x="349.560547" xlink:href="#DejaVuSans-176"/>
      <use x="399.560547" xlink:href="#DejaVuSans-93"/>
      <use x="438.574219" xlink:href="#DejaVuSans-44"/>
      <use x="470.361328" xlink:href="#DejaVuSans-100"/>
      <use x="533.837891" xlink:href="#DejaVuSans-61"/>
      <use x="617.626953" xlink:href="#DejaVuSans-56"/>
      <use x="681.25" xlink:href="#DejaVuSans-46"/>
      <use x="713.037109" xlink:href="#DejaVuSans-53"/>
      <use x="776.660156" xlink:href="#DejaVuSans-107"/>
      <use x="834.570312" xlink:href="#DejaVuSans-112"/>
      <use x="898.046875" xlink:href="#DejaVuSans-99"/>
     </g>
    </g>
    <g id="line2d_148">
     <path d="M 282.415313 69.248563 
L 302.415313 69.248563 
" style="fill:none;stroke:#008000;stroke-linecap:square;stroke-width:1.5;"/>
    </g>
    <g id="line2d_149"/>
    <g id="text_21">
     <!-- b = -6[°],d=8.5kpc -->
     <g transform="translate(310.415313 72.748563)scale(0.1 -0.1)">
      <defs>
       <path d="M 33.015625 40.375 
Q 26.375 40.375 22.484375 35.828125 
Q 18.609375 31.296875 18.609375 23.390625 
Q 18.609375 15.53125 22.484375 10.953125 
Q 26.375 6.390625 33.015625 6.390625 
Q 39.65625 6.390625 43.53125 10.953125 
Q 47.40625 15.53125 47.40625 23.390625 
Q 47.40625 31.296875 43.53125 35.828125 
Q 39.65625 40.375 33.015625 40.375 
z
M 52.59375 71.296875 
L 52.59375 62.3125 
Q 48.875 64.0625 45.09375 64.984375 
Q 41.3125 65.921875 37.59375 65.921875 
Q 27.828125 65.921875 22.671875 59.328125 
Q 17.53125 52.734375 16.796875 39.40625 
Q 19.671875 43.65625 24.015625 45.921875 
Q 28.375 48.1875 33.59375 48.1875 
Q 44.578125 48.1875 50.953125 41.515625 
Q 57.328125 34.859375 57.328125 23.390625 
Q 57.328125 12.15625 50.6875 5.359375 
Q 44.046875 -1.421875 33.015625 -1.421875 
Q 20.359375 -1.421875 13.671875 8.265625 
Q 6.984375 17.96875 6.984375 36.375 
Q 6.984375 53.65625 15.1875 63.9375 
Q 23.390625 74.21875 37.203125 74.21875 
Q 40.921875 74.21875 44.703125 73.484375 
Q 48.484375 72.75 52.59375 71.296875 
z
" id="DejaVuSans-54"/>
      </defs>
      <use xlink:href="#DejaVuSans-98"/>
      <use x="63.476562" xlink:href="#DejaVuSans-32"/>
      <use x="95.263672" xlink:href="#DejaVuSans-61"/>
      <use x="179.052734" xlink:href="#DejaVuSans-32"/>
      <use x="210.839844" xlink:href="#DejaVuSans-45"/>
      <use x="246.923828" xlink:href="#DejaVuSans-54"/>
      <use x="310.546875" xlink:href="#DejaVuSans-91"/>
      <use x="349.560547" xlink:href="#DejaVuSans-176"/>
      <use x="399.560547" xlink:href="#DejaVuSans-93"/>
      <use x="438.574219" xlink:href="#DejaVuSans-44"/>
      <use x="470.361328" xlink:href="#DejaVuSans-100"/>
      <use x="533.837891" xlink:href="#DejaVuSans-61"/>
      <use x="617.626953" xlink:href="#DejaVuSans-56"/>
      <use x="681.25" xlink:href="#DejaVuSans-46"/>
      <use x="713.037109" xlink:href="#DejaVuSans-53"/>
      <use x="776.660156" xlink:href="#DejaVuSans-107"/>
      <use x="834.570312" xlink:href="#DejaVuSans-112"/>
      <use x="898.046875" xlink:href="#DejaVuSans-99"/>
     </g>
    </g>
    <g id="line2d_150">
     <path d="M 282.415313 83.926688 
L 302.415313 83.926688 
" style="fill:none;stroke:#0000ff;stroke-linecap:square;stroke-width:1.5;"/>
    </g>
    <g id="line2d_151"/>
    <g id="text_22">
     <!-- b = -8[°],d=8.5kpc -->
     <g transform="translate(310.415313 87.426688)scale(0.1 -0.1)">
      <use xlink:href="#DejaVuSans-98"/>
      <use x="63.476562" xlink:href="#DejaVuSans-32"/>
      <use x="95.263672" xlink:href="#DejaVuSans-61"/>
      <use x="179.052734" xlink:href="#DejaVuSans-32"/>
      <use x="210.839844" xlink:href="#DejaVuSans-45"/>
      <use x="246.923828" xlink:href="#DejaVuSans-56"/>
      <use x="310.546875" xlink:href="#DejaVuSans-91"/>
      <use x="349.560547" xlink:href="#DejaVuSans-176"/>
      <use x="399.560547" xlink:href="#DejaVuSans-93"/>
      <use x="438.574219" xlink:href="#DejaVuSans-44"/>
      <use x="470.361328" xlink:href="#DejaVuSans-100"/>
      <use x="533.837891" xlink:href="#DejaVuSans-61"/>
      <use x="617.626953" xlink:href="#DejaVuSans-56"/>
      <use x="681.25" xlink:href="#DejaVuSans-46"/>
      <use x="713.037109" xlink:href="#DejaVuSans-53"/>
      <use x="776.660156" xlink:href="#DejaVuSans-107"/>
      <use x="834.570312" xlink:href="#DejaVuSans-112"/>
      <use x="898.046875" xlink:href="#DejaVuSans-99"/>
     </g>
    </g>
   </g>
  </g>
 </g>
 <defs>
  <clipPath id="p734c65fa19">
   <rect height="266.112" width="357.12" x="57.6" y="41.472"/>
  </clipPath>
 </defs>
</svg>
